 <svg
   width="43.028801mm"
   height="9.6080704mm"
   viewBox="0 0 43.028801 9.6080704"
   version="1.1"
   id="lowPass_button"
   fx="lowPass"
   class="fx_svg"
   xml:space="preserve"
   inkscape:version="1.3 (0e150ed6c4, 2023-07-21)"
   sodipodi:docname="drawing.svg"
   xmlns:inkscape="http://www.inkscape.org/namespaces/inkscape"
   xmlns:sodipodi="http://sodipodi.sourceforge.net/DTD/sodipodi-0.dtd"
   xmlns="http://www.w3.org/2000/svg"
   xmlns:svg="http://www.w3.org/2000/svg"><sodipodi:namedview
     id="namedview1"
     pagecolor="#505050"
     bordercolor="#eeeeee"
     borderopacity="1"
     inkscape:showpageshadow="0"
     inkscape:pageopacity="0"
     inkscape:pagecheckerboard="0"
     inkscape:deskcolor="#505050"
     inkscape:document-units="mm"
     inkscape:zoom="2.9757807"
     inkscape:cx="396.53459"
     inkscape:cy="1417.9472"
     inkscape:window-width="2560"
     inkscape:window-height="1377"
     inkscape:window-x="-8"
     inkscape:window-y="-8"
     inkscape:window-maximized="1"
     inkscape:current-layer="layer1"
     showgrid="false" /><defs
     id="defs1" /><g
     inkscape:label="Layer 1"
     inkscape:groupmode="layer"
     id="layer1"
     transform="translate(-297.41618,-351.74419)"><g
       id="g5"><path
       class="bg"
         style="fill:#ffffff;stroke-width:0.352616;stroke-dashoffset:1.36063"
         d="m 297.41617,360.81013 v -6.79291 l 2.27301,-2.27301 h 39.98508 l 0.77073,0.77073 v 7.92941 l -0.9079,0.90793 H 298.0432 Z"
         id="path2-4-0-2"
         sodipodi:nodetypes="ccccccccc" /><path
         d="m 311.28428,357.94321 v -2.78598 h 0.31298 v 2.47299 h 2.46912 v 0.31299 z m 4.02922,0 q -0.12751,0 -0.2357,-0.0618 -0.10433,-0.0657 -0.17002,-0.17002 -0.0618,-0.10819 -0.0618,-0.2357 v -1.30605 q 0,-0.12751 0.0618,-0.23184 0.0657,-0.10819 0.17002,-0.17002 0.10819,-0.0657 0.2357,-0.0657 h 1.34469 q 0.13138,0 0.23571,0.0657 0.10819,0.0618 0.17001,0.17002 0.0657,0.10433 0.0657,0.23184 v 1.30605 q 0,0.12751 -0.0657,0.2357 -0.0618,0.10433 -0.17001,0.17002 -0.10433,0.0618 -0.23571,0.0618 z m 0,-0.31685 h 1.34469 q 0.0618,0 0.10433,-0.0425 0.0464,-0.0464 0.0464,-0.10819 v -1.30605 q 0,-0.0618 -0.0464,-0.10433 -0.0425,-0.0464 -0.10433,-0.0464 h -1.34469 q -0.0618,0 -0.10819,0.0464 -0.0425,0.0425 -0.0425,0.10433 v 1.30605 q 0,0.0618 0.0425,0.10819 0.0464,0.0425 0.10819,0.0425 z m 3.46508,0.31685 v 0 l -0.881,-2.24115 h 0.34004 l 0.68007,1.66927 0.72257,-1.66927 h 0.41732 l 0.76894,1.6654 0.63371,-1.6654 h 0.34389 l -0.84622,2.24115 h -0.27435 l -0.83463,-1.85088 -0.79213,1.85088 z m 3.91331,0 v -2.77825 h 2.31842 q 0.12751,0 0.23184,0.0657 0.1082,0.0618 0.17002,0.16615 0.0618,0.10433 0.0618,0.23185 v 0.81531 q 0,0.12751 -0.0618,0.23184 -0.0618,0.10433 -0.17002,0.17002 -0.10433,0.0618 -0.23184,0.0618 h -2.00544 v 1.03557 z m 0.46368,-1.35242 h 1.85474 q 0.0618,0 0.10433,-0.0425 0.0464,-0.0425 0.0464,-0.10433 v -0.81531 q 0,-0.0618 -0.0464,-0.10433 -0.0425,-0.0464 -0.10433,-0.0464 h -1.85474 q -0.0618,0 -0.10819,0.0464 -0.0425,0.0425 -0.0425,0.10433 v 0.81531 q 0,0.0618 0.0425,0.10433 0.0464,0.0425 0.10819,0.0425 z m 3.61964,1.35242 q -0.12751,0 -0.2357,-0.0618 -0.10433,-0.0657 -0.17002,-0.17002 -0.0618,-0.10819 -0.0618,-0.2357 v -0.81145 h 1.96293 v -0.4946 q 0,-0.0618 -0.0464,-0.10433 -0.0425,-0.0464 -0.10433,-0.0464 h -1.81223 v -0.31685 h 1.81223 q 0.13138,0 0.23571,0.0657 0.10819,0.0618 0.17001,0.17002 0.0657,0.10433 0.0657,0.23184 v 1.7736 z m 0,-0.31685 h 1.49539 v -0.6453 h -1.64608 v 0.4946 q 0,0.0618 0.0425,0.10819 0.0464,0.0425 0.10819,0.0425 z m 3.16369,0.31685 q -0.12752,0 -0.23571,-0.0618 -0.10433,-0.0657 -0.17002,-0.17002 -0.0618,-0.10819 -0.0618,-0.2357 v -0.0309 h 0.31685 v 0.0309 q 0,0.0618 0.0425,0.10819 0.0464,0.0425 0.1082,0.0425 h 1.34468 q 0.0618,0 0.10433,-0.0425 0.0464,-0.0464 0.0464,-0.10819 v -0.3439 q 0,-0.0618 -0.0464,-0.10433 -0.0425,-0.0464 -0.10433,-0.0464 h -1.34468 q -0.12752,0 -0.23571,-0.0618 -0.10433,-0.0657 -0.17002,-0.17002 -0.0618,-0.10819 -0.0618,-0.23571 v -0.3439 q 0,-0.12751 0.0618,-0.23184 0.0657,-0.10819 0.17002,-0.17002 0.10819,-0.0657 0.23571,-0.0657 h 1.34468 q 0.13138,0 0.23571,0.0657 0.10819,0.0618 0.17002,0.17002 0.0657,0.10433 0.0657,0.23184 v 0.0309 h -0.32072 v -0.0309 q 0,-0.0618 -0.0464,-0.10433 -0.0425,-0.0464 -0.10433,-0.0464 h -1.34468 q -0.0618,0 -0.1082,0.0464 -0.0425,0.0425 -0.0425,0.10433 v 0.3439 q 0,0.0618 0.0425,0.1082 0.0464,0.0425 0.1082,0.0425 h 1.34468 q 0.13138,0 0.23571,0.0657 0.10819,0.0618 0.17002,0.17002 0.0657,0.10433 0.0657,0.23184 v 0.3439 q 0,0.12751 -0.0657,0.2357 -0.0618,0.10433 -0.17002,0.17002 -0.10433,0.0618 -0.23571,0.0618 z m 3.22551,0 q -0.12751,0 -0.2357,-0.0618 -0.10433,-0.0657 -0.17002,-0.17002 -0.0618,-0.10819 -0.0618,-0.2357 v -0.0309 h 0.31685 v 0.0309 q 0,0.0618 0.0425,0.10819 0.0464,0.0425 0.10819,0.0425 h 1.34469 q 0.0618,0 0.10433,-0.0425 0.0464,-0.0464 0.0464,-0.10819 v -0.3439 q 0,-0.0618 -0.0464,-0.10433 -0.0425,-0.0464 -0.10433,-0.0464 h -1.34469 q -0.12751,0 -0.2357,-0.0618 -0.10433,-0.0657 -0.17002,-0.17002 -0.0618,-0.10819 -0.0618,-0.23571 v -0.3439 q 0,-0.12751 0.0618,-0.23184 0.0657,-0.10819 0.17002,-0.17002 0.10819,-0.0657 0.2357,-0.0657 h 1.34469 q 0.13137,0 0.2357,0.0657 0.1082,0.0618 0.17002,0.17002 0.0657,0.10433 0.0657,0.23184 v 0.0309 h -0.32072 v -0.0309 q 0,-0.0618 -0.0464,-0.10433 -0.0425,-0.0464 -0.10433,-0.0464 h -1.34469 q -0.0618,0 -0.10819,0.0464 -0.0425,0.0425 -0.0425,0.10433 v 0.3439 q 0,0.0618 0.0425,0.1082 0.0464,0.0425 0.10819,0.0425 h 1.34469 q 0.13137,0 0.2357,0.0657 0.1082,0.0618 0.17002,0.17002 0.0657,0.10433 0.0657,0.23184 v 0.3439 q 0,0.12751 -0.0657,0.2357 -0.0618,0.10433 -0.17002,0.17002 -0.10433,0.0618 -0.2357,0.0618 h -1.34469 z"
         id="text4-3-2"
         style="font-size:3.86404px;font-family:Orbitron;-inkscape-font-specification:Orbitron;letter-spacing:0.574778px;fill:#2e2e2e;stroke-width:0.0684573;stroke-dashoffset:1.36063"
         aria-label="LowPass" /><path
         class="initial"
         style="fill:#2e2e2e;fill-opacity:1;stroke-width:0.352616;stroke-dashoffset:1.36063"
         d="m 298.23845,360.53807 v -5.94875 l 2.05065,-2.05065 h 7.14955 c 0,0 0.11084,8.29496 0,8.29496 -0.11083,0 -9.2002,0 -9.2002,0 z"
         id="path3-1-6-8" /><path
         d="m 300.18839,359.60852 v -5.85288 h 0.65753 v 5.19535 h 5.18723 v 0.65753 z"
         id="text5-6-4"
         style="font-size:8.11772px;font-family:Orbitron;-inkscape-font-specification:Orbitron;letter-spacing:1.20751px;fill:#ffffff;stroke-width:0.143818;stroke-dashoffset:1.36063"
         aria-label="L" /></g></g></svg>