<svg
   width="36.860767mm"
   height="9.6080704mm"
   viewBox="0 0 36.860767 9.6080704"
   version="1.1"
   id="reverb_button"
   fx="reverb"
   class="fx_svg"
   xml:space="preserve"
   inkscape:version="1.3 (0e150ed6c4, 2023-07-21)"
   sodipodi:docname="drawing.svg"
   xmlns:inkscape="http://www.inkscape.org/namespaces/inkscape"
   xmlns:sodipodi="http://sodipodi.sourceforge.net/DTD/sodipodi-0.dtd"
   xmlns="http://www.w3.org/2000/svg"
   xmlns:svg="http://www.w3.org/2000/svg"><sodipodi:namedview
     id="namedview1"
     pagecolor="#505050"
     bordercolor="#eeeeee"
     borderopacity="1"
     inkscape:showpageshadow="0"
     inkscape:pageopacity="0"
     inkscape:pagecheckerboard="0"
     inkscape:deskcolor="#505050"
     inkscape:document-units="mm"
     inkscape:zoom="2.9757807"
     inkscape:cx="396.53459"
     inkscape:cy="1417.9472"
     inkscape:window-width="2560"
     inkscape:window-height="1377"
     inkscape:window-x="-8"
     inkscape:window-y="-8"
     inkscape:window-maximized="1"
     inkscape:current-layer="layer1"
     showgrid="false" /><defs
     id="defs1" /><g
     inkscape:label="Layer 1"
     inkscape:groupmode="layer"
     id="layer1"
     transform="translate(-167.08739,-351.74419)"><g
       id="g2"><path
         style="fill:#ffffff;stroke-width:0.352616;stroke-dashoffset:1.36063"
         d="m 167.0874,360.81013 v -6.79291 l 2.27301,-2.27301 h 33.81701 l 0.77074,0.77073 v 7.92941 l -0.9079,0.90793 h -35.32583 z"
         id="path2-4-7"
         class="bg"
         sodipodi:nodetypes="ccccccccc" /><path
         d="m 183.30098,358.03784 -0.90805,-1.08193 h 0.40959 l 0.91191,1.07807 v 0.004 z m -2.34933,0 v -2.77824 h 2.31842 q 0.12751,0 0.23184,0.0657 0.1082,0.0618 0.17002,0.16615 0.0618,0.10433 0.0618,0.23184 v 0.81531 q 0,0.12752 -0.0618,0.23185 -0.0618,0.10433 -0.17002,0.17001 -0.10433,0.0618 -0.23184,0.0618 h -2.00544 v 1.03556 z m 0.46368,-1.35241 h 1.85474 q 0.0618,0 0.10433,-0.0425 0.0464,-0.0425 0.0464,-0.10433 v -0.81531 q 0,-0.0618 -0.0464,-0.10433 -0.0425,-0.0464 -0.10433,-0.0464 h -1.85474 q -0.0618,0 -0.10819,0.0464 -0.0425,0.0425 -0.0425,0.10433 v 0.81531 q 0,0.0618 0.0425,0.10433 0.0464,0.0425 0.10819,0.0425 z m 3.74716,1.35241 q -0.12751,0 -0.23571,-0.0618 -0.10433,-0.0657 -0.17002,-0.17002 -0.0618,-0.10819 -0.0618,-0.23571 v -1.30604 q 0,-0.12752 0.0618,-0.23184 0.0657,-0.1082 0.17002,-0.17002 0.1082,-0.0657 0.23571,-0.0657 h 1.34468 q 0.13138,0 0.23571,0.0657 0.10819,0.0618 0.17002,0.17002 0.0657,0.10432 0.0657,0.23184 v 0.81145 h -1.9668 v 0.49459 q 0,0.0618 0.0425,0.1082 0.0464,0.0425 0.10819,0.0425 h 1.8161 v 0.31685 h -1.8161 z m -0.1507,-1.279 h 1.64608 v -0.49459 q 0,-0.0618 -0.0464,-0.10433 -0.0425,-0.0464 -0.10433,-0.0464 h -1.34468 q -0.0618,0 -0.10819,0.0464 -0.0425,0.0425 -0.0425,0.10433 z m 3.97513,1.279 v 0 l -1.23649,-2.24114 h 0.37095 l 1.05101,1.93202 1.05102,-1.93202 h 0.37095 l -1.24036,2.24114 z m 2.85843,0 q -0.12752,0 -0.23571,-0.0618 -0.10433,-0.0657 -0.17002,-0.17002 -0.0618,-0.10819 -0.0618,-0.23571 v -1.30604 q 0,-0.12752 0.0618,-0.23184 0.0657,-0.1082 0.17002,-0.17002 0.10819,-0.0657 0.23571,-0.0657 h 1.34468 q 0.13138,0 0.23571,0.0657 0.10819,0.0618 0.17002,0.17002 0.0657,0.10432 0.0657,0.23184 v 0.81145 h -1.9668 v 0.49459 q 0,0.0618 0.0425,0.1082 0.0464,0.0425 0.1082,0.0425 h 1.8161 v 0.31685 h -1.8161 z m -0.1507,-1.279 h 1.64608 v -0.49459 q 0,-0.0618 -0.0464,-0.10433 -0.0425,-0.0464 -0.10433,-0.0464 h -1.34468 q -0.0618,0 -0.1082,0.0464 -0.0425,0.0425 -0.0425,0.10433 z m 2.91639,1.279 v 0 -1.77359 q 0,-0.12752 0.0618,-0.23184 0.0657,-0.1082 0.17002,-0.17002 0.10819,-0.0657 0.23571,-0.0657 h 1.25967 v 0.31685 h -1.25967 q -0.0618,0 -0.1082,0.0464 -0.0425,0.0425 -0.0425,0.10433 v 1.77359 z m 2.56089,0 v 0 -2.97531 h 0.31685 v 0.73417 h 1.49925 q 0.12751,0 0.23184,0.0657 0.10819,0.0618 0.17002,0.17002 0.0657,0.10432 0.0657,0.23184 v 1.30604 q 0,0.12752 -0.0657,0.23571 -0.0618,0.10433 -0.17002,0.17002 -0.10433,0.0618 -0.23184,0.0618 z m 0.47141,-0.31685 h 1.34469 q 0.0618,0 0.10433,-0.0425 0.0464,-0.0464 0.0464,-0.1082 v -1.30604 q 0,-0.0618 -0.0464,-0.10433 -0.0425,-0.0464 -0.10433,-0.0464 h -1.34469 q -0.0618,0 -0.10819,0.0464 -0.0464,0.0425 -0.0464,0.10433 v 1.30604 q 0,0.0618 0.0464,0.1082 0.0464,0.0425 0.10819,0.0425 z"
         id="text4-9"
         style="font-size:3.86404px;font-family:Orbitron;-inkscape-font-specification:Orbitron;letter-spacing:0.574778px;fill:#2e2e2e;stroke-width:0.0684573;stroke-dashoffset:1.36063"
         aria-label="Reverb" /><path
         class="initial"
         style="fill:#2e2e2e;fill-opacity:1;stroke-width:0.352616;stroke-dashoffset:1.36063"
         d="m 167.90967,360.53807 v -5.94874 l 2.05065,-2.05065 h 7.14956 c 0,0 0.11084,8.29495 0,8.29495 -0.11084,0 -9.20021,0 -9.20021,0 z"
         id="path3-1-7" /><path
         d="m 174.78708,359.60852 -1.90767,-2.27296 h 0.86048 l 1.91578,2.26484 v 0.008 z m -4.93558,0 v -5.83664 h 4.87064 q 0.26788,0 0.48706,0.138 0.2273,0.12988 0.35718,0.34906 0.12988,0.21918 0.12988,0.48707 v 1.71284 q 0,0.26788 -0.12988,0.48706 -0.12988,0.21918 -0.35718,0.35718 -0.21918,0.12988 -0.48706,0.12988 h -4.2131 v 2.17555 z m 0.97413,-2.8412 h 3.89651 q 0.12988,0 0.21917,-0.0893 0.0974,-0.0893 0.0974,-0.21917 v -1.71284 q 0,-0.12989 -0.0974,-0.21918 -0.0893,-0.0974 -0.21917,-0.0974 h -3.89651 q -0.12988,0 -0.2273,0.0974 -0.0893,0.0893 -0.0893,0.21918 v 1.71284 q 0,0.12988 0.0893,0.21917 0.0974,0.0893 0.2273,0.0893 z"
         id="text5-66"
         style="font-size:8.11772px;font-family:Orbitron;-inkscape-font-specification:Orbitron;letter-spacing:1.20751px;fill:#ffffff;stroke-width:0.143818;stroke-dashoffset:1.36063"
         aria-label="R" /></g></g></svg>