<svg
   width="36.860748mm"
   height="9.6080704mm"
   viewBox="0 0 36.860748 9.6080704"
   version="1.1"
   id="tremolo_button"
   fx="tremolo"
   class="fx_svg"
   xml:space="preserve"
   inkscape:version="1.3 (0e150ed6c4, 2023-07-21)"
   sodipodi:docname="drawing.svg"
   xmlns:inkscape="http://www.inkscape.org/namespaces/inkscape"
   xmlns:sodipodi="http://sodipodi.sourceforge.net/DTD/sodipodi-0.dtd"
   xmlns="http://www.w3.org/2000/svg"
   xmlns:svg="http://www.w3.org/2000/svg"><sodipodi:namedview
     id="namedview1"
     pagecolor="#505050"
     bordercolor="#eeeeee"
     borderopacity="1"
     inkscape:showpageshadow="0"
     inkscape:pageopacity="0"
     inkscape:pagecheckerboard="0"
     inkscape:deskcolor="#505050"
     inkscape:document-units="mm"
     inkscape:zoom="2.9757807"
     inkscape:cx="396.53459"
     inkscape:cy="1417.9472"
     inkscape:window-width="2560"
     inkscape:window-height="1377"
     inkscape:window-x="-8"
     inkscape:window-y="-8"
     inkscape:window-maximized="1"
     inkscape:current-layer="layer1"
     showgrid="false" /><defs
     id="defs1" /><g
     inkscape:label="Layer 1"
     inkscape:groupmode="layer"
     id="layer1"
     transform="translate(-252.53147,-351.74419)"><g
       id="g4"><path
         style="fill:#ffffff;stroke-width:0.352616;stroke-dashoffset:1.36063"
         d="m 252.53147,360.81013 v -6.79291 l 2.27301,-2.27301 h 33.81701 l 0.77074,0.77073 v 7.92941 l -0.9079,0.90793 H 253.1585 Z"
         id="path2-4-4"
         class="bg"
         sodipodi:nodetypes="ccccccccc" /><path
         d="m 267.49309,358.03784 v 0 -2.46912 h -1.23649 v -0.31299 h 2.78211 v 0.31299 h -1.23263 v 2.46912 z m 2.39475,0 v 0 -1.77359 q 0,-0.12752 0.0618,-0.23184 0.0657,-0.1082 0.17002,-0.17002 0.10819,-0.0657 0.23571,-0.0657 h 1.25967 v 0.31685 h -1.25967 q -0.0618,0 -0.1082,0.0464 -0.0425,0.0425 -0.0425,0.10433 v 1.77359 z m 3.01685,0 q -0.12752,0 -0.23571,-0.0618 -0.10433,-0.0657 -0.17002,-0.17002 -0.0618,-0.10819 -0.0618,-0.23571 v -1.30604 q 0,-0.12752 0.0618,-0.23184 0.0657,-0.1082 0.17002,-0.17002 0.10819,-0.0657 0.23571,-0.0657 h 1.34468 q 0.13138,0 0.23571,0.0657 0.10819,0.0618 0.17002,0.17002 0.0657,0.10432 0.0657,0.23184 v 0.81145 h -1.9668 v 0.49459 q 0,0.0618 0.0425,0.1082 0.0464,0.0425 0.1082,0.0425 h 1.8161 v 0.31685 h -1.8161 z m -0.1507,-1.279 h 1.64608 v -0.49459 q 0,-0.0618 -0.0464,-0.10433 -0.0425,-0.0464 -0.10433,-0.0464 h -1.34468 q -0.0618,0 -0.1082,0.0464 -0.0425,0.0425 -0.0425,0.10433 z m 2.94343,1.279 v 0 -2.24114 h 2.95986 q 0.13137,0 0.2357,0.0657 0.1082,0.0618 0.17002,0.17002 0.0618,0.10432 0.0618,0.23184 v 1.77359 h -0.31298 v -1.77359 q 0,-0.0618 -0.0464,-0.10433 -0.0464,-0.0464 -0.10819,-0.0464 h -0.93124 q -0.0618,0 -0.10819,0.0464 -0.0425,0.0425 -0.0425,0.10433 v 1.77359 h -0.32071 v -1.77359 q 0,-0.0618 -0.0464,-0.10433 -0.0425,-0.0464 -0.10433,-0.0464 h -0.9351 q -0.0618,0 -0.10819,0.0464 -0.0425,0.0425 -0.0425,0.10433 v 1.77359 z m 4.80977,0 q -0.12751,0 -0.23571,-0.0618 -0.10433,-0.0657 -0.17001,-0.17002 -0.0618,-0.10819 -0.0618,-0.23571 v -1.30604 q 0,-0.12752 0.0618,-0.23184 0.0657,-0.1082 0.17001,-0.17002 0.1082,-0.0657 0.23571,-0.0657 h 1.34469 q 0.13137,0 0.2357,0.0657 0.1082,0.0618 0.17002,0.17002 0.0657,0.10432 0.0657,0.23184 v 1.30604 q 0,0.12752 -0.0657,0.23571 -0.0618,0.10433 -0.17002,0.17002 -0.10433,0.0618 -0.2357,0.0618 z m 0,-0.31685 h 1.34469 q 0.0618,0 0.10432,-0.0425 0.0464,-0.0464 0.0464,-0.1082 v -1.30604 q 0,-0.0618 -0.0464,-0.10433 -0.0425,-0.0464 -0.10432,-0.0464 h -1.34469 q -0.0618,0 -0.10819,0.0464 -0.0425,0.0425 -0.0425,0.10433 v 1.30604 q 0,0.0618 0.0425,0.1082 0.0464,0.0425 0.10819,0.0425 z m 3.17527,0.31685 q -0.12751,0 -0.2357,-0.0618 -0.10433,-0.0657 -0.17002,-0.17002 -0.0618,-0.10819 -0.0618,-0.23571 v -2.50776 h 0.31685 v 2.50776 q 0,0.0618 0.0425,0.1082 0.0464,0.0425 0.10819,0.0425 h 0.37868 v 0.31685 h -0.37868 z m 1.69921,0 q -0.12751,0 -0.2357,-0.0618 -0.10433,-0.0657 -0.17002,-0.17002 -0.0618,-0.10819 -0.0618,-0.23571 v -1.30604 q 0,-0.12752 0.0618,-0.23184 0.0657,-0.1082 0.17002,-0.17002 0.10819,-0.0657 0.2357,-0.0657 h 1.34469 q 0.13138,0 0.23571,0.0657 0.10819,0.0618 0.17002,0.17002 0.0657,0.10432 0.0657,0.23184 v 1.30604 q 0,0.12752 -0.0657,0.23571 -0.0618,0.10433 -0.17002,0.17002 -0.10433,0.0618 -0.23571,0.0618 z m 0,-0.31685 h 1.34469 q 0.0618,0 0.10433,-0.0425 0.0464,-0.0464 0.0464,-0.1082 v -1.30604 q 0,-0.0618 -0.0464,-0.10433 -0.0425,-0.0464 -0.10433,-0.0464 h -1.34469 q -0.0618,0 -0.10819,0.0464 -0.0425,0.0425 -0.0425,0.10433 v 1.30604 q 0,0.0618 0.0425,0.1082 0.0464,0.0425 0.10819,0.0425 z"
         id="text4-7"
         style="font-size:3.86404px;font-family:Orbitron;-inkscape-font-specification:Orbitron;letter-spacing:0.574778px;fill:#2e2e2e;stroke-width:0.0684573;stroke-dashoffset:1.36063"
         aria-label="Tremolo" /><path
         class="initial"
         style="fill:#2e2e2e;fill-opacity:1;stroke-width:0.352616;stroke-dashoffset:1.36063"
         d="m 253.35374,360.53807 v -5.94875 l 2.05066,-2.05065 h 7.14955 c 0,0 0.11084,8.29496 0,8.29496 -0.11084,0 -9.20021,0 -9.20021,0 z"
         id="path3-1-3" /><path
         d="m 257.60101,359.60852 v 0 -5.18722 h -2.59767 v -0.65754 h 5.84476 v 0.65754 h -2.58955 v 5.18722 z"
         id="text5-4"
         style="font-size:8.11772px;font-family:Orbitron;-inkscape-font-specification:Orbitron;letter-spacing:1.20751px;fill:#ffffff;stroke-width:0.143818;stroke-dashoffset:1.36063"
         aria-label="T" /></g></g></svg>