<?xml version="1.0" standalone="no"?>
<!DOCTYPE svg PUBLIC "-//W3C//DTD SVG 1.1//EN" "http://www.w3.org/Graphics/SVG/1.1/DTD/svg11.dtd" >
<svg xmlns="http://www.w3.org/2000/svg" xmlns:xlink="http://www.w3.org/1999/xlink" version="1.1">
<metadata>
Created by FontForge 20170731 at Tue Jul 11 12:14:05 2023
 By Aleksey,,,
Copyright (c) 2022 Sign Studio. All Right Reserved.
</metadata>
<defs>
<font id="Psilograph-ExtraLight" horiz-adv-x="253" >
  <font-face 
    font-family="Psilograph ExtLt"
    font-weight="200"
    font-stretch="normal"
    units-per-em="2048"
    panose-1="0 0 0 0 0 0 0 0 0 0"
    ascent="1597"
    descent="-451"
    x-height="1065"
    cap-height="1434"
    bbox="-90 -410 1444 1706"
    underline-thickness="90"
    underline-position="-313"
    unicode-range="U+000D-FB02"
  />
<missing-glyph horiz-adv-x="1361" 
d="M244 0v1434h874v-1434h-874zM680 766l371 616h-740zM1071 111v1210l-360 -604zM293 115l358 602l-358 600v-1202zM313 53h738l-369 615z" />
    <glyph glyph-name="fi" unicode="fi" horiz-adv-x="284" 
d="M20 0v1430q0 22 16 37.5t38 15.5h92v-62h-53q-11 0 -18 -7t-7 -17v-332h78v-59h-78v-1006h-68zM197 1309h67v-111h-67v111zM264 1065v-1065h-67v1065h67z" />
    <glyph glyph-name="fl" unicode="fl" horiz-adv-x="284" 
d="M20 0v1430q0 22 16 37.5t38 15.5h92v-62h-53q-11 0 -18 -7t-7 -17v-332h78v-59h-78v-1006h-68zM264 0h-67v1483h67v-1483z" />
    <glyph glyph-name=".notdef" horiz-adv-x="1361" 
d="M244 0v1434h874v-1434h-874zM680 766l371 616h-740zM1071 111v1210l-360 -604zM293 115l358 602l-358 600v-1202zM313 53h738l-369 615z" />
    <glyph glyph-name="uni0000" horiz-adv-x="0" 
 />
    <glyph glyph-name="uni0000" horiz-adv-x="0" 
 />
    <glyph glyph-name="uni000D" unicode="&#xd;" horiz-adv-x="512" 
 />
    <glyph glyph-name="space" unicode=" " horiz-adv-x="135" 
 />
    <glyph glyph-name="exclam" unicode="!" horiz-adv-x="108" 
d="M88 328h-68v1106h68v-1106zM88 0h-68v106h68v-106z" />
    <glyph glyph-name="quotedbl" unicode="&#x22;" horiz-adv-x="305" 
d="M20 1200l43 234h74l-49 -234h-68zM168 1200l45 234h72l-49 -234h-68z" />
    <glyph glyph-name="numbersign" unicode="#" horiz-adv-x="632" 
d="M61 952h160l62 484h65l-61 -484h108l62 484h65l-61 -484h151v-65h-159l-43 -336h163v-66h-172l-61 -485h-66l62 485h-109l-61 -485h-66l60 485h-137v66h145l45 336h-152v65zM236 551h108l43 336h-108z" />
    <glyph glyph-name="dollar" unicode="$" horiz-adv-x="256" 
d="M86 686q-28 0 -47 19t-19 47v628q0 22 16 38t38 16h20v79h68v-79h20q22 0 38 -16t16 -38v-596h-68v564q0 10 -8 17t-19 7h-28q-11 0 -18 -7t-7 -17v-576q0 -10 7 -17t18 -7h57q28 0 47 -19t19 -47v-629q0 -22 -16 -37.5t-38 -15.5h-20v-80h-68v80h-20q-22 0 -38 15.5
t-16 37.5v596h68v-563q0 -10 7 -17.5t18 -7.5h28q11 0 19 7.5t8 17.5v576q0 10 -8 17t-19 7h-55z" />
    <glyph glyph-name="percent" unicode="%" horiz-adv-x="630" 
d="M233 1337v-628q0 -45 -31.5 -76t-76.5 -31q-43 0 -74 31.5t-31 75.5v628q0 43 32 74t77 31q43 0 73.5 -31t30.5 -74zM68 0l428 1434h69l-428 -1434h-69zM166 702v639q0 17 -11.5 28t-27.5 11t-27.5 -11t-11.5 -28v-639q0 -15 12 -26.5t27 -11.5t27 11.5t12 26.5zM610 727
v-629q0 -44 -31 -75t-77 -31q-43 0 -74 31t-31 75v629q0 43 31.5 73.5t77.5 30.5q43 0 73.5 -30.5t30.5 -73.5zM543 92v639q0 17 -11.5 28t-27.5 11t-27.5 -11t-11.5 -28v-639q0 -15 12 -27t27 -12t27 12t12 27z" />
    <glyph glyph-name="ampersand" unicode="&#x26;" horiz-adv-x="303" 
d="M88 1354v-414l80 -88v94h68v-166l57 -63v-99l-57 68v-633q0 -22 -16 -37.5t-38 -15.5h-108q-22 0 -38 15.5t-16 37.5v707q0 22 16 37.5t38 15.5h43l-97 109v464q0 22 16 38t38 16h108q22 0 38 -16t16 -38v-241h-68v209q0 10 -7 17t-18 7h-30q-11 0 -18 -7t-7 -17z
M168 752h-55q-11 0 -18 -7t-7 -18v-641q0 -10 7 -17.5t18 -7.5h30q11 0 18 7.5t7 17.5v666z" />
    <glyph glyph-name="quotesingle" unicode="'" horiz-adv-x="157" 
d="M20 1200l43 234h74l-49 -234h-68z" />
    <glyph glyph-name="parenleft" unicode="(" horiz-adv-x="258" 
d="M20 588q0 255 42 476t120 370h66q-75 -143 -117.5 -366.5t-42.5 -479.5t42.5 -479.5t117.5 -366.5h-66q-78 149 -120 370t-42 476z" />
    <glyph glyph-name="parenright" unicode=")" horiz-adv-x="258" 
d="M238 588q0 -255 -42 -476t-120 -370h-66q75 143 117.5 366.5t42.5 479.5t-42.5 479.5t-117.5 366.5h66q78 -149 120 -370t42 -476z" />
    <glyph glyph-name="asterisk" unicode="*" horiz-adv-x="595" 
d="M297 1098l-139 -217l-62 47l162 200l-248 66l23 74l239 -90l-12 256h76l-12 -256l239 92l23 -74l-248 -68l160 -198l-62 -47z" />
    <glyph glyph-name="plus" unicode="+" horiz-adv-x="387" 
d="M20 518v68h140v139h67v-139h140v-68h-140v-139h-67v139h-140z" />
    <glyph glyph-name="comma" unicode="," horiz-adv-x="137" 
d="M10 -127l43 233h74l-49 -233h-68z" />
    <glyph glyph-name="hyphen" unicode="-" horiz-adv-x="387" 
d="M20 518v68h347v-68h-347z" />
    <glyph glyph-name="period" unicode="." horiz-adv-x="112" 
d="M20 0v106h72v-106h-72z" />
    <glyph glyph-name="slash" unicode="/" horiz-adv-x="538" 
d="M20 0l429 1434h69l-428 -1434h-70z" />
    <glyph glyph-name="zero" unicode="0" 
d="M233 1337v-1239q0 -44 -31 -75t-77 -31q-43 0 -74 31t-31 75v1239q0 43 32 74t77 31q43 0 73.5 -31t30.5 -74zM166 92v1249q0 17 -11.5 28t-27.5 11t-27.5 -11t-11.5 -28v-1249q0 -17 11.5 -28t27.5 -11t27.5 11t11.5 28z" />
    <glyph glyph-name="one" unicode="1" horiz-adv-x="223" 
d="M10 1352h45q11 0 18 7t7 17v58h67v-1373h66v-61h-199v61h66v1231h-70v60z" />
    <glyph glyph-name="two" unicode="2" horiz-adv-x="251" 
d="M18 0v61q0 165 80 492q66 258 66 459v329q0 17 -12 29t-27 12t-27 -12t-12 -29v-426h-68v422q0 44 31.5 74.5t77.5 30.5q43 0 73.5 -30.5t30.5 -74.5v-325q0 -198 -69 -471q-76 -301 -76 -480h145v-61h-213z" />
    <glyph glyph-name="three" unicode="3" horiz-adv-x="256" 
d="M125 -8q-43 0 -74 30.5t-31 73.5v416h68v-420q0 -17 11.5 -28t27.5 -11t27.5 10t11.5 27v780q0 19 -13 32t-32 13h-101v62l144 395h-144v62h216v-62l-144 -395h45q40 0 68 -28t28 -68v-787q0 -42 -31.5 -72t-76.5 -30z" />
    <glyph glyph-name="four" unicode="4" horiz-adv-x="249" 
d="M90 1434h66l-76 -1035h82v766h67v-1165h-67v338h-152z" />
    <glyph glyph-name="five" unicode="5" 
d="M233 864v-770q0 -42 -31.5 -72t-76.5 -30q-43 0 -74 30.5t-31 73.5v416h68v-420q0 -17 11.5 -28t27.5 -11t27.5 10t11.5 27v780q0 19 -13 32t-32 13h-101v519h213v-62h-145v-395h33q47 0 79.5 -33t32.5 -80z" />
    <glyph glyph-name="six" unicode="6" 
d="M233 864v-768q0 -43 -31.5 -73.5t-76.5 -30.5q-43 0 -74 31t-31 75v1239q0 43 32 74t77 31q44 0 74 -31t30 -74v-278h-67v284q0 17 -11.5 27t-27.5 10q-17 0 -28 -10t-11 -27v-366h33q47 0 79.5 -33t32.5 -80zM88 915v-823q0 -17 11.5 -28t27.5 -11q15 0 27 11t12 26v780
q0 19 -13 32t-32 13h-33z" />
    <glyph glyph-name="seven" unicode="7" horiz-adv-x="258" 
d="M248 1372q-113 -578 -113 -1286v-86h-67v86q0 715 114 1286h-94v-313h-68v375h228v-62z" />
    <glyph glyph-name="eight" unicode="8" 
d="M233 872v-774q0 -44 -31 -75t-77 -31q-43 0 -74 31t-31 75v774q0 43 31 74q-31 31 -31 76v315q0 43 32 74t77 31q43 0 73.5 -31t30.5 -74v-315q0 -46 -30 -76q30 -30 30 -74zM166 1016v325q0 17 -11.5 28t-27.5 11q-17 0 -29 -11t-12 -28v-325q0 -15 12 -27t29 -12
q15 0 27 12t12 27zM166 92v785q0 17 -11.5 27.5t-27.5 10.5q-18 0 -29.5 -10.5t-11.5 -27.5v-785q0 -15 12 -27t29 -12q15 0 27 12t12 27z" />
    <glyph glyph-name="nine" unicode="9" 
d="M20 569v768q0 43 32 74t77 31q44 0 74 -31t30 -74v-1239q0 -44 -31 -75t-77 -31q-43 0 -74 31t-31 75v277h68v-285q0 -15 12 -26t27 -11q17 0 28 11t11 26v367h-33q-47 0 -80 32.5t-33 79.5zM166 518v823q0 17 -11.5 28t-27.5 11t-27.5 -10t-11.5 -27v-780q0 -19 13 -32
t32 -13h33z" />
    <glyph glyph-name="colon" unicode=":" horiz-adv-x="112" 
d="M20 774v107h72v-107h-72zM20 0v106h72v-106h-72z" />
    <glyph glyph-name="semicolon" unicode=";" horiz-adv-x="157" 
d="M45 774v107h72v-107h-72zM20 -127l43 233h74l-49 -233h-68z" />
    <glyph glyph-name="less" unicode="&#x3c;" horiz-adv-x="710" 
d="M700 313l-690 334v31l690 332v-76l-571 -272l571 -273v-76z" />
    <glyph glyph-name="equal" unicode="=" horiz-adv-x="387" 
d="M20 678v65h347v-65h-347zM20 508v65h347v-65h-347z" />
    <glyph glyph-name="greater" unicode="&#x3e;" horiz-adv-x="710" 
d="M10 313v76l574 273l-574 272v76l690 -332v-31z" />
    <glyph glyph-name="question" unicode="?" horiz-adv-x="251" 
d="M82 375q0 158 43 311q39 137 39 330v325q0 15 -12 27t-27 12t-27 -12t-12 -27v-325h-68v319q0 44 31.5 75.5t77.5 31.5q43 0 73.5 -31.5t30.5 -75.5v-319q0 -209 -45 -361q-36 -121 -36 -280v-47h-68v47zM82 0v106h68v-106h-68z" />
    <glyph glyph-name="at" unicode="@" horiz-adv-x="751" 
d="M432 -135q-196 0 -304 216.5t-108 602.5q0 758 363 758q348 0 348 -703q0 -325 -59 -480t-183 -155h-161q-22 0 -38 16t-16 38v491q0 22 16 37.5t38 15.5h94v381q0 11 -7 18t-18 7h-30q-11 0 -18 -7t-7 -18v-301h-68v334q0 22 16 37.5t38 15.5h108q22 0 37.5 -15.5
t15.5 -37.5v-950q92 2 134.5 139t42.5 436q0 323 -70 480t-215 157q-149 0 -222 -172t-73 -524q0 -361 90 -559.5t256 -198.5v-59zM365 164h55v479h-55q-11 0 -18 -7.5t-7 -17.5v-430q0 -10 7 -17t18 -7z" />
    <glyph glyph-name="A" unicode="A" horiz-adv-x="256" 
d="M20 0v1380q0 22 16 38t38 16h108q22 0 38 -16t16 -38v-1380h-68v440h-80v-440h-68zM88 1348v-846h80v846q0 10 -7 17t-18 7h-30q-11 0 -18 -7t-7 -17z" />
    <glyph glyph-name="B" unicode="B" horiz-adv-x="256" 
d="M236 1380v-612q0 -17 -11 -32t-28 -19q17 -4 28 -19t11 -32v-613q0 -22 -16 -37.5t-38 -15.5h-162v1434h162q22 0 38 -16t16 -38zM168 772v576q0 10 -7 17t-18 7h-55v-624h55q11 0 18 7t7 17zM168 86v576q0 10 -7 17t-18 7h-55v-625h55q11 0 18 7.5t7 17.5z" />
    <glyph glyph-name="C" unicode="C" horiz-adv-x="256" 
d="M113 61h55v547h68v-608h-162q-22 0 -38 15.5t-16 37.5v1327q0 22 16 38t38 16h162v-609h-68v547h-55q-11 0 -18 -7t-7 -17v-1262q0 -10 7 -17.5t18 -7.5z" />
    <glyph glyph-name="D" unicode="D" 
d="M233 1380v-1327q0 -22 -15.5 -37.5t-37.5 -15.5h-160v1434h160q22 0 37.5 -16t15.5 -38zM166 86v1262q0 10 -7 17t-18 7h-53v-1311h53q11 0 18 7.5t7 17.5z" />
    <glyph glyph-name="E" unicode="E" horiz-adv-x="180" 
d="M20 0v1434h150v-62h-82v-624h82v-62h-82v-625h82v-61h-150z" />
    <glyph glyph-name="F" unicode="F" horiz-adv-x="180" 
d="M20 0v1434h150v-62h-82v-624h82v-62h-82v-686h-68z" />
    <glyph glyph-name="G" unicode="G" 
d="M20 53v1327q0 22 16 38t38 16h159v-611h-67v549h-53q-11 0 -18 -7t-7 -17v-1262q0 -10 7 -17.5t18 -7.5h53v623h-43v59h110v-743h-159q-22 0 -38 15.5t-16 37.5z" />
    <glyph glyph-name="H" unicode="H" horiz-adv-x="256" 
d="M20 -2v1436h68v-682h80v682h68v-1436h-68v692h-80v-692h-68z" />
    <glyph glyph-name="I" unicode="I" horiz-adv-x="108" 
d="M20 0v1434h68v-1434h-68z" />
    <glyph glyph-name="J" unicode="J" horiz-adv-x="178" 
d="M104 0h-94v61h56q10 0 17 7t7 18v1286h-80v62h148v-1381q0 -22 -16 -37.5t-38 -15.5z" />
    <glyph glyph-name="K" unicode="K" horiz-adv-x="251" 
d="M240 1434l-82 -717l82 -717h-62l-80 686h-10v-686h-68v1434h68v-686h10l80 686h62z" />
    <glyph glyph-name="L" unicode="L" horiz-adv-x="180" 
d="M20 0v1434h68v-1373h82v-61h-150z" />
    <glyph glyph-name="M" unicode="M" horiz-adv-x="266" 
d="M20 0v1434h56l57 -242l57 242h56v-1434h-68v1163l-45 -207l-45 207v-1163h-68z" />
    <glyph glyph-name="N" unicode="N" horiz-adv-x="258" 
d="M238 1434v-1434h-68v940l-82 272v-1212h-68v1434h64l86 -304v304h68z" />
    <glyph glyph-name="O" unicode="O" 
d="M233 1380v-1327q0 -22 -15.5 -37.5t-37.5 -15.5h-106q-22 0 -38 15.5t-16 37.5v1327q0 22 16 38t38 16h106q22 0 37.5 -16t15.5 -38zM166 86v1262q0 10 -7 17t-18 7h-28q-11 0 -18 -7t-7 -17v-1262q0 -10 7 -17.5t18 -7.5h28q11 0 18 7.5t7 17.5z" />
    <glyph glyph-name="P" unicode="P" 
d="M233 1380v-837q0 -22 -15.5 -38t-37.5 -16h-92v-489h-68v1434h160q22 0 37.5 -16t15.5 -38zM166 575v773q0 10 -7 17t-18 7h-53v-821h53q11 0 18 7t7 17z" />
    <glyph glyph-name="Q" unicode="Q" 
d="M92 0h-18q-22 0 -38 15.5t-16 37.5v1327q0 22 16 38t38 16h106q22 0 37.5 -16t15.5 -38v-1327q0 -22 -15.5 -37.5t-37.5 -15.5h-20l53 -125h-68zM166 86v1262q0 10 -7 17t-18 7h-28q-11 0 -18 -7t-7 -17v-1262q0 -10 7 -17.5t18 -7.5h28q11 0 18 7.5t7 17.5z" />
    <glyph glyph-name="R" unicode="R" horiz-adv-x="256" 
d="M236 0h-68v600q0 10 -7 17.5t-18 7.5h-55v-625h-68v1434h162q22 0 38 -16t16 -38v-673q0 -17 -12 -32.5t-29 -19.5q17 -5 29 -19.5t12 -31.5v-604zM168 711v637q0 10 -7 17t-18 7h-55v-686h55q11 0 18 7t7 18z" />
    <glyph glyph-name="S" unicode="S" horiz-adv-x="256" 
d="M86 686q-28 0 -47 19t-19 47v628q0 22 16 38t38 16h108q22 0 38 -16t16 -38v-596h-68v564q0 10 -7 17t-18 7h-30q-11 0 -18 -7t-7 -17v-576q0 -10 7 -17t18 -7h57q28 0 47 -19t19 -47v-629q0 -22 -16 -37.5t-38 -15.5h-108q-22 0 -38 15.5t-16 37.5v596h68v-563
q0 -10 7 -17.5t18 -7.5h30q11 0 18 7.5t7 17.5v576q0 10 -7 17t-18 7h-57z" />
    <glyph glyph-name="T" unicode="T" horiz-adv-x="251" 
d="M92 0v1372h-82v62h232v-62h-82v-1372h-68z" />
    <glyph glyph-name="U" unicode="U" 
d="M233 1432v-1379q0 -22 -15.5 -37.5t-37.5 -15.5h-106q-22 0 -38 15.5t-16 37.5v1379h68v-1346q0 -10 7 -17.5t18 -7.5h28q11 0 18 7.5t7 17.5v1346h67z" />
    <glyph glyph-name="V" unicode="V" horiz-adv-x="260" 
d="M184 1434h66l-72 -1434h-96l-72 1434h66l53 -1221h4z" />
    <glyph glyph-name="W" unicode="W" horiz-adv-x="266" 
d="M20 1434h68v-1164l45 207l45 -207v1164h68v-1434h-56l-57 242l-57 -242h-56v1434z" />
    <glyph glyph-name="X" unicode="X" horiz-adv-x="276" 
d="M139 561l-53 -561h-68l80 713l-80 721h66l55 -570h4l54 570h65l-78 -721l78 -713h-67l-52 561h-4z" />
    <glyph glyph-name="Y" unicode="Y" horiz-adv-x="280" 
d="M137 629h4l56 805h63l-88 -1028v-408h-68v408l-84 1028h64z" />
    <glyph glyph-name="Z" unicode="Z" horiz-adv-x="208" 
d="M10 0v61l125 1311h-125v62h189v-62l-125 -1311h125v-61h-189z" />
    <glyph glyph-name="bracketleft" unicode="[" horiz-adv-x="159" 
d="M20 -258v1692h130v-62h-62v-1569h62v-61h-130z" />
    <glyph glyph-name="backslash" unicode="\" horiz-adv-x="538" 
d="M518 0h-69l-429 1434h70z" />
    <glyph glyph-name="bracketright" unicode="]" horiz-adv-x="159" 
d="M139 -258h-129v61h62v1569h-62v62h129v-1692z" />
    <glyph glyph-name="asciicircum" unicode="^" horiz-adv-x="634" 
d="M10 889l279 545h59l277 -545h-70l-238 463l-237 -463h-70z" />
    <glyph glyph-name="underscore" unicode="_" horiz-adv-x="339" 
d="M10 -63v63h320v-63h-320z" />
    <glyph glyph-name="grave" unicode="`" horiz-adv-x="245" 
d="M113 1307l114 -150h-57l-150 150h93z" />
    <glyph glyph-name="a" unicode="a" horiz-adv-x="256" 
d="M20 55v492q0 22 16 37.5t38 15.5h94v381q0 11 -7 18t-18 7h-30q-11 0 -18 -7t-7 -18v-301h-68v334q0 22 16 37.5t38 15.5h108q22 0 38 -15.5t16 -37.5v-1012h-162q-22 0 -38 15.5t-16 37.5zM113 61h55v480h-55q-11 0 -18 -7.5t-7 -17.5v-430q0 -10 7 -17.5t18 -7.5z" />
    <glyph glyph-name="b" unicode="b" 
d="M233 1012v-959q0 -22 -15.5 -37.5t-37.5 -15.5h-160v1483h68v-418h92q22 0 37.5 -15.5t15.5 -37.5zM166 86v893q0 11 -7 18t-18 7h-53v-943h53q11 0 18 7.5t7 17.5z" />
    <glyph glyph-name="c" unicode="c" horiz-adv-x="180" 
d="M113 61h57v-61h-96q-22 0 -38 15.5t-16 37.5v959q0 22 16 37.5t38 15.5h96v-61h-57q-11 0 -18 -7t-7 -18v-893q0 -10 7 -17.5t18 -7.5z" />
    <glyph glyph-name="d" unicode="d" 
d="M20 1012q0 22 16 37.5t38 15.5h92v418h67v-1483h-159q-22 0 -38 15.5t-16 37.5v959zM88 86q0 -10 7 -17.5t18 -7.5h53v943h-53q-11 0 -18 -7t-7 -18v-893z" />
    <glyph glyph-name="e" unicode="e" 
d="M236 1012v-490q0 -22 -16 -37.5t-38 -15.5h-94v-383q0 -10 7 -17.5t18 -7.5h30q11 0 18 7.5t7 17.5v303h68v-336q0 -22 -16 -37.5t-38 -15.5h-108q-22 0 -38 15.5t-16 37.5v959q0 22 16 37.5t38 15.5h108q22 0 38 -15.5t16 -37.5zM143 1004h-30q-11 0 -18 -7t-7 -18v-449
h55q11 0 18 7t7 18v424q0 11 -7 18t-18 7z" />
    <glyph glyph-name="f" unicode="f" horiz-adv-x="176" 
d="M20 0v1430q0 22 16 37.5t38 15.5h92v-62h-53q-11 0 -18 -7t-7 -17v-332h78v-59h-78v-1006h-68z" />
    <glyph glyph-name="g" unicode="g" 
d="M20 53v959q0 22 16 37.5t38 15.5h162v-1346q0 -22 -16 -37.5t-38 -15.5h-108q-22 0 -38 15.5t-16 37.5v199h68v-166q0 -10 7 -17t18 -7h30q11 0 18 7t7 17v248h-94q-22 0 -38 15.5t-16 37.5zM168 1004h-55q-11 0 -18 -7t-7 -18v-893q0 -10 7 -17.5t18 -7.5h55v943z" />
    <glyph glyph-name="h" unicode="h" 
d="M20 0v1483h68v-418h92q22 0 37.5 -15.5t15.5 -37.5v-1012h-67v977q0 10 -7 17t-18 7h-53v-1001h-68z" />
    <glyph glyph-name="i" unicode="i" horiz-adv-x="108" 
d="M20 1180v110h68v-110h-68zM20 1065h68v-1065h-68v1065z" />
    <glyph glyph-name="j" unicode="j" horiz-adv-x="108" 
d="M20 1180v110h68v-110h-68zM20 -244v1309h68v-1346q0 -22 -15.5 -37.5t-37.5 -15.5h-82v66h43q10 0 17 7t7 17z" />
    <glyph glyph-name="k" unicode="k" horiz-adv-x="251" 
d="M242 1065l-80 -530l80 -535h-64l-76 504h-14v-504h-68v1483h68v-918h14l76 500h64z" />
    <glyph glyph-name="l" unicode="l" horiz-adv-x="108" 
d="M88 0h-68v1483h68v-1483z" />
    <glyph glyph-name="m" unicode="m" horiz-adv-x="360" 
d="M20 0v1065h109q31 0 51 -23q23 23 51 23h56q22 0 37.5 -15.5t15.5 -37.5v-1012h-68v979q0 25 -28 25q-29 0 -29 -25v-979h-70v979q0 11 -7 18t-17 7h-33v-1004h-68z" />
    <glyph glyph-name="n" unicode="n" 
d="M20 0v1065h160q22 0 37.5 -15.5t15.5 -37.5v-1012h-67v977q0 10 -7 17t-18 7h-53v-1001h-68z" />
    <glyph glyph-name="o" unicode="o" horiz-adv-x="256" 
d="M236 1012v-959q0 -22 -16 -37.5t-38 -15.5h-108q-22 0 -38 15.5t-16 37.5v959q0 22 16 37.5t38 15.5h108q22 0 38 -15.5t16 -37.5zM168 86v893q0 11 -7 18t-18 7h-30q-11 0 -18 -7t-7 -18v-893q0 -10 7 -17.5t18 -7.5h30q11 0 18 7.5t7 17.5z" />
    <glyph glyph-name="p" unicode="p" horiz-adv-x="256" 
d="M88 0v-334h-68v1399h162q22 0 38 -15.5t16 -37.5v-959q0 -22 -16 -37.5t-38 -15.5h-94zM88 61h55q11 0 18 7.5t7 17.5v893q0 11 -7 18t-18 7h-55v-943z" />
    <glyph glyph-name="q" unicode="q" horiz-adv-x="256" 
d="M74 0q-22 0 -38 15.5t-16 37.5v959q0 22 16 37.5t38 15.5h162v-1399h-68v334h-94zM113 61h55v943h-55q-11 0 -18 -7t-7 -18v-893q0 -10 7 -17.5t18 -7.5z" />
    <glyph glyph-name="r" unicode="r" horiz-adv-x="245" 
d="M20 0v1065h68v-29l70 29h24q22 0 38 -15.5t16 -37.5v-533h-68v496q0 10 -7 14.5t-16 -0.5l-57 -26v-963h-68z" />
    <glyph glyph-name="s" unicode="s" 
d="M86 680q-28 0 -47 18.5t-19 46.5v267q0 22 16 37.5t38 15.5h108q22 0 38 -15.5t16 -37.5v-234h-68v201q0 11 -7 18t-18 7h-30q-11 0 -18 -7t-7 -18v-213q0 -10 7 -17.5t18 -7.5h57q28 0 47 -18.5t19 -46.5v-623q0 -22 -16 -37.5t-38 -15.5h-108q-22 0 -38 15.5t-16 37.5
v590h68v-557q0 -10 7 -17.5t18 -7.5h30q11 0 18 7.5t7 17.5v569q0 11 -7 18t-18 7h-57z" />
    <glyph glyph-name="t" unicode="t" horiz-adv-x="176" 
d="M166 61v-61h-92q-22 0 -38 15.5t-16 37.5v1217h68v-205h78v-61h-78v-918q0 -10 7 -17.5t18 -7.5h53z" />
    <glyph glyph-name="u" unicode="u" 
d="M233 1065v-1065h-159q-22 0 -38 15.5t-16 37.5v1012h68v-977q0 -10 7 -17.5t18 -7.5h53v1002h67z" />
    <glyph glyph-name="v" unicode="v" horiz-adv-x="278" 
d="M195 1065h63l-76 -1065h-86l-78 1065h66l53 -799h4z" />
    <glyph glyph-name="w" unicode="w" horiz-adv-x="360" 
d="M20 53v1012h68v-979q0 -10 7 -17.5t18 -7.5h8q10 0 17 7t7 18v979h70v-979q0 -10 7.5 -17.5t17.5 -7.5h8q10 0 17 7t7 18v979h68v-1012q0 -22 -15.5 -37.5t-37.5 -15.5h-56q-30 0 -53 23q-20 -23 -49 -23h-55q-22 0 -38 15.5t-16 37.5z" />
    <glyph glyph-name="x" unicode="x" horiz-adv-x="262" 
d="M131 416l-53 -416h-68l78 530l-78 535h66l55 -424h4l53 424h64l-78 -535l78 -530h-66l-51 416h-4z" />
    <glyph glyph-name="y" unicode="y" 
d="M74 0q-22 0 -38 15.5t-16 37.5v1012h68v-979q0 -10 7 -17.5t18 -7.5h55v1004h68v-1346q0 -22 -16 -37.5t-38 -15.5h-108q-22 0 -38 15.5t-16 37.5v199h68v-166q0 -10 7 -17t18 -7h30q11 0 18 7t7 17v248h-94z" />
    <glyph glyph-name="z" unicode="z" horiz-adv-x="208" 
d="M10 0v61l125 943h-125v61h189v-61l-125 -943h125v-61h-189z" />
    <glyph glyph-name="braceleft" unicode="{" horiz-adv-x="303" 
d="M88 588q47 -9 71.5 -46t24.5 -96v-540q0 -52 22 -76.5t68 -24.5h19v-63h-31q-69 0 -107 41.5t-38 116.5v553q0 108 -107 108v51q107 0 107 111v553q0 75 38 116.5t107 41.5h31v-64h-19q-46 0 -68 -24t-22 -76v-543q0 -118 -96 -139z" />
    <glyph glyph-name="bar" unicode="|" horiz-adv-x="108" 
d="M20 -348v1859h68v-1859h-68z" />
    <glyph glyph-name="braceright" unicode="}" horiz-adv-x="303" 
d="M215 588q-96 21 -96 139v543q0 52 -21 76t-67 24h-19v64h29q69 0 107 -41.5t38 -116.5v-553q0 -111 107 -111v-51q-107 0 -107 -108v-553q0 -75 -38 -116.5t-107 -41.5h-29v63h19q46 0 67 24t21 77v540q0 59 24.5 96t71.5 46z" />
    <glyph glyph-name="asciitilde" unicode="~" horiz-adv-x="557" 
d="M20 696q48 70 132 70q56 0 133 -45q74 -43 118 -43q78 0 134 86v-84q-50 -70 -134 -70q-55 0 -141 52q-62 36 -108 36q-79 0 -134 -86v84z" />
    <glyph glyph-name="exclamdown" unicode="&#xa1;" horiz-adv-x="108" 
d="M88 1065v-107h-68v107h68zM88 737v-1106h-68v1106h68z" />
    <glyph glyph-name="cent" unicode="&#xa2;" horiz-adv-x="227" 
d="M96 0v184h-22q-22 0 -38 16t-16 38v958q0 22 16 37.5t38 15.5h22v185h64v-185h49v-61h-94q-11 0 -19 -7.5t-8 -17.5v-893q0 -10 8 -17t19 -7h94v-62h-49v-184h-64z" />
    <glyph glyph-name="sterling" unicode="&#xa3;" horiz-adv-x="526" 
d="M133 1126q0 -39 3.5 -78t13.5 -91.5t15 -77t22 -95.5t20 -86h174v-65h-160q35 -161 35 -273q0 -189 -150 -294h334v84h68v-150h-488v66h7q161 71 161 278q0 116 -36 289h-132v65h115q-23 97 -34.5 148t-23 129t-11.5 139q0 160 62 240t161 80q94 0 156.5 -64.5
t62.5 -165.5h-70q0 77 -40 128.5t-107 51.5q-71 0 -114.5 -63.5t-43.5 -194.5z" />
    <glyph glyph-name="currency" unicode="&#xa4;" horiz-adv-x="671" 
d="M336 403q-111 0 -197 70l-78 -78l-38 39l77 78q-73 85 -73 201q0 111 71 194l-78 78l39 39l78 -78q87 72 199 72q115 0 199 -72l77 78l39 -39l-78 -78q72 -84 72 -194q0 -115 -74 -201l78 -78l-39 -39l-78 78q-86 -70 -196 -70zM336 455q109 0 183.5 73.5t74.5 182.5
t-74.5 182.5t-183.5 73.5t-183.5 -73.5t-74.5 -182.5t74.5 -182.5t183.5 -73.5z" />
    <glyph glyph-name="yen" unicode="&#xa5;" horiz-adv-x="286" 
d="M141 629h4l56 805h63l-82 -965h82v-66h-88v-51h88v-65h-88v-289h-67v289h-86v65h86v51h-86v66h79l-79 965h65z" />
    <glyph glyph-name="brokenbar" unicode="&#xa6;" horiz-adv-x="108" 
d="M88 678h-68v833h68v-833zM20 432h68v-780h-68v780z" />
    <glyph glyph-name="section" unicode="&#xa7;" horiz-adv-x="256" 
d="M20 508h68v-422q0 -10 7 -17.5t18 -7.5h30q11 0 18 7.5t7 17.5v434q0 10 -7 17.5t-18 7.5h-57q-28 0 -47 18.5t-19 46.5v772q0 22 16 38t38 16h108q22 0 38 -16t16 -38v-454h-68v422q0 10 -7 17t-18 7h-30q-11 0 -18 -7t-7 -17v-435q0 -10 7 -17t18 -7h57q28 0 47 -19
t19 -47v-772q0 -22 -16 -37.5t-38 -15.5h-108q-22 0 -38 15.5t-16 37.5v455zM168 606v199q0 10 -7 17t-18 7h-55v-198q0 -11 7 -18t18 -7h55z" />
    <glyph glyph-name="dieresis" unicode="&#xa8;" horiz-adv-x="239" 
d="M20 1184v106h70v-106h-70zM150 1184v106h69v-106h-69z" />
    <glyph glyph-name="copyright" unicode="&#xa9;" horiz-adv-x="747" 
d="M20 342v750q0 146 102.5 248t248.5 102t251 -102.5t105 -247.5v-750q0 -148 -103.5 -249t-252.5 -101q-146 0 -248.5 102t-102.5 248zM371 41q127 0 216 85.5t89 213.5v754q0 127 -89 213t-216 86q-125 0 -212 -87.5t-87 -211.5v-754q0 -124 87 -211.5t212 -87.5z
M356 170h56v438h67v-499h-162q-22 0 -37.5 14.5t-15.5 34.5v1118q0 20 15.5 34.5t37.5 14.5h162v-500h-67v439h-56q-10 0 -17 -7t-7 -16v-1048q0 -9 7 -16t17 -7z" />
    <glyph glyph-name="ordfeminine" unicode="&#xaa;" horiz-adv-x="225" 
d="M20 940v244q0 22 16 37.5t38 15.5h80v164q0 10 -7 17t-18 7h-33q-10 0 -17 -6.5t-7 -17.5v-82h-52v102q0 22 16 38t38 16h78q22 0 37.5 -16t15.5 -38v-534h-131q-22 0 -38 15.5t-16 37.5zM96 936h58v252h-58q-10 0 -17 -7t-7 -18v-202q0 -11 7 -18t17 -7z" />
    <glyph glyph-name="guillemotleft" unicode="&#xab;" horiz-adv-x="434" 
d="M199 174l-189 375l189 375h73l-188 -375l188 -375h-73zM352 174l-188 375l188 375h72l-188 -375l188 -375h-72z" />
    <glyph glyph-name="logicalnot" unicode="&#xac;" horiz-adv-x="847" 
d="M20 522v68h807v-234h-67v166h-740z" />
    <glyph glyph-name="registered" unicode="&#xae;" horiz-adv-x="747" 
d="M20 342v750q0 147 102 248.5t249 101.5q148 0 252 -102.5t104 -247.5v-750q0 -148 -103.5 -249t-252.5 -101q-146 0 -248.5 102t-102.5 248zM371 41q129 0 217 86.5t88 212.5v754q0 126 -88.5 212.5t-216.5 86.5q-125 0 -212 -87.5t-87 -211.5v-754q0 -124 87 -211.5
t212 -87.5zM481 109h-67v495q0 9 -7 15t-18 6h-55v-516h-68v1218h162q22 0 37.5 -15.5t15.5 -37.5v-574q0 -32 -41 -45q41 -13 41 -43v-503zM414 707v534q0 11 -7 18t-18 7h-55v-580h55q11 0 18 6t7 15z" />
    <glyph glyph-name="macron" unicode="&#xaf;" horiz-adv-x="276" 
d="M20 1198v68h236v-68h-236z" />
    <glyph glyph-name="degree" unicode="&#xb0;" horiz-adv-x="565" 
d="M281 930q-107 0 -184 77t-77 185q0 107 77 184.5t184 77.5q109 0 186.5 -77.5t77.5 -184.5q0 -109 -77.5 -185.5t-186.5 -76.5zM283 997q82 0 138 56.5t56 138.5t-56 138t-138 56t-138.5 -56t-56.5 -138t56.5 -138.5t138.5 -56.5z" />
    <glyph glyph-name="plusminus" unicode="&#xb1;" horiz-adv-x="387" 
d="M20 518v68h140v139h67v-139h140v-68h-140v-139h-67v139h-140zM20 123v67h347v-67h-347z" />
    <glyph glyph-name="twosuperior" unicode="&#xb2;" horiz-adv-x="223" 
d="M20 936q0 114 76 233q56 85 56 162v21q0 17 -12 29t-27 12q-17 0 -29 -12t-12 -29v-49h-52v49q0 37 27.5 63.5t65.5 26.5q37 0 63.5 -26.5t26.5 -63.5v-21q0 -82 -58 -168q-73 -116 -73 -227h131v-49h-183v49z" />
    <glyph glyph-name="threesuperior" unicode="&#xb3;" horiz-adv-x="223" 
d="M203 1143v-172q0 -35 -26.5 -61.5t-63.5 -26.5q-36 0 -64.5 27t-28.5 63v69h56v-69q0 -17 12 -29t27 -12q14 0 25.5 11t11.5 28v174q0 19 -13 32t-30 13h-89v49l132 145h-132v50h183v-50l-127 -145h33q38 0 66 -28t28 -68z" />
    <glyph glyph-name="acute" unicode="&#xb4;" horiz-adv-x="245" 
d="M133 1307h94l-149 -150h-58z" />
    <glyph glyph-name="paragraph" unicode="&#xb6;" horiz-adv-x="544" 
d="M326 903q-130 0 -223 92.5t-93 223.5q0 130 95 222.5t229 92.5h190v-1882h-67v1829h-80v-1829h-51v1251z" />
    <glyph glyph-name="periodcentered" unicode="&#xb7;" horiz-adv-x="112" 
d="M20 666v108h72v-108h-72z" />
    <glyph glyph-name="cedilla" unicode="&#xb8;" horiz-adv-x="192" 
d="M72 10h34l-12 -39q80 -9 80 -67q0 -45 -40.5 -79.5t-113.5 -51.5v24q43 11 69 38.5t26 64.5q0 53 -68 53z" />
    <glyph glyph-name="onesuperior" unicode="&#xb9;" horiz-adv-x="206" 
d="M10 1393h45q11 0 18 7t7 17v58h51v-539h66v-49h-183v49h66v407h-70v50z" />
    <glyph glyph-name="ordmasculine" unicode="&#xba;" horiz-adv-x="223" 
d="M203 1421v-481q0 -22 -15.5 -37.5t-37.5 -15.5h-76q-22 0 -38 15.5t-16 37.5v481q0 22 16 38t38 16h76q22 0 37.5 -16t15.5 -38zM152 961v440q0 10 -7 17t-18 7h-31q-10 0 -17 -6.5t-7 -17.5v-440q0 -11 7 -18t17 -7h31q11 0 18 7t7 18z" />
    <glyph glyph-name="guillemotright" unicode="&#xbb;" horiz-adv-x="434" 
d="M236 174h-72l188 375l-188 375h72l188 -375zM84 174h-74l189 375l-189 375h74l188 -375z" />
    <glyph glyph-name="onequarter" unicode="&#xbc;" horiz-adv-x="618" 
d="M80 0l428 1434h70l-428 -1434h-70zM10 1352h45q11 0 18 7t7 17v58h67v-762h66v-62h-199v62h66v620h-70v60zM469 823h66l-84 -624h79v348h68v-547h-68v137h-155z" />
    <glyph glyph-name="onehalf" unicode="&#xbd;" horiz-adv-x="661" 
d="M82 0l428 1434h70l-428 -1434h-70zM12 1352h45q11 0 18 7t7 17v58h68v-762h65v-62h-199v62h66v618h-70v62zM428 0v61q0 88 17.5 150.5t54.5 126.5q37 59 55 128t18 179v86q0 17 -11.5 28t-26.5 11q-16 0 -27.5 -11t-11.5 -28v-182h-68v178q0 43 31.5 73.5t77.5 30.5
q43 0 73.5 -30.5t30.5 -73.5v-82q0 -181 -80 -315q-37 -67 -51 -127.5t-14 -141.5h145v-61h-213z" />
    <glyph glyph-name="threequarters" unicode="&#xbe;" horiz-adv-x="620" 
d="M80 0l428 1434h70l-428 -1434h-70zM20 707v217h68v-222q0 -17 11.5 -27.5t27.5 -10.5t27.5 10t11.5 26v336q0 19 -13 32t-32 13h-101v62l144 229h-144v62h216v-62l-144 -229h45q40 0 68 -28t28 -68v-340q0 -43 -31.5 -74t-76.5 -31q-43 0 -74 31t-31 74zM469 823h66
l-84 -624h79v348h68v-547h-68v137h-155z" />
    <glyph glyph-name="questiondown" unicode="&#xbf;" horiz-adv-x="251" 
d="M100 958v107h68v-107h-68zM18 51q0 194 43 350q39 137 39 289v47h68v-47q0 -172 -43 -311q-39 -134 -39 -328v-327q0 -15 12 -27t27 -12t27 12t12 27v421h67v-415q0 -44 -31 -75.5t-75 -31.5t-75.5 31.5t-31.5 75.5v321z" />
    <glyph glyph-name="Agrave" unicode="&#xc0;" horiz-adv-x="256" 
d="M117 1675l112 -149h-57l-149 149h94zM20 0v1380q0 22 16 38t38 16h108q22 0 38 -16t16 -38v-1380h-68v440h-80v-440h-68zM88 1348v-848h80v848q0 10 -7 17t-18 7h-30q-11 0 -18 -7t-7 -17z" />
    <glyph glyph-name="Aacute" unicode="&#xc1;" horiz-adv-x="256" 
d="M133 1675h92l-149 -149h-56zM20 0v1380q0 22 16 38t38 16h108q22 0 38 -16t16 -38v-1380h-68v440h-80v-440h-68zM88 1348v-848h80v848q0 10 -7 17t-18 7h-30q-11 0 -18 -7t-7 -17z" />
    <glyph glyph-name="Acircumflex" unicode="&#xc2;" horiz-adv-x="256" 
d="M166 1526l-35 110l-35 -110h-82l92 149h50l92 -149h-82zM20 0v1380q0 22 16 38t38 16h108q22 0 38 -16t16 -38v-1380h-68v440h-80v-440h-68zM88 1348v-848h80v848q0 10 -7 17t-18 7h-30q-11 0 -18 -7t-7 -17z" />
    <glyph glyph-name="Atilde" unicode="&#xc3;" horiz-adv-x="256" 
d="M244 1673q0 -74 -16.5 -108.5t-53.5 -34.5q-39 0 -63 49q-9 22 -17 30.5t-20 8.5q-34 0 -37 -80h-25q0 74 16.5 108.5t53.5 34.5q44 0 63 -49q13 -39 37 -39q19 0 27 19t10 61h25zM20 2v1380q0 22 16 38t38 16h108q22 0 38 -16t16 -38v-1380h-68v440h-80v-440h-68z
M88 1350v-848h80v848q0 10 -7 17t-18 7h-30q-11 0 -18 -7t-7 -17z" />
    <glyph glyph-name="Adieresis" unicode="&#xc4;" horiz-adv-x="256" 
d="M29 1552v107h69v-107h-69zM158 1552v107h69v-107h-69zM20 0v1380q0 22 16 38t38 16h108q23 0 38.5 -16t15.5 -38v-1380h-68v440h-80v-440h-68zM88 1348v-846h80v846q0 10 -7 17t-18 7h-28q-11 0 -19 -7t-8 -17z" />
    <glyph glyph-name="Aring" unicode="&#xc5;" horiz-adv-x="256" 
d="M14 1593q0 46 33 79.5t82 33.5q46 0 78.5 -33.5t32.5 -79.5q0 -47 -32.5 -79.5t-78.5 -32.5q-49 0 -82 32.5t-33 79.5zM70 1593q0 -25 16.5 -41t42.5 -16q23 0 39 16t16 41q0 24 -16 41t-39 17q-26 0 -42.5 -17t-16.5 -41zM20 2v1380q0 22 16 38t38 16h108q22 0 38 -16
t16 -38v-1380h-68v440h-80v-440h-68zM88 1350v-848h80v848q0 10 -7 17t-18 7h-30q-11 0 -18 -7t-7 -17z" />
    <glyph glyph-name="AE" unicode="&#xc6;" horiz-adv-x="327" 
d="M168 0v686h-80v-686h-68v1380q0 22 16 38t38 16h243v-62h-81v-624h81v-62h-81v-625h81v-61h-149zM139 1370l-28 -61q-19 0 -15 -21v-481q24 4 70 4l-2 541q-3 18 -25 18z" />
    <glyph glyph-name="Ccedilla" unicode="&#xc7;" horiz-adv-x="256" 
d="M113 61h55v547h68v-608h-91l-8 -29q80 -9 80 -67q0 -45 -40.5 -79.5t-113.5 -51.5v24q42 11 68.5 39t26.5 64q0 53 -68 53l21 47h-37q-22 0 -38 15.5t-16 37.5v1327q0 22 16 38t38 16h162v-609h-68v547h-55q-11 0 -18 -7t-7 -17v-1262q0 -10 7 -17.5t18 -7.5z" />
    <glyph glyph-name="Egrave" unicode="&#xc8;" horiz-adv-x="180" 
d="M86 1675l113 -149h-56l-149 149h92zM20 0v1434h150v-62h-82v-624h82v-62h-82v-627h82v-59h-150z" />
    <glyph glyph-name="Eacute" unicode="&#xc9;" horiz-adv-x="180" 
d="M98 1675h92l-149 -149h-57zM20 0v1434h150v-62h-82v-624h82v-62h-82v-627h82v-59h-150z" />
    <glyph glyph-name="Ecircumflex" unicode="&#xca;" horiz-adv-x="180" 
d="M131 1526l-33 110l-35 -110h-81l92 149h47l92 -149h-82zM20 0v1434h150v-62h-82v-624h82v-62h-82v-627h82v-59h-150z" />
    <glyph glyph-name="Edieresis" unicode="&#xcb;" horiz-adv-x="180" 
d="M-4 1552v107h70v-107h-70zM125 1552v107h70v-107h-70zM20 0v1434h150v-62h-82v-624h82v-62h-82v-625h82v-61h-150z" />
    <glyph glyph-name="Igrave" unicode="&#xcc;" horiz-adv-x="108" 
d="M43 1675l113 -149h-56l-149 149h92zM20 0v1434h68v-1434h-68z" />
    <glyph glyph-name="Iacute" unicode="&#xcd;" horiz-adv-x="108" 
d="M59 1675h95l-150 -149h-57zM20 0v1434h68v-1434h-68z" />
    <glyph glyph-name="Icircumflex" unicode="&#xce;" horiz-adv-x="108" 
d="M92 1526l-33 110l-34 -110h-82l92 149h47l92 -149h-82zM20 0v1434h68v-1434h-68z" />
    <glyph glyph-name="Idieresis" unicode="&#xcf;" horiz-adv-x="108" 
d="M-45 1552v107h70v-107h-70zM84 1552v107h70v-107h-70zM20 0v1434h68v-1434h-68z" />
    <glyph glyph-name="Eth" unicode="&#xd0;" horiz-adv-x="256" 
d="M236 1380v-1329q0 -22 -16 -37.5t-38 -15.5h-159v684h-31v68h31v684h159q22 0 38 -16t16 -38zM168 84v1264q0 10 -7 17t-18 7h-53v-622h47v-68h-47v-623h53q11 0 18 7.5t7 17.5z" />
    <glyph glyph-name="Ntilde" unicode="&#xd1;" horiz-adv-x="258" 
d="M244 1673q0 -74 -16 -108.5t-52 -34.5q-42 0 -63 49q-16 39 -39 39q-18 0 -25.5 -19t-9.5 -61h-27q0 143 70 143q47 0 63 -49q16 -39 39 -39q34 0 37 80h23zM238 1436v-1434h-68v938l-82 272v-1210h-68v1434h64l86 -306v306h68z" />
    <glyph glyph-name="Ograve" unicode="&#xd2;" 
d="M115 1675l114 -149h-57l-149 149h92zM233 1380v-1327q0 -22 -15.5 -37.5t-37.5 -15.5h-106q-22 0 -38 15.5t-16 37.5v1327q0 22 16 38t38 16h106q22 0 37.5 -16t15.5 -38zM166 84v1264q0 10 -7 17t-18 7h-28q-11 0 -18 -7t-7 -17v-1264q0 -10 7 -17.5t18 -7.5h28
q11 0 18 7.5t7 17.5z" />
    <glyph glyph-name="Oacute" unicode="&#xd3;" 
d="M133 1675h92l-149 -149h-58zM233 1380v-1327q0 -22 -15.5 -37.5t-37.5 -15.5h-106q-22 0 -38 15.5t-16 37.5v1327q0 22 16 38t38 16h106q22 0 37.5 -16t15.5 -38zM166 84v1264q0 10 -7 17t-18 7h-28q-11 0 -18 -7t-7 -17v-1264q0 -10 7 -17.5t18 -7.5h28q11 0 18 7.5
t7 17.5z" />
    <glyph glyph-name="Ocircumflex" unicode="&#xd4;" 
d="M164 1526l-33 110l-35 -110h-82l92 149h48l92 -149h-82zM233 1380v-1327q0 -22 -15.5 -37.5t-37.5 -15.5h-106q-22 0 -38 15.5t-16 37.5v1327q0 22 16 38t38 16h106q22 0 37.5 -16t15.5 -38zM166 84v1264q0 10 -7 17t-18 7h-28q-11 0 -18 -7t-7 -17v-1264q0 -10 7 -17.5
t18 -7.5h28q11 0 18 7.5t7 17.5z" />
    <glyph glyph-name="Otilde" unicode="&#xd5;" 
d="M244 1673q0 -143 -70 -143q-42 0 -63 49q-9 22 -17 30.5t-20 8.5q-19 0 -27 -19t-10 -61h-25q0 74 16.5 108.5t53.5 34.5q45 0 61 -49q16 -39 39 -39q18 0 25.5 19t9.5 61h27zM233 1382v-1327q0 -22 -15.5 -37.5t-37.5 -15.5h-106q-22 0 -38 15.5t-16 37.5v1327
q0 22 16 38t38 16h106q22 0 37.5 -16t15.5 -38zM166 86v1264q0 10 -7 17t-18 7h-28q-11 0 -18 -7t-7 -17v-1264q0 -10 7 -17.5t18 -7.5h28q11 0 18 7.5t7 17.5z" />
    <glyph glyph-name="Odieresis" unicode="&#xd6;" 
d="M29 1552v107h69v-107h-69zM156 1552v107h69v-107h-69zM233 1380v-1327q0 -22 -15.5 -37.5t-37.5 -15.5h-106q-22 0 -38 15.5t-16 37.5v1327q0 22 16 38t38 16h106q22 0 37.5 -16t15.5 -38zM166 86v1262q0 10 -7 17t-18 7h-26q-11 0 -19 -7t-8 -17v-1262q0 -10 8 -17.5
t19 -7.5h26q11 0 18 7.5t7 17.5z" />
    <glyph glyph-name="multiply" unicode="&#xd7;" horiz-adv-x="436" 
d="M66 362l-48 48l152 151l-137 137l45 47l139 -137l139 140l47 -48l-141 -139l154 -153l-47 -48l-152 154z" />
    <glyph glyph-name="Oslash" unicode="&#xd8;" 
d="M29 27q-9 18 -9 26v1327q0 22 16 38t38 16h92l2 20h63l-4 -47q9 -18 9 -27v-1327q0 -22 -16 -37.5t-38 -15.5h-94l-2 -20h-61zM88 580l70 772q0 20 -17 20h-28q-11 0 -18 -7t-7 -17v-768zM96 80q0 -9 5.5 -14t11.5 -5h28q11 0 18 7.5t7 17.5v768z" />
    <glyph glyph-name="Ugrave" unicode="&#xd9;" 
d="M225 1526h-57l-150 149h95zM233 1432v-1379q0 -22 -15.5 -37.5t-37.5 -15.5h-106q-22 0 -38 15.5t-16 37.5v1379h68v-1348q0 -10 7 -17.5t18 -7.5h28q11 0 18 7.5t7 17.5v1348h67z" />
    <glyph glyph-name="Uacute" unicode="&#xda;" 
d="M221 1675l-149 -149h-56l113 149h92zM233 1432v-1379q0 -22 -15.5 -37.5t-37.5 -15.5h-106q-22 0 -38 15.5t-16 37.5v1379h68v-1348q0 -10 7 -17.5t18 -7.5h28q11 0 18 7.5t7 17.5v1348h67z" />
    <glyph glyph-name="Ucircumflex" unicode="&#xdb;" 
d="M127 1636l-33 -110h-82l92 149h48l92 -149h-82zM233 1432v-1379q0 -22 -15.5 -37.5t-37.5 -15.5h-106q-22 0 -38 15.5t-16 37.5v1379h68v-1348q0 -10 7 -17.5t18 -7.5h28q11 0 18 7.5t7 17.5v1348h67z" />
    <glyph glyph-name="Udieresis" unicode="&#xdc;" 
d="M25 1659h69v-107h-69v107zM154 1659h69v-107h-69v107zM233 1432v-1379q0 -22 -15 -37.5t-38 -15.5h-106q-22 0 -38 15.5t-16 37.5v1379h68v-1346q0 -10 8 -17.5t17 -7.5h28q11 0 18 7.5t7 17.5v1346h67z" />
    <glyph glyph-name="Yacute" unicode="&#xdd;" horiz-adv-x="280" 
d="M145 1675h95l-150 -149h-57zM137 627h4l56 807h63l-88 -1031v-405h-68v405l-84 1031h64z" />
    <glyph glyph-name="Thorn" unicode="&#xde;" 
d="M233 1137v-838q0 -22 -15.5 -37.5t-37.5 -15.5h-92v-246h-68v1434h68v-244h92q22 0 37.5 -15.5t15.5 -37.5zM166 332v772q0 10 -7 17t-18 7h-53v-821h53q11 0 18 7.5t7 17.5z" />
    <glyph glyph-name="germandbls" unicode="&#xdf;" horiz-adv-x="374" 
d="M20 0v1296q0 61 42 103.5t102 42.5q64 0 105.5 -42t41.5 -104v-120q0 -44 -24 -82l-78 -101q-16 -21 0 -37l115 -174q28 -45 28 -98v-631q0 -22 -15.5 -37.5t-37.5 -15.5h-109q-22 0 -37.5 15.5t-15.5 37.5v367h68v-334q0 -11 7 -18t17 -7h31q10 0 17.5 7.5t7.5 17.5v590
q0 51 -29 98l-109 162q-22 36 3 76l77 108q17 20 17 54v131q0 32 -22.5 53.5t-53.5 21.5q-34 0 -57 -21.5t-23 -53.5v-1305h-68z" />
    <glyph glyph-name="agrave" unicode="&#xe0;" horiz-adv-x="256" 
d="M115 1307l114 -150h-57l-149 150h92zM20 55v492q0 22 16 37.5t38 15.5h94v381q0 11 -7 18t-18 7h-30q-11 0 -18 -7t-7 -18v-301h-68v334q0 22 16 37.5t38 15.5h108q22 0 38 -15.5t16 -37.5v-1012h-162q-22 0 -38 15.5t-16 37.5zM113 61h55v480h-55q-11 0 -18 -7.5
t-7 -17.5v-430q0 -10 7 -17.5t18 -7.5z" />
    <glyph glyph-name="aacute" unicode="&#xe1;" horiz-adv-x="256" 
d="M133 1307h92l-149 -150h-56zM20 55v492q0 22 16 37.5t38 15.5h94v381q0 11 -7 18t-18 7h-30q-11 0 -18 -7t-7 -18v-301h-68v334q0 22 16 37.5t38 15.5h108q22 0 38 -15.5t16 -37.5v-1012h-162q-22 0 -38 15.5t-16 37.5zM113 61h55v480h-55q-11 0 -18 -7.5t-7 -17.5v-430
q0 -10 7 -17.5t18 -7.5z" />
    <glyph glyph-name="acircumflex" unicode="&#xe2;" horiz-adv-x="256" 
d="M164 1157l-33 111l-35 -111h-82l92 150h48l92 -150h-82zM20 55v492q0 22 16 37.5t38 15.5h94v381q0 11 -7 18t-18 7h-30q-11 0 -18 -7t-7 -18v-301h-68v334q0 22 16 37.5t38 15.5h108q22 0 38 -15.5t16 -37.5v-1012h-162q-22 0 -38 15.5t-16 37.5zM113 61h55v480h-55
q-11 0 -18 -7.5t-7 -17.5v-430q0 -10 7 -17.5t18 -7.5z" />
    <glyph glyph-name="atilde" unicode="&#xe3;" horiz-adv-x="256" 
d="M244 1305q0 -144 -70 -144q-39 0 -63 49q-9 22 -17 30.5t-20 8.5q-34 0 -37 -80h-25q0 144 70 144q44 0 63 -49q13 -39 37 -39q34 0 37 80h25zM20 55v492q0 22 16 37.5t38 15.5h94v381q0 11 -7 18t-18 7h-30q-11 0 -18 -7t-7 -18v-301h-68v334q0 22 16 37.5t38 15.5h108
q22 0 38 -15.5t16 -37.5v-1012h-162q-22 0 -38 15.5t-16 37.5zM113 61h55v480h-55q-11 0 -18 -7.5t-7 -17.5v-430q0 -10 7 -17.5t18 -7.5z" />
    <glyph glyph-name="adieresis" unicode="&#xe4;" horiz-adv-x="256" 
d="M29 1184v106h69v-106h-69zM158 1184v106h69v-106h-69zM20 55v492q0 22 16 37.5t38 15.5h94v381q0 11 -7 18t-18 7h-28q-11 0 -19 -7.5t-8 -17.5v-301h-68v334q0 22 16 37.5t38 15.5h108q23 0 38.5 -15.5t15.5 -37.5v-1012h-162q-22 0 -38 15.5t-16 37.5zM115 61h53v480
h-53q-11 0 -19 -7.5t-8 -17.5v-430q0 -10 8 -17.5t19 -7.5z" />
    <glyph glyph-name="aring" unicode="&#xe5;" horiz-adv-x="256" 
d="M14 1225q0 46 33 79t80 33t80 -33t33 -79q0 -47 -33 -80t-80 -33t-80 33t-33 80zM70 1225q0 -25 16 -41.5t41 -16.5t41 16.5t16 41.5q0 24 -16.5 40.5t-40.5 16.5t-40.5 -16.5t-16.5 -40.5zM20 55v492q0 22 16 37.5t38 15.5h94v381q0 11 -7 18t-18 7h-30q-11 0 -18 -7
t-7 -18v-301h-68v334q0 22 16 37.5t38 15.5h108q22 0 38 -15.5t16 -37.5v-1012h-162q-22 0 -38 15.5t-16 37.5zM113 61h55v480h-55q-11 0 -18 -7.5t-7 -17.5v-430q0 -10 7 -17.5t18 -7.5z" />
    <glyph glyph-name="ae" unicode="&#xe6;" horiz-adv-x="401" 
d="M20 53v459q0 22 16 37.5t38 15.5h94v414q0 11 -7 18t-18 7h-30q-11 0 -18 -7t-7 -18v-299h-68v332q0 23 16 38t38 15h256q22 0 37.5 -15t15.5 -38v-455q0 -22 -15.5 -37.5t-37.5 -15.5h-94v-418q0 -11 7 -18t17 -7h31q10 0 17 7t7 18v303h68v-336q0 -22 -15.5 -37.5
t-37.5 -15.5h-256q-22 0 -38 15.5t-16 37.5zM291 1004h-31q-10 0 -17 -7t-7 -18v-414h55q10 0 17 7t7 18v389q0 11 -7 18t-17 7zM113 61h55v443h-55q-11 0 -18 -7t-7 -18v-393q0 -10 7 -17.5t18 -7.5z" />
    <glyph glyph-name="ccedilla" unicode="&#xe7;" horiz-adv-x="180" 
d="M113 61h57v-61h-51l-8 -29q79 -9 79 -67q0 -45 -40 -79.5t-113 -51.5v24q43 11 68.5 38.5t25.5 64.5q0 53 -65 53l18 47h-10q-22 0 -38 15.5t-16 37.5v959q0 22 16 37.5t38 15.5h96v-61h-57q-11 0 -18 -7t-7 -18v-893q0 -10 7 -17.5t18 -7.5z" />
    <glyph glyph-name="egrave" unicode="&#xe8;" 
d="M115 1307l112 -150h-57l-150 150h95zM236 1012v-490q0 -22 -16 -37.5t-38 -15.5h-94v-383q0 -10 7 -17.5t18 -7.5h30q11 0 18 7.5t7 17.5v303h68v-336q0 -22 -16 -37.5t-38 -15.5h-108q-22 0 -38 15.5t-16 37.5v959q0 22 16 37.5t38 15.5h108q22 0 38 -15.5t16 -37.5z
M143 1004h-30q-11 0 -18 -7t-7 -18v-449h55q11 0 18 7t7 18v424q0 11 -7 18t-18 7z" />
    <glyph glyph-name="eacute" unicode="&#xe9;" 
d="M131 1307h92l-149 -150h-56zM236 1012v-490q0 -22 -16 -37.5t-38 -15.5h-94v-383q0 -10 7 -17.5t18 -7.5h30q11 0 18 7.5t7 17.5v303h68v-336q0 -22 -16 -37.5t-38 -15.5h-108q-22 0 -38 15.5t-16 37.5v959q0 22 16 37.5t38 15.5h108q22 0 38 -15.5t16 -37.5zM143 1004
h-30q-11 0 -18 -7t-7 -18v-449h55q11 0 18 7t7 18v424q0 11 -7 18t-18 7z" />
    <glyph glyph-name="ecircumflex" unicode="&#xea;" 
d="M164 1157l-35 111l-35 -111h-82l92 150h50l92 -150h-82zM236 1012v-490q0 -22 -16 -37.5t-38 -15.5h-94v-383q0 -10 7 -17.5t18 -7.5h30q11 0 18 7.5t7 17.5v303h68v-336q0 -22 -16 -37.5t-38 -15.5h-108q-22 0 -38 15.5t-16 37.5v959q0 22 16 37.5t38 15.5h108
q22 0 38 -15.5t16 -37.5zM143 1004h-30q-11 0 -18 -7t-7 -18v-449h55q11 0 18 7t7 18v424q0 11 -7 18t-18 7z" />
    <glyph glyph-name="edieresis" unicode="&#xeb;" 
d="M27 1184v106h69v-106h-69zM156 1184v106h69v-106h-69zM236 1012v-490q0 -22 -15.5 -37.5t-38.5 -15.5h-94v-383q0 -10 8 -17.5t19 -7.5h28q11 0 18 7.5t7 17.5v303h68v-336q0 -22 -15.5 -37.5t-38.5 -15.5h-108q-22 0 -38 15.5t-16 37.5v959q0 22 16 37.5t38 15.5h108
q23 0 38.5 -15.5t15.5 -37.5zM143 1004h-28q-11 0 -19 -7.5t-8 -17.5v-449h55q11 0 18 7t7 18v424q0 11 -7 18t-18 7z" />
    <glyph glyph-name="igrave" unicode="&#xec;" horiz-adv-x="108" 
d="M43 1307l113 -150h-56l-149 150h92zM20 1065h68v-1065h-68v1065z" />
    <glyph glyph-name="iacute" unicode="&#xed;" horiz-adv-x="108" 
d="M59 1307h95l-150 -150h-57zM20 1065h68v-1065h-68v1065z" />
    <glyph glyph-name="icircumflex" unicode="&#xee;" horiz-adv-x="108" 
d="M92 1157l-33 111l-34 -111h-82l92 150h47l92 -150h-82zM20 1065h68v-1065h-68v1065z" />
    <glyph glyph-name="idieresis" unicode="&#xef;" horiz-adv-x="108" 
d="M-45 1184v106h70v-106h-70zM84 1184v106h70v-106h-70zM20 1065h68v-1065h-68v1065z" />
    <glyph glyph-name="eth" unicode="&#xf0;" 
d="M88 1047h-65l67 180l-63 207h67l33 -113l41 113h65l-75 -207l75 -250v-879q0 -44 -30 -75t-74 -31q-46 0 -77.5 30.5t-31.5 73.5v768q0 47 33 80t80 33h33l-47 158zM166 915h-33q-19 0 -32 -13t-13 -32v-780q0 -15 12 -26t27 -11t27 12t12 27v823z" />
    <glyph glyph-name="ntilde" unicode="&#xf1;" 
d="M244 1305q0 -144 -70 -144q-42 0 -63 49q-9 22 -17 30.5t-20 8.5q-34 0 -37 -80h-25q0 144 70 144q44 0 63 -49q13 -39 37 -39q34 0 37 80h25zM20 2v1065h160q22 0 37.5 -15.5t15.5 -37.5v-1012h-67v977q0 11 -7 18t-18 7h-53v-1002h-68z" />
    <glyph glyph-name="ograve" unicode="&#xf2;" horiz-adv-x="256" 
d="M115 1307l114 -150h-57l-149 150h92zM236 1012v-959q0 -22 -16 -37.5t-38 -15.5h-108q-22 0 -38 15.5t-16 37.5v959q0 22 16 37.5t38 15.5h108q22 0 38 -15.5t16 -37.5zM168 84v895q0 11 -7 18t-18 7h-30q-11 0 -18 -7t-7 -18v-895q0 -10 7 -17.5t18 -7.5h30q11 0 18 7.5
t7 17.5z" />
    <glyph glyph-name="oacute" unicode="&#xf3;" horiz-adv-x="256" 
d="M133 1307h92l-149 -150h-56zM236 1012v-959q0 -22 -16 -37.5t-38 -15.5h-108q-22 0 -38 15.5t-16 37.5v959q0 22 16 37.5t38 15.5h108q22 0 38 -15.5t16 -37.5zM168 84v895q0 11 -7 18t-18 7h-30q-11 0 -18 -7t-7 -18v-895q0 -10 7 -17.5t18 -7.5h30q11 0 18 7.5t7 17.5z
" />
    <glyph glyph-name="ocircumflex" unicode="&#xf4;" horiz-adv-x="256" 
d="M164 1157l-33 111l-35 -111h-82l92 150h48l92 -150h-82zM236 1012v-959q0 -22 -16 -37.5t-38 -15.5h-108q-22 0 -38 15.5t-16 37.5v959q0 22 16 37.5t38 15.5h108q22 0 38 -15.5t16 -37.5zM168 84v895q0 11 -7 18t-18 7h-30q-11 0 -18 -7t-7 -18v-895q0 -10 7 -17.5
t18 -7.5h30q11 0 18 7.5t7 17.5z" />
    <glyph glyph-name="otilde" unicode="&#xf5;" horiz-adv-x="256" 
d="M244 1305q0 -144 -70 -144q-39 0 -63 49q-9 22 -17 30.5t-20 8.5q-34 0 -37 -80h-25q0 144 70 144q44 0 63 -49q13 -39 37 -39q34 0 37 80h25zM236 1014v-959q0 -22 -16 -37.5t-38 -15.5h-108q-22 0 -38 15.5t-16 37.5v959q0 22 16 37.5t38 15.5h108q22 0 38 -15.5
t16 -37.5zM168 86v895q0 11 -7 18t-18 7h-30q-11 0 -18 -7t-7 -18v-895q0 -10 7 -17.5t18 -7.5h30q11 0 18 7.5t7 17.5z" />
    <glyph glyph-name="odieresis" unicode="&#xf6;" horiz-adv-x="256" 
d="M29 1184v106h69v-106h-69zM158 1184v106h69v-106h-69zM236 1012v-959q0 -22 -15.5 -37.5t-38.5 -15.5h-108q-22 0 -38 15.5t-16 37.5v959q0 22 16 37.5t38 15.5h108q23 0 38.5 -15.5t15.5 -37.5zM168 86v893q0 11 -7 18t-18 7h-28q-11 0 -19 -7.5t-8 -17.5v-893
q0 -10 8 -17.5t19 -7.5h28q11 0 18 7.5t7 17.5z" />
    <glyph glyph-name="divide" unicode="&#xf7;" horiz-adv-x="352" 
d="M137 637v90h78v-90h-78zM2 518v68h348v-68h-348zM137 379v90h78v-90h-78z" />
    <glyph glyph-name="oslash" unicode="&#xf8;" 
d="M233 1012v-959q0 -22 -15.5 -37.5t-37.5 -15.5h-106q-9 0 -21 4l-4 -24h-24l6 43q-11 15 -11 30v959q0 22 16 37.5t38 15.5h106q9 0 21 -4l4 24h24l-6 -43q10 -13 10 -30zM86 334l80 553v92q0 11 -7 18t-18 7h-30q-11 0 -18 -7t-7 -18v-645zM166 86v633l-80 -553v-80
q0 -10 7 -17.5t18 -7.5h30q11 0 18 7.5t7 17.5z" />
    <glyph glyph-name="ugrave" unicode="&#xf9;" 
d="M115 1307l114 -150h-57l-149 150h92zM233 1065v-1065h-159q-22 0 -38 15.5t-16 37.5v1012h68v-977q0 -10 7 -17.5t18 -7.5h53v1002h67z" />
    <glyph glyph-name="uacute" unicode="&#xfa;" 
d="M133 1307h92l-149 -150h-58zM233 1065v-1065h-159q-22 0 -38 15.5t-16 37.5v1012h68v-977q0 -10 7 -17.5t18 -7.5h53v1002h67z" />
    <glyph glyph-name="ucircumflex" unicode="&#xfb;" 
d="M164 1157l-33 111l-35 -111h-82l92 150h48l92 -150h-82zM233 1065v-1065h-159q-22 0 -38 15.5t-16 37.5v1012h68v-977q0 -10 7 -17.5t18 -7.5h53v1002h67z" />
    <glyph glyph-name="udieresis" unicode="&#xfc;" 
d="M29 1184v106h69v-106h-69zM158 1184v106h69v-106h-69zM233 1065v-1065h-159q-22 0 -38 15.5t-16 37.5v1012h68v-977q0 -10 8 -17.5t19 -7.5h51v1002h67z" />
    <glyph glyph-name="yacute" unicode="&#xfd;" 
d="M20 1157l113 150h92l-149 -150h-56zM20 53v1012h68v-979q0 -10 7 -17.5t18 -7.5h55v1004h68v-1346q0 -22 -16 -37.5t-38 -15.5h-108q-22 0 -38 15.5t-16 37.5v199h68v-166q0 -10 7 -17t18 -7h30q11 0 18 7t7 17v248h-94q-22 0 -38 15.5t-16 37.5z" />
    <glyph glyph-name="thorn" unicode="&#xfe;" 
d="M88 0v-334h-68v1811h68v-412h92q22 0 37.5 -15.5t15.5 -37.5v-959q0 -22 -15.5 -37.5t-37.5 -15.5h-92zM88 61h53q11 0 18 7.5t7 17.5v893q0 11 -7 18t-18 7h-53v-943z" />
    <glyph glyph-name="ydieresis" unicode="&#xff;" 
d="M29 1184v106h69v-106h-69zM158 1184v106h69v-106h-69zM20 53v1012h68v-979q0 -10 8 -17.5t19 -7.5h53v1004h68v-1346q0 -22 -15.5 -37.5t-38.5 -15.5h-108q-22 0 -38 15.5t-16 37.5v199h68v-166q0 -10 8 -17t19 -7h28q11 0 18 7t7 17v248h-94q-22 0 -38 15.5t-16 37.5z
" />
    <glyph glyph-name="Dcroat" unicode="&#x110;" horiz-adv-x="256" 
d="M236 1380v-1329q0 -22 -16 -37.5t-38 -15.5h-159v684h-31v68h31v684h159q22 0 38 -16t16 -38zM168 84v1264q0 10 -7 17t-18 7h-53v-622h47v-68h-47v-623h53q11 0 18 7.5t7 17.5z" />
    <glyph glyph-name="dcroat" unicode="&#x111;" 
d="M20 1012q0 22 16 37.5t38 15.5h92v133h-76v68h76v217h67v-217h27v-68h-27v-1198h-159q-22 0 -38 15.5t-16 37.5v959zM88 86q0 -10 7 -17.5t18 -7.5h53v943h-53q-11 0 -18 -7t-7 -18v-893z" />
    <glyph glyph-name="dotlessi" unicode="&#x131;" horiz-adv-x="108" 
d="M20 1065h68v-1065h-68v1065z" />
    <glyph glyph-name="Lslash" unicode="&#x141;" horiz-adv-x="190" 
d="M20 0v616l-28 -28v84l28 28v734h70v-672l31 31v-84l-31 -31v-617h80v-61h-150z" />
    <glyph glyph-name="lslash" unicode="&#x142;" horiz-adv-x="149" 
d="M41 0v618l-31 -30v84l31 30v781h68v-721l30 31v-84l-30 -31v-678h-68z" />
    <glyph glyph-name="OE" unicode="&#x152;" horiz-adv-x="325" 
d="M74 0q-22 0 -38 15.5t-16 37.5v1327q0 22 16 38t38 16h241v-62h-82v-624h82v-62h-82v-625h82v-61h-241zM166 86v1262q0 10 -7 17t-18 7h-28q-11 0 -18 -7t-7 -17v-1262q0 -10 7 -17.5t18 -7.5h28q11 0 18 7.5t7 17.5z" />
    <glyph glyph-name="oe" unicode="&#x153;" horiz-adv-x="399" 
d="M74 0q-22 0 -38 15.5t-16 37.5v959q0 22 16 37.5t38 15.5h254q22 0 37.5 -15.5t15.5 -37.5v-490q0 -22 -15.5 -37.5t-37.5 -15.5h-95v-383q0 -10 7.5 -17.5t17.5 -7.5h31q10 0 17 7t7 18v303h68v-336q0 -22 -15.5 -37.5t-37.5 -15.5h-254zM111 61h30q11 0 18 7.5t7 17.5
v893q0 11 -7 18t-18 7h-30q-11 0 -18 -7t-7 -18v-893q0 -10 7 -17.5t18 -7.5zM233 530h56q10 0 17 7t7 18v424q0 11 -7 18t-17 7h-31q-10 0 -17.5 -7t-7.5 -18v-449z" />
    <glyph glyph-name="Scaron" unicode="&#x160;" horiz-adv-x="256" 
d="M244 1675l-92 -149h-48l-92 149h82l35 -110l33 110h82zM86 686q-28 0 -47 19t-19 47v628q0 22 16 38t38 16h108q22 0 38 -16t16 -38v-596h-68v564q0 10 -7 17t-18 7h-30q-11 0 -18 -7t-7 -17v-576q0 -10 7 -17t18 -7h57q28 0 47 -19t19 -47v-629q0 -22 -16 -37.5
t-38 -15.5h-108q-22 0 -38 15.5t-16 37.5v596h68v-563q0 -10 7 -17.5t18 -7.5h30q11 0 18 7.5t7 17.5v576q0 10 -7 17t-18 7h-57z" />
    <glyph glyph-name="scaron" unicode="&#x161;" 
d="M242 1307l-92 -150h-48l-92 150h82l35 -111l33 111h82zM86 680q-28 0 -47 18.5t-19 46.5v267q0 22 16 37.5t38 15.5h108q22 0 38 -15.5t16 -37.5v-234h-68v201q0 11 -7 18t-18 7h-30q-11 0 -18 -7t-7 -18v-213q0 -10 7 -17.5t18 -7.5h57q28 0 47 -18.5t19 -46.5v-623
q0 -22 -16 -37.5t-38 -15.5h-108q-22 0 -38 15.5t-16 37.5v590h68v-557q0 -10 7 -17.5t18 -7.5h30q11 0 18 7.5t7 17.5v569q0 11 -7 18t-18 7h-57z" />
    <glyph glyph-name="Ydieresis" unicode="&#x178;" horiz-adv-x="280" 
d="M41 1552v107h70v-107h-70zM170 1552v107h70v-107h-70zM137 629h4l56 805h65l-90 -1028v-408h-68v408l-86 1028h66z" />
    <glyph glyph-name="Zcaron" unicode="&#x17d;" horiz-adv-x="208" 
d="M137 1675h82l-92 -149h-47l-92 149h82l34 -110zM10 0v61l125 1311h-125v62h189v-62l-125 -1311h125v-61h-189z" />
    <glyph glyph-name="zcaron" unicode="&#x17e;" horiz-adv-x="210" 
d="M139 1307h82l-92 -150h-47l-92 150h82l34 -111zM12 0v61l125 943h-125v61h189v-61l-125 -943h125v-61h-189z" />
    <glyph glyph-name="florin" unicode="&#x192;" horiz-adv-x="264" 
d="M106 127v879h-81v59h81v365q0 22 16 37.5t38 15.5h94v-62h-55q-11 0 -18 -7t-7 -17v-332h80v-59h-80v-885q0 -295 -264 -469v72q196 136 196 403z" />
    <glyph glyph-name="circumflex" unicode="&#x2c6;" horiz-adv-x="272" 
d="M170 1157l-33 111l-35 -111h-82l93 150h47l92 -150h-82z" />
    <glyph glyph-name="caron" unicode="&#x2c7;" horiz-adv-x="284" 
d="M178 1307h82l-92 -150h-47l-92 150h82l34 -111z" />
    <glyph glyph-name="breve" unicode="&#x2d8;" horiz-adv-x="286" 
d="M141 1159q-57 0 -89 40t-32 112h37q0 -41 22.5 -63.5t61.5 -22.5q40 0 64 22.5t24 63.5h37q0 -71 -33.5 -111.5t-91.5 -40.5z" />
    <glyph glyph-name="dotaccent" unicode="&#x2d9;" horiz-adv-x="112" 
d="M20 1184v106h72v-106h-72z" />
    <glyph glyph-name="ring" unicode="&#x2da;" horiz-adv-x="286" 
d="M31 1225q0 46 32.5 79t79.5 33t80 -33t33 -79q0 -47 -33 -80t-80 -33t-79.5 33t-32.5 80zM86 1225q0 -25 16 -41.5t41 -16.5t41.5 16.5t16.5 41.5q0 23 -16.5 40t-41.5 17q-24 0 -40.5 -16.5t-16.5 -40.5z" />
    <glyph glyph-name="ogonek" unicode="&#x2db;" horiz-adv-x="182" 
d="M137 6h43v-2q-52 -30 -72 -55.5t-20 -59.5q0 -73 76 -112h-70q-35 12 -54.5 38.5t-19.5 61.5q0 38 27 68t90 61z" />
    <glyph glyph-name="tilde" unicode="&#x2dc;" horiz-adv-x="272" 
d="M252 1305q0 -144 -70 -144q-39 0 -63 49q-9 22 -17 30.5t-20 8.5q-34 0 -37 -80h-25q0 144 70 144q45 0 64 -49q13 -39 36 -39q34 0 37 80h25z" />
    <glyph glyph-name="hungarumlaut" unicode="&#x2dd;" horiz-adv-x="362" 
d="M135 1307h90l-149 -150h-56zM252 1307h90l-149 -150h-54z" />
    <glyph glyph-name="uni03BC" unicode="&#x3bc;" horiz-adv-x="512" 
d="M20 -410v1500h68v-531q0 -231 30 -369.5t81 -138.5q76 0 139 288t86 732v19h68v-1090h-68v494q-39 -241 -97.5 -380t-125.5 -139q-63 0 -113 144v-529h-68z" />
    <glyph glyph-name="endash" unicode="&#x2013;" horiz-adv-x="833" 
d="M10 522v68h813v-68h-813z" />
    <glyph glyph-name="emdash" unicode="&#x2014;" horiz-adv-x="1454" 
d="M10 522v68h1434v-68h-1434z" />
    <glyph glyph-name="quoteleft" unicode="&#x2018;" horiz-adv-x="155" 
d="M18 1200l50 234h67l-43 -234h-74z" />
    <glyph glyph-name="quoteright" unicode="&#x2019;" horiz-adv-x="155" 
d="M18 1200l45 234h72l-49 -234h-68z" />
    <glyph glyph-name="quotesinglbase" unicode="&#x201a;" horiz-adv-x="155" 
d="M18 -127l45 233h72l-49 -233h-68z" />
    <glyph glyph-name="quotedblleft" unicode="&#x201c;" horiz-adv-x="303" 
d="M168 1200l49 234h68l-45 -234h-72zM18 1200l50 234h67l-43 -234h-74z" />
    <glyph glyph-name="quotedblright" unicode="&#x201d;" horiz-adv-x="303" 
d="M168 1200l43 234h74l-49 -234h-68zM18 1200l45 234h72l-49 -234h-68z" />
    <glyph glyph-name="quotedblbase" unicode="&#x201e;" horiz-adv-x="305" 
d="M18 -127l45 233h72l-49 -233h-68zM170 -127l43 233h72l-49 -233h-66z" />
    <glyph glyph-name="dagger" unicode="&#x2020;" horiz-adv-x="362" 
d="M147 0v1081h-143v62h143v368h68v-368h143v-62h-143v-1081h-68z" />
    <glyph glyph-name="daggerdbl" unicode="&#x2021;" horiz-adv-x="374" 
d="M10 1081v62h144v368h67v-368h144v-62h-144v-647h144v-61h-144v-373h-67v373h-144v61h144v647h-144z" />
    <glyph glyph-name="bullet" unicode="&#x2022;" horiz-adv-x="288" 
d="M20 745q0 48 37 84.5t88 36.5q49 0 86 -36.5t37 -84.5q0 -51 -36.5 -87.5t-86.5 -36.5q-51 0 -88 36.5t-37 87.5z" />
    <glyph glyph-name="ellipsis" unicode="&#x2026;" horiz-adv-x="337" 
d="M20 0v106h72v-106h-72zM133 0v106h72v-106h-72zM246 0v106h71v-106h-71z" />
    <glyph glyph-name="perthousand" unicode="&#x2030;" horiz-adv-x="894" 
d="M233 1337v-630q0 -43 -31.5 -74t-76.5 -31q-43 0 -74 31t-31 74v630q0 43 32 74t77 31q43 0 73.5 -31t30.5 -74zM68 0l428 1434h69l-428 -1434h-69zM166 702v639q0 17 -11.5 28t-27.5 11t-27.5 -11t-11.5 -28v-639q0 -17 11.5 -27.5t27.5 -10.5t27.5 10.5t11.5 27.5z
M610 725v-627q0 -44 -31 -75t-77 -31q-43 0 -74 31t-31 75v627q0 44 31.5 75t77.5 31q43 0 73.5 -31t30.5 -75zM874 725v-627q0 -44 -31 -75t-77 -31q-43 0 -73.5 31t-30.5 75v627q0 44 31 75t77 31q43 0 73.5 -31t30.5 -75zM543 92v639q0 15 -12 27t-27 12t-27 -12t-12 -27
v-639q0 -15 12 -27t27 -12t27 12t12 27zM807 92v639q0 15 -12 27t-27 12t-27 -12t-12 -27v-639q0 -15 12 -27t27 -12t27 12t12 27z" />
    <glyph glyph-name="guilsinglleft" unicode="&#x2039;" horiz-adv-x="282" 
d="M199 174l-189 375l189 375h73l-188 -375l188 -375h-73z" />
    <glyph glyph-name="guilsinglright" unicode="&#x203a;" horiz-adv-x="282" 
d="M84 174h-74l189 375l-189 375h74l188 -375z" />
    <glyph glyph-name="fraction" unicode="&#x2044;" horiz-adv-x="538" 
d="M20 0l429 1434h69l-428 -1434h-70z" />
    <glyph glyph-name="Euro" unicode="&#x20ac;" horiz-adv-x="286" 
d="M154 61h53v201h67v-262h-159q-22 0 -38 15.5t-16 37.5v580h-49l21 63h28v45h-49l21 64h28v575q0 22 16 38t38 16h159v-263h-67v201h-53q-11 0 -18 -7t-7 -17v-543h121l-21 -64h-100v-45h84l-20 -63h-64v-547q0 -10 7.5 -17.5t17.5 -7.5z" />
    <glyph glyph-name="trademark" unicode="&#x2122;" horiz-adv-x="518" 
d="M92 850v522h-82v62h232v-62h-82v-522h-68zM272 850v584h56l57 -242l57 242h56v-584h-68v313l-45 -207l-45 207v-313h-68z" />
    <glyph glyph-name="minus" unicode="&#x2212;" horiz-adv-x="387" 
d="M20 518v68h347v-68h-347z" />
    <glyph glyph-name="uniE01A" unicode="&#xe01a;" horiz-adv-x="493" 
d="M20 0v1380q0 22 16 38t38 16h346q22 0 37.5 -16t15.5 -38v-1380h-67v440h-318v-440h-68zM88 1348v-846h318v846q0 10 -7 17t-18 7h-268q-11 0 -18 -7t-7 -17z" />
    <glyph glyph-name="uniE01C" unicode="&#xe01c;" horiz-adv-x="493" 
d="M473 1380v-612q0 -17 -11 -32t-28 -19q17 -4 28 -19t11 -32v-613q0 -22 -15 -37.5t-38 -15.5h-400v1434h400q23 0 38 -16t15 -38zM406 772v576q0 10 -7 17t-18 7h-293v-624h293q11 0 18 7t7 17zM406 86v576q0 10 -7 17t-18 7h-293v-625h293q11 0 18 7.5t7 17.5z" />
    <glyph glyph-name="uniE01D" unicode="&#xe01d;" horiz-adv-x="493" 
d="M113 61h293v547h67v-608h-399q-22 0 -38 15.5t-16 37.5v1327q0 22 16 38t38 16h399v-609h-67v547h-293q-11 0 -18 -7t-7 -17v-1262q0 -10 7 -17.5t18 -7.5z" />
    <glyph glyph-name="uniE01E" unicode="&#xe01e;" horiz-adv-x="493" 
d="M473 1380v-1327q0 -22 -15 -37.5t-38 -15.5h-400v1434h400q23 0 38 -16t15 -38zM406 86v1262q0 10 -7 17t-18 7h-293v-1311h293q11 0 18 7.5t7 17.5z" />
    <glyph glyph-name="uniE01F" unicode="&#xe01f;" horiz-adv-x="452" 
d="M20 0v1434h422v-62h-354v-624h354v-62h-354v-625h354v-61h-422z" />
    <glyph glyph-name="uniE025" unicode="&#xe025;" horiz-adv-x="446" 
d="M20 0v1434h416v-62h-348v-624h348v-62h-348v-686h-68z" />
    <glyph glyph-name="uniE026" unicode="&#xe026;" horiz-adv-x="493" 
d="M20 53v1327q0 22 16 38t38 16h399v-611h-67v549h-293q-11 0 -18 -7t-7 -17v-1262q0 -10 7 -17.5t18 -7.5h293v623h-46v59h113v-743h-399q-22 0 -38 15.5t-16 37.5z" />
    <glyph glyph-name="uniE027" unicode="&#xe027;" horiz-adv-x="493" 
d="M20 -2v1436h68v-682h318v682h67v-1436h-67v692h-318v-692h-68z" />
    <glyph glyph-name="uniE029" unicode="&#xe029;" horiz-adv-x="440" 
d="M367 0h-357v61h318q10 0 17 7t7 18v1286h-342v62h410v-1381q0 -22 -15.5 -37.5t-37.5 -15.5z" />
    <glyph glyph-name="uniE02A" unicode="&#xe02a;" horiz-adv-x="497" 
d="M487 1434l-331 -717l331 -717h-71l-318 686h-10v-686h-68v1434h68v-686h10l318 686h71z" />
    <glyph glyph-name="uniE02B" unicode="&#xe02b;" horiz-adv-x="417" 
d="M20 0v1434h68v-1373h320v-61h-388z" />
    <glyph glyph-name="uniE02C" unicode="&#xe02c;" horiz-adv-x="501" 
d="M20 0v1434h56l174 -347l176 347h55v-1434h-67v1276l-164 -320l-162 320v-1276h-68z" />
    <glyph glyph-name="uniE02D" unicode="&#xe02d;" horiz-adv-x="493" 
d="M473 1434v-1434h-67v940l-318 387v-1327h-68v1434h64l322 -394v394h67z" />
    <glyph glyph-name="uniE02E" unicode="&#xe02e;" horiz-adv-x="491" 
d="M471 1380v-1327q0 -22 -15.5 -37.5t-37.5 -15.5h-344q-22 0 -38 15.5t-16 37.5v1327q0 22 16 38t38 16h344q22 0 37.5 -16t15.5 -38zM403 86v1262q0 10 -6.5 17t-17.5 7h-266q-11 0 -18 -7t-7 -17v-1262q0 -10 7 -17.5t18 -7.5h266q10 0 17 7t7 18z" />
    <glyph glyph-name="uniE02F" unicode="&#xe02f;" horiz-adv-x="491" 
d="M471 1380v-837q0 -22 -15.5 -38t-37.5 -16h-330v-489h-68v1434h398q22 0 37.5 -16t15.5 -38zM403 575v773q0 10 -6.5 17t-17.5 7h-291v-821h291q11 0 17.5 6.5t6.5 17.5z" />
    <glyph glyph-name="uniE034" unicode="&#xe034;" horiz-adv-x="491" 
d="M213 0h-139q-22 0 -38 15.5t-16 37.5v1327q0 22 16 38t38 16h344q22 0 37.5 -16t15.5 -38v-1327q0 -22 -15.5 -37.5t-37.5 -15.5h-137l53 -125h-68zM403 86v1262q0 10 -6.5 17t-17.5 7h-266q-11 0 -18 -7t-7 -17v-1262q0 -10 7 -17.5t18 -7.5h266q10 0 17 7t7 18z" />
    <glyph glyph-name="uniE035" unicode="&#xe035;" horiz-adv-x="477" 
d="M457 0h-70v600q0 10 -7.5 17.5t-17.5 7.5h-274v-625h-68v1434h383q22 0 38 -16t16 -38v-673q0 -17 -12 -32.5t-29 -19.5q17 -5 29 -19.5t12 -31.5v-604zM387 711v637q0 10 -7 17t-18 7h-274v-686h274q10 0 17.5 7t7.5 18z" />
    <glyph glyph-name="uniE036" unicode="&#xe036;" horiz-adv-x="493" 
d="M86 686q-28 0 -47 19t-19 47v628q0 22 16 38t38 16h346q22 0 37.5 -16t15.5 -38v-596h-67v564q0 10 -7 17t-18 7h-268q-11 0 -18 -7t-7 -17v-576q0 -10 7 -17t18 -7h295q28 0 46.5 -19t18.5 -47v-629q0 -22 -15.5 -37.5t-37.5 -15.5h-346q-22 0 -38 15.5t-16 37.5v596h68
v-563q0 -10 7 -17.5t18 -7.5h268q11 0 18 7.5t7 17.5v576q0 10 -7 17t-18 7h-295z" />
    <glyph glyph-name="uniE037" unicode="&#xe037;" horiz-adv-x="503" 
d="M217 0v1372h-207v62h484v-62h-209v-1372h-68z" />
    <glyph glyph-name="uniE038" unicode="&#xe038;" horiz-adv-x="491" 
d="M473 1434v-1381q0 -22 -15.5 -37.5t-37.5 -15.5h-346q-22 0 -38 15.5t-16 37.5v1381h68v-1348q0 -10 7 -17.5t18 -7.5h268q11 0 18 7.5t7 17.5v1348h67z" />
    <glyph glyph-name="uniE039" unicode="&#xe039;" horiz-adv-x="505" 
d="M430 1434h66l-195 -1434h-96l-195 1434h66l174 -1291h4z" />
    <glyph glyph-name="uniE03B" unicode="&#xe03b;" horiz-adv-x="501" 
d="M20 1434h68v-1274l162 317l164 -317v1274h67v-1434h-55l-176 346l-174 -346h-56v1434z" />
    <glyph glyph-name="uniE03C" unicode="&#xe03c;" horiz-adv-x="505" 
d="M252 614l-174 -614h-68l201 713l-201 721h68l174 -625h4l174 625h66l-199 -721l199 -713h-66l-174 614h-4z" />
    <glyph glyph-name="uniE03D" unicode="&#xe03d;" horiz-adv-x="524" 
d="M260 580h4l176 854h66l-211 -1028v-408h-68v408l-209 1028h66z" />
    <glyph glyph-name="uniE03E" unicode="&#xe03e;" horiz-adv-x="464" 
d="M10 0v61l377 1311h-377v62h445v-62l-377 -1311h377v-61h-445z" />
    <glyph glyph-name="uniE03F" unicode="&#xe03f;" horiz-adv-x="958" 
d="M20 0v1380q0 22 16 38t38 16h811q22 0 37.5 -16t15.5 -38v-1380h-70v440h-780v-440h-68zM88 1348v-846h780v846q0 10 -7 17t-17 7h-731q-11 0 -18 -7t-7 -17z" />
    <glyph glyph-name="uniE047" unicode="&#xe047;" horiz-adv-x="921" 
d="M901 1380v-612q0 -17 -11 -32t-28 -19q17 -4 28 -19t11 -32v-613q0 -22 -15.5 -37.5t-37.5 -15.5h-828v1434h828q22 0 37.5 -16t15.5 -38zM834 772v576q0 10 -7 17t-18 7h-721v-624h721q11 0 18 7t7 17zM834 86v576q0 10 -7 17t-18 7h-721v-625h721q11 0 18 7.5t7 17.5z
" />
    <glyph glyph-name="uniE048" unicode="&#xe048;" horiz-adv-x="921" 
d="M113 61h721v547h67v-608h-827q-22 0 -38 15.5t-16 37.5v1327q0 22 16 38t38 16h827v-609h-67v547h-721q-11 0 -18 -7t-7 -17v-1262q0 -10 7 -17.5t18 -7.5z" />
    <glyph glyph-name="uniE049" unicode="&#xe049;" horiz-adv-x="921" 
d="M901 1380v-1327q0 -22 -15.5 -37.5t-37.5 -15.5h-828v1434h828q22 0 37.5 -16t15.5 -38zM834 86v1262q0 10 -7 17t-18 7h-721v-1311h721q11 0 18 7.5t7 17.5z" />
    <glyph glyph-name="uniE04A" unicode="&#xe04a;" horiz-adv-x="880" 
d="M20 0v1434h850v-62h-782v-624h782v-62h-782v-625h782v-61h-850z" />
    <glyph glyph-name="uniE04B" unicode="&#xe04b;" horiz-adv-x="880" 
d="M20 0v1434h850v-62h-782v-624h782v-62h-782v-686h-68z" />
    <glyph glyph-name="uniE04C" unicode="&#xe04c;" horiz-adv-x="921" 
d="M20 53v1327q0 22 16 38t38 16h827v-611h-67v549h-721q-11 0 -18 -7t-7 -17v-1262q0 -10 7 -17.5t18 -7.5h721v623h-46v59h113v-743h-827q-22 0 -38 15.5t-16 37.5z" />
    <glyph glyph-name="uniE04D" unicode="&#xe04d;" horiz-adv-x="921" 
d="M20 -2v1436h68v-682h746v682h67v-1436h-67v692h-746v-692h-68z" />
    <glyph glyph-name="uniE04F" unicode="&#xe04f;" horiz-adv-x="921" 
d="M848 0h-838v61h799q11 0 18 7.5t7 17.5v1286h-824v62h891v-1381q0 -22 -15.5 -37.5t-37.5 -15.5z" />
    <glyph glyph-name="uniE050" unicode="&#xe050;" horiz-adv-x="921" 
d="M911 1434l-751 -717l751 -717h-90l-723 686h-10v-686h-68v1434h68v-686h10l723 686h90z" />
    <glyph glyph-name="uniE051" unicode="&#xe051;" horiz-adv-x="880" 
d="M20 0v1434h68v-1373h782v-61h-850z" />
    <glyph glyph-name="uniE05A" unicode="&#xe05a;" horiz-adv-x="940" 
d="M20 0v1434h56l395 -385l393 385h56v-1434h-68v1329l-381 -373l-383 373v-1329h-68z" />
    <glyph glyph-name="uniE05B" unicode="&#xe05b;" horiz-adv-x="921" 
d="M901 1434v-1434h-67v940l-746 416v-1356h-68v1434h64l750 -420v420h67z" />
    <glyph glyph-name="uniE05C" unicode="&#xe05c;" horiz-adv-x="921" 
d="M901 1380v-1327q0 -22 -15.5 -37.5t-37.5 -15.5h-774q-22 0 -38 15.5t-16 37.5v1327q0 22 16 38t38 16h774q22 0 37.5 -16t15.5 -38zM834 86v1262q0 10 -7 17t-18 7h-696q-11 0 -18 -7t-7 -17v-1262q0 -10 7 -17.5t18 -7.5h696q11 0 18 7.5t7 17.5z" />
    <glyph glyph-name="uniE05D" unicode="&#xe05d;" horiz-adv-x="921" 
d="M901 1380v-837q0 -22 -15.5 -38t-37.5 -16h-760v-489h-68v1434h828q22 0 37.5 -16t15.5 -38zM834 575v773q0 10 -7 17t-18 7h-721v-821h721q11 0 18 7t7 17z" />
    <glyph glyph-name="uniE05E" unicode="&#xe05e;" horiz-adv-x="921" 
d="M438 0h-364q-22 0 -38 15.5t-16 37.5v1327q0 22 16 38t38 16h774q22 0 37.5 -16t15.5 -38v-1327q0 -22 -15.5 -37.5t-37.5 -15.5h-342l53 -125h-67zM834 86v1262q0 10 -7 17t-18 7h-696q-11 0 -18 -7t-7 -17v-1262q0 -10 7 -17.5t18 -7.5h696q11 0 18 7.5t7 17.5z" />
    <glyph glyph-name="uniE05F" unicode="&#xe05f;" horiz-adv-x="921" 
d="M901 0h-67v600q0 10 -7 17.5t-18 7.5h-721v-625h-68v1434h828q22 0 37.5 -16t15.5 -38v-673q0 -17 -12 -32.5t-29 -19.5q17 -5 29 -19.5t12 -31.5v-604zM834 711v637q0 10 -7 17t-18 7h-721v-686h721q11 0 18 7t7 18z" />
    <glyph glyph-name="uniE06A" unicode="&#xe06a;" horiz-adv-x="921" 
d="M86 686q-28 0 -47 19t-19 47v628q0 22 16 38t38 16h774q22 0 37.5 -16t15.5 -38v-596h-67v564q0 10 -7 17t-18 7h-696q-11 0 -18 -7t-7 -17v-576q0 -10 7 -17t18 -7h723q28 0 46.5 -19t18.5 -47v-629q0 -22 -15.5 -37.5t-37.5 -15.5h-774q-22 0 -38 15.5t-16 37.5v596h68
v-563q0 -10 7 -17.5t18 -7.5h696q11 0 18 7.5t7 17.5v576q0 10 -7 17t-18 7h-723z" />
    <glyph glyph-name="uniE06B" unicode="&#xe06b;" horiz-adv-x="921" 
d="M426 0v1372h-416v62h901v-62h-417v-1372h-68z" />
    <glyph glyph-name="uniE06C" unicode="&#xe06c;" horiz-adv-x="921" 
d="M901 1432v-1379q0 -22 -15.5 -37.5t-37.5 -15.5h-774q-22 0 -38 15.5t-16 37.5v1379h68v-1346q0 -10 7 -17.5t18 -7.5h696q11 0 18 7.5t7 17.5v1346h67z" />
    <glyph glyph-name="uniE06D" unicode="&#xe06d;" horiz-adv-x="921" 
d="M844 1434h67l-403 -1434h-94l-404 1434h68l381 -1352h4z" />
    <glyph glyph-name="uniE06E" unicode="&#xe06e;" horiz-adv-x="921" 
d="M20 1434h68v-1330l383 373l381 -373v1330h68v-1434h-56l-393 385l-395 -385h-56v1434z" />
    <glyph glyph-name="uniE06F" unicode="&#xe06f;" horiz-adv-x="921" 
d="M461 653l-377 -653h-74l410 713l-410 721h74l377 -662h4l373 662h73l-405 -721l405 -713h-73l-373 653h-4z" />
    <glyph glyph-name="uniE073" unicode="&#xe073;" horiz-adv-x="921" 
d="M459 504h4l379 930h69l-417 -1028v-408h-68v408l-416 1028h70z" />
    <glyph glyph-name="uniE074" unicode="&#xe074;" horiz-adv-x="886" 
d="M10 0v61l789 1311h-789v62h867v-62l-791 -1311h791v-61h-867z" />
    </font>
</defs>
</svg>
