<?xml version="1.0" standalone="no"?>
<!DOCTYPE svg PUBLIC "-//W3C//DTD SVG 1.1//EN" "http://www.w3.org/Graphics/SVG/1.1/DTD/svg11.dtd" >
<svg xmlns="http://www.w3.org/2000/svg" xmlns:xlink="http://www.w3.org/1999/xlink" version="1.1">
<metadata>
Created by FontForge 20170731 at Thu Oct 27 23:45:13 2022
 By Aleksey,,,
Copyright (c) 2022 Sign Studio. All Right Reserved.
</metadata>
<defs>
<font id="Psilograph-Regular" horiz-adv-x="154" >
  <font-face 
    font-family="Psilograph"
    font-weight="400"
    font-stretch="normal"
    units-per-em="1000"
    panose-1="0 0 0 0 0 0 0 0 0 0"
    ascent="780"
    descent="-220"
    x-height="520"
    cap-height="700"
    bbox="-41 -200 705 841"
    underline-thickness="31"
    underline-position="-107"
    unicode-range="U+000D-FB02"
  />
<missing-glyph horiz-adv-x="621" 
d="M97 700h426v-700h-426v700zM480 664h-339l168 -284zM494 629l-167 -279l167 -280v559zM293 350l-166 278v-557zM480 37l-169 283l-170 -283h339z" />
    <glyph glyph-name="fi" unicode="fi" horiz-adv-x="169" 
d="M10 698q0 11 7.5 18.5t18.5 7.5h59v-41h-24q-12 0 -12 -12v-151h36v-40h-36v-480h-49v698zM159 639v-64h-49v64h49zM159 0h-49v520h49v-520z" />
    <glyph glyph-name="fl" unicode="fl" horiz-adv-x="169" 
d="M10 698q0 11 7.5 18.5t18.5 7.5h59v-41h-24q-12 0 -12 -12v-151h36v-41h-36v-479h-49v698zM110 0v724h49v-724h-49z" />
    <glyph glyph-name=".notdef" horiz-adv-x="621" 
d="M97 700h426v-700h-426v700zM480 664h-339l168 -284zM494 629l-167 -279l167 -280v559zM293 350l-166 278v-557zM480 37l-169 283l-170 -283h339z" />
    <glyph glyph-name=".null" horiz-adv-x="0" 
 />
    <glyph glyph-name=".null" horiz-adv-x="0" 
 />
    <glyph glyph-name="uni000D" unicode="&#xd;" horiz-adv-x="250" 
 />
    <glyph glyph-name="space" unicode=" " horiz-adv-x="69" 
 />
    <glyph glyph-name="exclam" unicode="!" horiz-adv-x="69" 
d="M10 160v540h49v-540h-49zM10 0v63h49v-63h-49z" />
    <glyph glyph-name="quotedbl" unicode="&#x22;" horiz-adv-x="173" 
d="M34 700h50l-32 -131h-42zM113 700h50l-32 -131h-42z" />
    <glyph glyph-name="numbersign" unicode="#" horiz-adv-x="311" 
d="M97 467l30 233h47l-29 -233h47l30 233h48l-30 -233h61v-47h-67l-18 -139h66v-47h-72l-29 -234h-48l30 234h-48l-30 -234h-47l29 234h-54v47h60l18 139h-59v47h65zM169 281l17 139h-47l-18 -139h48z" />
    <glyph glyph-name="dollar" unicode="$" horiz-adv-x="155" 
d="M42 329q-14 0 -23 9t-9 23v312q0 11 7.5 18.5t18.5 7.5h17v39h49v-39h17q11 0 18.5 -7.5t7.5 -18.5v-285h-49v258q0 12 -12 12h-13q-12 0 -12 -12v-264q0 -12 12 -12h42q14 0 23 -9t9 -23v-312q0 -11 -7.5 -18.5t-18.5 -7.5h-17v-39h-49v39h-17q-11 0 -18.5 7.5
t-7.5 18.5v285h49v-258q0 -12 12 -12h13q12 0 12 12v264q0 12 -12 12h-42z" />
    <glyph glyph-name="percent" unicode="%" horiz-adv-x="374" 
d="M144 361q0 -28 -19.5 -47.5t-48.5 -19.5q-27 0 -46.5 19.5t-19.5 47.5v277q0 27 19.5 46.5t48.5 19.5q28 0 47 -19.5t19 -46.5v-277zM267 700h50l-210 -700h-49zM95 645q0 8 -5 13t-13 5t-13 -5t-5 -13v-292q0 -7 5 -12.5t13 -5.5t13 5.5t5 12.5v292zM364 63
q0 -28 -19.5 -47.5t-48.5 -19.5q-27 0 -46.5 19.5t-19.5 47.5v277q0 27 19.5 46.5t48.5 19.5q28 0 47 -19.5t19 -46.5v-277zM315 347q0 8 -5 13t-13 5t-13 -5t-5 -13v-292q0 -7 5 -12.5t13 -5.5t13 5.5t5 12.5v292z" />
    <glyph glyph-name="ampersand" unicode="&#x26;" horiz-adv-x="177" 
d="M59 464l37 -39v41h48v-88l28 -30v-65l-28 31v-288q0 -11 -7.5 -18.5t-18.5 -7.5h-82q-11 0 -18.5 7.5t-7.5 18.5v345q0 11 7.5 18.5t18.5 7.5h24l-50 53v227q0 11 7.5 18.5t18.5 7.5h82q11 0 18.5 -7.5t7.5 -18.5v-118h-48v91q0 12 -12 12h-13q-12 0 -12 -12v-186z
M71 356q-12 0 -12 -12v-291q0 -12 12 -12h13q12 0 12 12v303h-25z" />
    <glyph glyph-name="quotesingle" unicode="'" horiz-adv-x="94" 
d="M34 700h50l-32 -131h-42z" />
    <glyph glyph-name="parenleft" unicode="(" horiz-adv-x="138" 
d="M10 287q0 125 19.5 232.5t55.5 180.5h48q-18 -35 -31.5 -80.5t-23 -98.5t-14.5 -112.5t-5 -121.5t5 -121.5t14.5 -112.5t23 -98.5t31.5 -80.5h-48q-36 73 -55.5 180.5t-19.5 232.5z" />
    <glyph glyph-name="parenright" unicode=")" horiz-adv-x="138" 
d="M128 287q0 -125 -19.5 -232.5t-55.5 -180.5h-48q18 35 31.5 80.5t23 98.5t14.5 112.5t5 121.5t-5 121.5t-14.5 112.5t-23 98.5t-31.5 80.5h48q36 -73 55.5 -180.5t19.5 -232.5z" />
    <glyph glyph-name="asterisk" unicode="*" horiz-adv-x="298" 
d="M91 423l-50 38l88 90l-124 20l18 60l113 -56l-18 125h62l-19 -125l114 57l18 -60l-125 -21l88 -90l-50 -37l-58 112z" />
    <glyph glyph-name="plus" unicode="+" horiz-adv-x="202" 
d="M10 302h66v66h49v-66h66v-49h-66v-66h-49v66h-66v49z" />
    <glyph glyph-name="comma" unicode="," horiz-adv-x="84" 
d="M29 63h50l-32 -131h-42z" />
    <glyph glyph-name="hyphen" unicode="-" horiz-adv-x="202" 
d="M10 302h182v-49h-182v49z" />
    <glyph glyph-name="period" unicode="." horiz-adv-x="71" 
d="M10 63h51v-63h-51v63z" />
    <glyph glyph-name="slash" unicode="/" horiz-adv-x="279" 
d="M219 700h50l-209 -700h-50z" />
    <glyph glyph-name="zero" unicode="0" 
d="M144 63q0 -29 -19 -48t-49 -19q-29 0 -47.5 19t-18.5 48v575q0 29 19 47.5t49 18.5q29 0 47.5 -18.5t18.5 -47.5v-575zM95 645q0 8 -5 13t-13 5t-13 -5t-5 -13v-590q0 -8 5 -13t13 -5t13 5t5 13v590z" />
    <glyph glyph-name="one" unicode="1" horiz-adv-x="125" 
d="M27 660q12 0 12 12v28h49v-659h32v-41h-113v41h32v578h-34v41h22z" />
    <glyph glyph-name="two" unicode="2" horiz-adv-x="151" 
d="M8 41q0 51 13.5 106.5t30.5 112.5q21 59 31 110t10 100v174q0 8 -5 13.5t-13 5.5t-13 -5.5t-5 -13.5v-209h-49v202q0 29 19 48t49 19q29 0 47.5 -19t18.5 -48v-167q0 -49 -10.5 -102.5t-32.5 -116.5q-42 -124 -42 -210h85v-41h-134v41z" />
    <glyph glyph-name="three" unicode="3" horiz-adv-x="156" 
d="M76 -4q-29 0 -47.5 19t-18.5 48v187h49v-194q0 -8 5 -13t13 -5t13 4.5t5 12.5v359q0 9 -6.5 15.5t-15.5 6.5h-63v41l83 182h-83v41h138v-41l-84 -182h33q20 0 33.5 -13.5t13.5 -33.5v-368q0 -28 -19 -47t-49 -19z" />
    <glyph glyph-name="four" unicode="4" horiz-adv-x="153" 
d="M91 700l-36 -494h39v363h49v-569h-49v165h-89l39 535h47z" />
    <glyph glyph-name="five" unicode="5" 
d="M144 62q0 -28 -19 -47t-49 -19q-29 0 -47.5 19t-18.5 48v187h49v-194q0 -8 5 -13t13 -5t13 4.5t5 12.5v359q0 9 -6.5 15.5t-15.5 6.5h-63v264h134v-41h-85v-182h14q32 0 51.5 -19.5t19.5 -51.5v-344z" />
    <glyph glyph-name="six" unicode="6" horiz-adv-x="155" 
d="M144 62q0 -29 -19 -47.5t-48 -18.5t-48 19t-19 48v575q0 29 19 47.5t49 18.5q29 0 47.5 -18.5t18.5 -47.5v-121h-49v128q0 8 -5 13t-13 5q-17 0 -17 -18v-168h14q31 0 50.5 -20t19.5 -51v-344zM60 55q0 -8 5 -13t13 -5q7 0 12 5t5 13v359q0 9 -6.5 15.5t-15.5 6.5h-13
v-381z" />
    <glyph glyph-name="seven" unicode="7" horiz-adv-x="160" 
d="M155 659q-18 -77 -31 -151.5t-21.5 -150.5t-12 -155.5t-3.5 -166.5v-35h-49v35q0 168 16.5 324.5t51.5 299.5h-47v-142h-49v183h145v-41z" />
    <glyph glyph-name="eight" unicode="8" 
d="M144 63q0 -28 -19 -47.5t-48 -19.5q-28 0 -47.5 19.5t-19.5 47.5v348q0 28 19 45q-19 19 -19 46v136q0 27 19.5 46.5t48.5 19.5q28 0 47 -19.5t19 -46.5v-136q0 -26 -18 -46q18 -18 18 -45v-348zM95 645q0 8 -5 13t-13 5t-13 -5t-5 -13v-150q0 -8 5 -13t13 -5t13 5t5 13
v150zM95 418q0 8 -5 13t-13 5t-13 -5t-5 -13v-363q0 -7 5 -12.5t13 -5.5t13 5.5t5 12.5v363z" />
    <glyph glyph-name="nine" unicode="9" horiz-adv-x="155" 
d="M10 638q0 29 19 47.5t49 18.5q29 0 48 -18.5t19 -47.5v-575q0 -29 -19 -48t-50 -19q-29 0 -47.5 19t-18.5 48v120h49v-128q0 -8 5 -13t13 -5t13 5t5 13v168h-14q-32 0 -51.5 20t-19.5 51v344zM95 645q0 8 -5 13t-13 5t-13 -5t-5 -13v-359q0 -9 6.5 -15.5t15.5 -6.5h14
v381z" />
    <glyph glyph-name="colon" unicode=":" horiz-adv-x="71" 
d="M10 430h51v-63h-51v63zM10 63h51v-63h-51v63z" />
    <glyph glyph-name="semicolon" unicode=";" horiz-adv-x="94" 
d="M24 430h51v-63h-51v63zM34 63h50l-32 -131h-42z" />
    <glyph glyph-name="less" unicode="&#x3c;" horiz-adv-x="347" 
d="M5 311v25l337 157v-54l-256 -116l256 -116v-54z" />
    <glyph glyph-name="equal" unicode="=" horiz-adv-x="202" 
d="M10 373h182v-46h-182v46zM10 284h182v-46h-182v46z" />
    <glyph glyph-name="greater" unicode="&#x3e;" horiz-adv-x="347" 
d="M5 207l257 116l-257 116v54l337 -157v-25l-337 -158v54z" />
    <glyph glyph-name="question" unicode="?" horiz-adv-x="151" 
d="M45 181q0 47 6.5 81t19.5 69q11 31 16.5 65t5.5 82v167q0 8 -5 13t-13 5t-13 -5t-5 -13v-167h-49v159q0 29 19 48t49 19q29 0 47.5 -19t18.5 -48v-159q0 -56 -6.5 -94.5t-19.5 -71.5q-12 -29 -17 -59.5t-5 -71.5v-21h-49v21zM45 63h49v-63h-49v63z" />
    <glyph glyph-name="at" unicode="@" horiz-adv-x="397" 
d="M220 -73q-51 0 -90.5 28t-66 80t-40 126.5t-13.5 168.5q0 374 193 374q184 0 184 -343q0 -160 -27 -235t-90 -75h-110q-11 0 -18.5 7.5t-7.5 18.5v248q0 11 7.5 18.5t18.5 7.5h60v167q0 12 -13 12h-12q-12 0 -12 -12v-131h-49v158q0 11 7.5 18.5t18.5 7.5h83
q11 0 18.5 -7.5t7.5 -18.5v-452q38 2 55 65.5t17 203.5q0 153 -34 226.5t-106 73.5q-73 0 -109 -81.5t-36 -251.5q0 -174 41 -267t123 -94v-41zM217 92v218h-24q-12 0 -12 -12v-194q0 -12 12 -12h24z" />
    <glyph glyph-name="A" unicode="A" horiz-adv-x="155" 
d="M10 674q0 11 7.5 18.5t18.5 7.5h83q11 0 18.5 -7.5t7.5 -18.5v-674h-49v215h-37v-215h-49v674zM59 256h37v391q0 12 -12 12h-13q-12 0 -12 -12v-391z" />
    <glyph glyph-name="B" unicode="B" horiz-adv-x="155" 
d="M145 375q0 -8 -5.5 -15.5t-13.5 -9.5q8 -2 13.5 -9.5t5.5 -15.5v-299q0 -11 -7.5 -18.5t-18.5 -7.5h-109v700h109q11 0 18.5 -7.5t7.5 -18.5v-299zM96 647q0 12 -12 12h-25v-288h25q12 0 12 12v264zM96 317q0 12 -12 12h-25v-288h25q12 0 12 12v264z" />
    <glyph glyph-name="C" unicode="C" horiz-adv-x="155" 
d="M96 41v256h49v-297h-109q-11 0 -18.5 7.5t-7.5 18.5v648q0 11 7.5 18.5t18.5 7.5h109v-297h-49v256h-25q-12 0 -12 -12v-594q0 -12 12 -12h25z" />
    <glyph glyph-name="D" unicode="D" 
d="M144 26q0 -11 -7.5 -18.5t-18.5 -7.5h-108v700h108q11 0 18.5 -7.5t7.5 -18.5v-648zM95 647q0 12 -12 12h-24v-618h24q12 0 12 12v594z" />
    <glyph glyph-name="E" unicode="E" horiz-adv-x="104" 
d="M10 700h89v-41h-40v-288h40v-42h-40v-288h40v-41h-89v700z" />
    <glyph glyph-name="F" unicode="F" horiz-adv-x="104" 
d="M10 700h89v-41h-40v-288h40v-42h-40v-329h-49v700z" />
    <glyph glyph-name="G" unicode="G" 
d="M10 674q0 11 7.5 18.5t18.5 7.5h108v-298h-49v257h-24q-12 0 -12 -12v-594q0 -12 12 -12h24v284h-19v41h68v-366h-108q-11 0 -18.5 7.5t-7.5 18.5v648z" />
    <glyph glyph-name="H" unicode="H" horiz-adv-x="155" 
d="M10 700h49v-327h37v327h49v-701h-49v332h-37v-332h-49v701z" />
    <glyph glyph-name="I" unicode="I" horiz-adv-x="69" 
d="M10 700h49v-700h-49v700z" />
    <glyph glyph-name="J" unicode="J" horiz-adv-x="101" 
d="M5 0v41h24q12 0 12 12v606h-36v41h85v-674q0 -11 -7 -18.5t-18 -7.5h-60z" />
    <glyph glyph-name="K" unicode="K" horiz-adv-x="148" 
d="M104 350l38 -350h-43l-35 329h-5v-329h-49v700h49v-329h5l35 329h43z" />
    <glyph glyph-name="L" unicode="L" horiz-adv-x="104" 
d="M10 700h49v-659h40v-41h-89v700z" />
    <glyph glyph-name="M" unicode="M" horiz-adv-x="161" 
d="M10 700h39l32 -117l31 117h39v-700h-49v544l-21 -88l-22 88v-544h-49v700z" />
    <glyph glyph-name="N" unicode="N" horiz-adv-x="157" 
d="M147 0h-49v454l-39 115v-569h-49v700h47l41 -133v133h49v-700z" />
    <glyph glyph-name="O" unicode="O" 
d="M144 26q0 -11 -7.5 -18.5t-18.5 -7.5h-82q-11 0 -18.5 7.5t-7.5 18.5v648q0 11 7.5 18.5t18.5 7.5h82q11 0 18.5 -7.5t7.5 -18.5v-648zM95 647q0 12 -12 12h-12q-12 0 -12 -12v-594q0 -12 12 -12h12q12 0 12 12v594z" />
    <glyph glyph-name="P" unicode="P" 
d="M144 265q0 -11 -7.5 -18.5t-18.5 -7.5h-59v-239h-49v700h108q11 0 18.5 -7.5t7.5 -18.5v-409zM95 647q0 12 -12 12h-24v-379h24q12 0 12 12v355z" />
    <glyph glyph-name="Q" unicode="Q" 
d="M36 0q-11 0 -18.5 7.5t-7.5 18.5v648q0 11 7.5 18.5t18.5 7.5h82q11 0 18.5 -7.5t7.5 -18.5v-648q0 -11 -7.5 -18.5t-18.5 -7.5h-17l26 -61h-47l-26 61h-18zM95 647q0 12 -12 12h-12q-12 0 -12 -12v-594q0 -12 12 -12h12q12 0 12 12v594z" />
    <glyph glyph-name="R" unicode="R" horiz-adv-x="155" 
d="M96 0v287q0 12 -12 12h-25v-299h-49v700h109q11 0 18.5 -7.5t7.5 -18.5v-329q0 -8 -6 -15.5t-14 -9.5q8 -2 14 -9.5t6 -15.5v-295h-49zM96 647q0 12 -12 12h-25v-318h25q12 0 12 12v294z" />
    <glyph glyph-name="S" unicode="S" horiz-adv-x="155" 
d="M42 329q-14 0 -23 9t-9 23v312q0 11 7.5 18.5t18.5 7.5h83q11 0 18.5 -7.5t7.5 -18.5v-285h-49v258q0 12 -12 12h-13q-12 0 -12 -12v-264q0 -12 12 -12h42q14 0 23 -9t9 -23v-312q0 -11 -7.5 -18.5t-18.5 -7.5h-83q-11 0 -18.5 7.5t-7.5 18.5v285h49v-258q0 -12 12 -12
h13q12 0 12 12v264q0 12 -12 12h-42z" />
    <glyph glyph-name="T" unicode="T" horiz-adv-x="139" 
d="M45 659h-40v41h129v-41h-40v-659h-49v659z" />
    <glyph glyph-name="U" unicode="U" 
d="M144 26q0 -11 -7.5 -18.5t-18.5 -7.5h-82q-11 0 -18.5 7.5t-7.5 18.5v673h49v-646q0 -12 12 -12h12q12 0 12 12v646h49v-673z" />
    <glyph glyph-name="V" unicode="V" horiz-adv-x="149" 
d="M144 700l-29 -700h-81l-29 700h47l22 -605h2l21 605h47z" />
    <glyph glyph-name="W" unicode="W" horiz-adv-x="161" 
d="M59 700v-544l22 88l21 -88v544h49v-700h-39l-31 117l-32 -117h-39v700h49z" />
    <glyph glyph-name="X" unicode="X" horiz-adv-x="156" 
d="M56 0h-48l35 348l-35 352h47l23 -283h2l22 283h47l-34 -352l34 -348h-48l-21 279h-2z" />
    <glyph glyph-name="Y" unicode="Y" horiz-adv-x="156" 
d="M79 316l23 384h46l-46 -509v-192h-49v192l-44 509h46l22 -384h2z" />
    <glyph glyph-name="Z" unicode="Z" horiz-adv-x="117" 
d="M5 41l61 618h-61v41h107v-41l-61 -618h61v-41h-107v41z" />
    <glyph glyph-name="bracketleft" unicode="[" horiz-adv-x="94" 
d="M10 700h79v-41h-30v-744h30v-41h-79v826z" />
    <glyph glyph-name="backslash" unicode="\" horiz-adv-x="279" 
d="M219 0l-209 700h50l209 -700h-50z" />
    <glyph glyph-name="bracketright" unicode="]" horiz-adv-x="94" 
d="M5 -126v41h30v744h-30v41h79v-826h-79z" />
    <glyph glyph-name="asciicircum" unicode="^" horiz-adv-x="310" 
d="M136 700h39l130 -266h-47l-103 209l-103 -209h-47z" />
    <glyph glyph-name="underscore" unicode="_" horiz-adv-x="182" 
d="M5 0h172v-42h-172v42z" />
    <glyph glyph-name="grave" unicode="`" horiz-adv-x="131" 
d="M122 558h-40l-73 84h62z" />
    <glyph glyph-name="a" unicode="a" horiz-adv-x="155" 
d="M10 275q0 11 7.5 18.5t18.5 7.5h60v167q0 12 -12 12h-13q-12 0 -12 -12v-131h-49v158q0 11 7.5 18.5t18.5 7.5h83q11 0 18.5 -7.5t7.5 -18.5v-494h-109q-11 0 -18.5 7.5t-7.5 18.5v248zM96 42v218h-25q-12 0 -12 -12v-194q0 -12 12 -12h25z" />
    <glyph glyph-name="b" unicode="b" 
d="M144 26q0 -11 -7.5 -18.5t-18.5 -7.5h-108v724h49v-204h59q11 0 18.5 -7.5t7.5 -18.5v-468zM95 467q0 12 -12 12h-24v-438h24q12 0 12 12v414z" />
    <glyph glyph-name="c" unicode="c" horiz-adv-x="104" 
d="M99 41v-41h-63q-11 0 -18.5 7.5t-7.5 18.5v468q0 11 7.5 18.5t18.5 7.5h63v-41h-28q-12 0 -12 -12v-414q0 -12 12 -12h28z" />
    <glyph glyph-name="d" unicode="d" 
d="M10 494q0 11 7.5 18.5t18.5 7.5h59v204h49v-724h-108q-11 0 -18.5 7.5t-7.5 18.5v468zM59 53q0 -12 12 -12h24v438h-24q-12 0 -12 -12v-414z" />
    <glyph glyph-name="e" unicode="e" 
d="M145 251q0 -11 -7.5 -18.5t-18.5 -7.5h-60v-172q0 -12 12 -12h13q12 0 12 12v136h49v-163q0 -11 -7.5 -18.5t-18.5 -7.5h-83q-11 0 -18.5 7.5t-7.5 18.5v468q0 11 7.5 18.5t18.5 7.5h83q11 0 18.5 -7.5t7.5 -18.5v-243zM71 479q-12 0 -12 -12v-200h25q12 0 12 12v188
q0 12 -12 12h-13z" />
    <glyph glyph-name="f" unicode="f" horiz-adv-x="100" 
d="M10 698q0 11 7.5 18.5t18.5 7.5h59v-41h-24q-12 0 -12 -12v-151h36v-41h-36v-479h-49v698z" />
    <glyph glyph-name="g" unicode="g" 
d="M10 494q0 11 7.5 18.5t18.5 7.5h109v-657q0 -11 -7.5 -18.5t-18.5 -7.5h-83q-11 0 -18.5 7.5t-7.5 18.5v97h49v-70q0 -12 12 -12h13q12 0 12 12v110h-60q-11 0 -18.5 7.5t-7.5 18.5v468zM71 479q-12 0 -12 -12v-414q0 -12 12 -12h25v438h-25z" />
    <glyph glyph-name="h" unicode="h" 
d="M10 724h49v-204h59q11 0 18.5 -7.5t7.5 -18.5v-494h-49v463q0 12 -12 12h-24v-475h-49v724z" />
    <glyph glyph-name="i" unicode="i" horiz-adv-x="69" 
d="M10 632h49v-64h-49v64zM59 520v-520h-49v520h49z" />
    <glyph glyph-name="j" unicode="j" horiz-adv-x="69" 
d="M10 632h49v-64h-49v64zM10 520h49v-657q0 -11 -7.5 -18.5t-18.5 -7.5h-56v48h21q12 0 12 12v623z" />
    <glyph glyph-name="k" unicode="k" horiz-adv-x="150" 
d="M111 261l34 -261h-47l-32 240h-7v-240h-49v724h49v-442h7l32 238h47z" />
    <glyph glyph-name="l" unicode="l" horiz-adv-x="69" 
d="M10 0v724h49v-724h-49z" />
    <glyph glyph-name="m" unicode="m" horiz-adv-x="223" 
d="M10 520h75q15 0 27 -12q12 12 26 12h49q11 0 18.5 -7.5t7.5 -18.5v-494h-49v467q0 11 -13 11t-13 -11v-467h-53v467q0 12 -12 12h-14v-479h-49v520z" />
    <glyph glyph-name="n" unicode="n" 
d="M10 520h108q11 0 18.5 -7.5t7.5 -18.5v-494h-49v463q0 12 -12 12h-24v-475h-49v520z" />
    <glyph glyph-name="o" unicode="o" horiz-adv-x="155" 
d="M145 26q0 -11 -7.5 -18.5t-18.5 -7.5h-83q-11 0 -18.5 7.5t-7.5 18.5v468q0 11 7.5 18.5t18.5 7.5h83q11 0 18.5 -7.5t7.5 -18.5v-468zM96 467q0 12 -12 12h-13q-12 0 -12 -12v-414q0 -12 12 -12h13q12 0 12 12v414z" />
    <glyph glyph-name="p" unicode="p" horiz-adv-x="155" 
d="M59 -163h-49v683h109q11 0 18.5 -7.5t7.5 -18.5v-468q0 -11 -7.5 -18.5t-18.5 -7.5h-60v-163zM84 41q12 0 12 12v414q0 12 -12 12h-25v-438h25z" />
    <glyph glyph-name="q" unicode="q" horiz-adv-x="155" 
d="M36 0q-11 0 -18.5 7.5t-7.5 18.5v468q0 11 7.5 18.5t18.5 7.5h109v-683h-49v163h-60zM96 41v438h-25q-12 0 -12 -12v-414q0 -12 12 -12h25z" />
    <glyph glyph-name="r" unicode="r" horiz-adv-x="150" 
d="M10 520h49v-14l33 14h27q11 0 18.5 -7.5t7.5 -18.5v-260h-49v223q0 13 -11 7l-26 -12v-452h-49v520z" />
    <glyph glyph-name="s" unicode="s" 
d="M42 321q-14 0 -23 9t-9 23v141q0 11 7.5 18.5t18.5 7.5h83q11 0 18.5 -7.5t7.5 -18.5v-114h-49v87q0 12 -12 12h-13q-12 0 -12 -12v-93q0 -12 12 -12h42q14 0 23 -9t9 -23v-304q0 -11 -7.5 -18.5t-18.5 -7.5h-83q-11 0 -18.5 7.5t-7.5 18.5v277h49v-249q0 -12 12 -12h13
q12 0 12 12v255q0 12 -12 12h-42z" />
    <glyph glyph-name="t" unicode="t" horiz-adv-x="100" 
d="M95 0h-59q-11 0 -18.5 7.5t-7.5 18.5v594h49v-100h36v-41h-36v-426q0 -12 12 -12h24v-41z" />
    <glyph glyph-name="u" unicode="u" 
d="M144 0h-108q-11 0 -18.5 7.5t-7.5 18.5v494h49v-463q0 -12 12 -12h24v475h49v-520z" />
    <glyph glyph-name="v" unicode="v" horiz-adv-x="155" 
d="M147 520l-31 -520h-77l-31 520h47l22 -407h2l21 407h47z" />
    <glyph glyph-name="w" unicode="w" horiz-adv-x="223" 
d="M10 520h49v-467q0 -11 11 -11h4q11 0 11 11v467h53v-467q0 -11 11 -11h4q11 0 11 11v467h49v-494q0 -11 -7.5 -18.5t-18.5 -7.5h-49q-15 0 -27 12q-12 -12 -26 -12h-49q-11 0 -18.5 7.5t-7.5 18.5v494z" />
    <glyph glyph-name="x" unicode="x" horiz-adv-x="151" 
d="M53 0h-48l34 259l-34 261h47l23 -211h2l22 211h47l-35 -261l35 -259h-48l-21 207h-2z" />
    <glyph glyph-name="y" unicode="y" 
d="M36 0q-11 0 -18.5 7.5t-7.5 18.5v494h49v-467q0 -12 12 -12h25v479h49v-657q0 -11 -7.5 -18.5t-18.5 -7.5h-83q-11 0 -18.5 7.5t-7.5 18.5v97h49v-70q0 -12 12 -12h13q12 0 12 12v110h-60z" />
    <glyph glyph-name="z" unicode="z" horiz-adv-x="117" 
d="M5 41l61 438h-61v41h107v-41l-61 -438h61v-41h-107v41z" />
    <glyph glyph-name="braceleft" unicode="{" horiz-adv-x="155" 
d="M59 287q20 -5 30.5 -22.5t10.5 -46.5v-258q0 -44 39 -44h9v-42h-26q-34 0 -52.5 20t-18.5 57v275q0 48 -46 48v25q46 0 46 49v275q0 37 18.5 57t52.5 20h26v-42h-9q-39 0 -39 -44v-259q0 -57 -41 -68z" />
    <glyph glyph-name="bar" unicode="|" horiz-adv-x="69" 
d="M10 738h49v-908h-49v908z" />
    <glyph glyph-name="braceright" unicode="}" horiz-adv-x="155" 
d="M96 287q-42 11 -42 68v259q0 44 -38 44h-9v42h25q35 0 53 -20t18 -57v-275q0 -49 46 -49v-25q-46 0 -46 -48v-275q0 -37 -18 -57t-53 -20h-25v42h9q38 0 38 44v258q0 29 10.5 46.5t31.5 22.5z" />
    <glyph glyph-name="asciitilde" unicode="~" horiz-adv-x="272" 
d="M10 348q23 34 64 34q16 0 30.5 -5.5t34.5 -16.5q21 -12 34 -16.5t24 -4.5q38 0 65 42v-56q-11 -16 -27 -25t-38 -9q-14 0 -29 5t-40 20q-16 9 -27.5 13.5t-25.5 4.5q-37 0 -65 -42v56z" />
    <glyph glyph-name="exclamdown" unicode="&#xa1;" horiz-adv-x="69" 
d="M59 457h-49v63h49v-63zM59 -180h-49v540h49v-540z" />
    <glyph glyph-name="cent" unicode="&#xa2;" horiz-adv-x="121" 
d="M46 90h-10q-11 0 -18.5 7.5t-7.5 18.5v468q0 11 7.5 18.5t18.5 7.5h10v90h43v-90h24v-41h-42q-12 0 -12 -12v-414q0 -12 12 -12h42v-41h-24v-90h-43v90z" />
    <glyph glyph-name="sterling" unicode="&#xa3;" horiz-adv-x="260" 
d="M76 558q0 -45 10 -92.5t23 -102.5h80v-43h-70q8 -33 12 -63.5t4 -60.5q0 -48 -18 -84.5t-61 -68.5h145v41h49v-84h-240v43h3q38 19 55.5 53.5t17.5 85.5q0 34 -5.5 68t-13.5 70h-57v43h47q-12 51 -21 95.5t-9 86.5q0 80 31.5 117.5t80.5 37.5q48 0 79.5 -31t31.5 -81h-51
q0 38 -16 63t-43 25t-45.5 -28.5t-18.5 -89.5z" />
    <glyph glyph-name="currency" unicode="&#xa4;" horiz-adv-x="328" 
d="M164 197q-54 0 -96 34l-38 -38l-19 19l38 38q-36 42 -36 98q0 54 35 95l-38 38l19 19l38 -38q43 35 97 35q56 0 97 -35l38 38l19 -19l-38 -38q35 -41 35 -95q0 -56 -36 -98l38 -38l-19 -19l-38 38q-42 -34 -96 -34zM164 222q27 0 50 9.5t40 26.5t26.5 39.5t9.5 49.5
t-9.5 49.5t-26.5 39.5t-40 26.5t-50 9.5t-50 -9.5t-40 -26.5t-26.5 -39.5t-9.5 -49.5t9.5 -49.5t26.5 -39.5t40 -26.5t50 -9.5z" />
    <glyph glyph-name="yen" unicode="&#xa5;" horiz-adv-x="159" 
d="M80 316l23 384h47l-42 -455h38v-46h-42l-1 -25h43v-46h-43v-129h-49v129h-41v46h41l-1 25h-40v46h36l-40 455h47l22 -384h2z" />
    <glyph glyph-name="brokenbar" unicode="&#xa6;" horiz-adv-x="69" 
d="M10 335v403h49v-403h-49zM59 215v-385h-49v385h49z" />
    <glyph glyph-name="section" unicode="&#xa7;" horiz-adv-x="155" 
d="M59 245v-192q0 -12 12 -12h13q12 0 12 12v198q0 12 -12 12h-42q-14 0 -23 9t-9 23v380q0 11 7.5 18.5t18.5 7.5h83q11 0 18.5 -7.5t7.5 -18.5v-219h-49v192q0 12 -12 12h-13q-12 0 -12 -12v-198q0 -12 12 -12h42q14 0 23 -9t9 -23v-380q0 -11 -7.5 -18.5t-18.5 -7.5h-83
q-11 0 -18.5 7.5t-7.5 18.5v219h49zM96 385q0 12 -12 12h-25v-81q0 -12 12 -12h25v81z" />
    <glyph glyph-name="dieresis" unicode="&#xa8;" horiz-adv-x="140" 
d="M10 633h47v-63h-47v63zM83 633h47v-63h-47v63z" />
    <glyph glyph-name="copyright" unicode="&#xa9;" horiz-adv-x="365" 
d="M10 533q0 36 13.5 67t36.5 54t54 36.5t67 13.5q35 0 66.5 -13.5t55.5 -36.5t38 -54t14 -67v-366q0 -36 -13.5 -67.5t-37.5 -54.5t-55.5 -36t-67.5 -13t-67 13.5t-54 36.5t-36.5 54t-13.5 67v366zM181 20q31 0 58 11t47.5 30.5t32 46.5t11.5 58v368q0 31 -11.5 58
t-32 46.5t-47.5 30.5t-58 11q-30 0 -57 -11.5t-46.5 -31t-31 -46.5t-11.5 -57v-368q0 -30 11.5 -57t31 -46.5t46.5 -31t57 -11.5zM199 100v197h49v-238h-109q-11 0 -18.5 7t-7.5 18v532q0 11 7.5 18t18.5 7h109v-238h-49v197h-25q-12 0 -12 -12v-476q0 -12 12 -12h25z" />
    <glyph glyph-name="ordfeminine" unicode="&#xaa;" horiz-adv-x="110" 
d="M10 578q0 11 7.5 18.5t18.5 7.5h39v80q0 12 -12 12h-16q-12 0 -12 -12v-40h-25v50q0 11 7.5 18.5t18.5 7.5h38q11 0 18.5 -7.5t7.5 -18.5v-261h-64q-11 0 -18.5 7.5t-7.5 18.5v119zM75 457v123h-28q-12 0 -12 -12v-99q0 -12 12 -12h28z" />
    <glyph glyph-name="guillemotleft" unicode="&#xab;" horiz-adv-x="227" 
d="M5 268l82 183h51l-82 -183l82 -183h-51zM89 268l82 183h51l-82 -183l82 -183h-51z" />
    <glyph glyph-name="logicalnot" unicode="&#xac;" horiz-adv-x="430" 
d="M10 304h410v-130h-49v81h-361v49z" />
    <glyph glyph-name="registered" unicode="&#xae;" horiz-adv-x="365" 
d="M10 533q0 36 13.5 67t36.5 54.5t54 36.5t67 13t67.5 -13.5t55.5 -36.5t37.5 -54.5t13.5 -66.5v-366q0 -36 -13.5 -67t-37 -54.5t-55.5 -36.5t-68 -13t-67 13.5t-54 36.5t-36.5 54t-13.5 67v366zM181 20q32 0 59 11.5t47 31t31.5 46t11.5 57.5v368q0 31 -11.5 57.5t-32 46
t-47.5 31t-58 11.5q-30 0 -57 -11.5t-46.5 -31t-31 -46.5t-11.5 -57v-368q0 -30 11.5 -57t31 -46.5t46.5 -31t57 -11.5zM201 58v231q0 11 -12 11h-25v-242h-49v585h109q11 0 18.5 -7.5t7.5 -18.5v-274q0 -16 -20 -23q20 -5 20 -22v-240h-49zM201 589q0 12 -12 12h-25v-260
h25q12 0 12 11v237z" />
    <glyph glyph-name="macron" unicode="&#xaf;" horiz-adv-x="142" 
d="M10 624h122v-49h-122v49z" />
    <glyph glyph-name="degree" unicode="&#xb0;" horiz-adv-x="276" 
d="M137 454q-26 0 -49 10t-40.5 27.5t-27.5 40.5t-10 50q0 26 10 49.5t27.5 41t40.5 27.5t49 10q27 0 50.5 -10t41 -27.5t27.5 -41t10 -49.5q0 -27 -10 -50t-27.5 -40.5t-41 -27.5t-50.5 -10zM138 503q33 0 56 23t23 56t-23 56t-56 23t-56 -23t-23 -56t23 -56t56 -23z" />
    <glyph glyph-name="plusminus" unicode="&#xb1;" horiz-adv-x="202" 
d="M10 302h66v66h49v-66h67v-49h-67v-66h-49v66h-66v49zM10 102h182v-49h-182v49z" />
    <glyph glyph-name="twosuperior" unicode="&#xb2;" horiz-adv-x="109" 
d="M10 457q0 56 37 114q14 22 20.5 40t6.5 39v10q0 8 -5.5 14t-13.5 6t-14 -6t-6 -14v-24h-25v24q0 18 13 31t32 13q18 0 31 -13t13 -31v-10q0 -22 -6.5 -40.5t-21.5 -41.5q-20 -31 -28 -58t-8 -53h64v-24h-89v24z" />
    <glyph glyph-name="threesuperior" unicode="&#xb3;" horiz-adv-x="109" 
d="M99 474q0 -17 -13 -30t-31 -13q-17 0 -31 13t-14 31v34h27v-34q0 -8 5.5 -14t13.5 -6q7 0 12.5 5.5t5.5 13.5v85q0 9 -6.5 15.5t-14.5 6.5h-43v24l64 71h-64v24h89v-24l-62 -71h16q19 0 32.5 -13.5t13.5 -33.5v-84z" />
    <glyph glyph-name="acute" unicode="&#xb4;" horiz-adv-x="131" 
d="M122 642l-73 -84h-40l51 84h62z" />
    <glyph glyph-name="paragraph" unicode="&#xb6;" horiz-adv-x="280" 
d="M159 441q-32 0 -60 12t-49 33t-33 49t-12 60t13 60t36 49t53.5 33t64.5 12h97v-919h-49v893h-36v-893h-25v611z" />
    <glyph glyph-name="periodcentered" unicode="&#xb7;" horiz-adv-x="71" 
d="M10 383h51v-63h-51v63z" />
    <glyph glyph-name="cedilla" unicode="&#xb8;" horiz-adv-x="98" 
d="M58 5l-6 -17q38 -4 38 -34q0 -24 -21.5 -42t-59.5 -26v20q19 5 30.5 17t11.5 28q0 24 -28 24l13 30h22z" />
    <glyph glyph-name="onesuperior" unicode="&#xb9;" horiz-adv-x="101" 
d="M27 680q12 0 12 12v28h25v-263h32v-24h-89v24h32v199h-34v24h22z" />
    <glyph glyph-name="ordmasculine" unicode="&#xba;" horiz-adv-x="109" 
d="M99 459q0 -11 -7.5 -18.5t-18.5 -7.5h-37q-11 0 -18.5 7.5t-7.5 18.5v235q0 11 7.5 18.5t18.5 7.5h37q11 0 18.5 -7.5t7.5 -18.5v-235zM74 684q0 12 -12 12h-15q-12 0 -12 -12v-215q0 -12 12 -12h15q12 0 12 12v215z" />
    <glyph glyph-name="guillemotright" unicode="&#xbb;" horiz-adv-x="227" 
d="M89 85l82 183l-82 183h51l82 -183l-82 -183h-51zM5 85l82 183l-82 183h51l82 -183l-82 -183h-51z" />
    <glyph glyph-name="onequarter" unicode="&#xbc;" horiz-adv-x="350" 
d="M262 700h49l-209 -700h-49zM27 660q12 0 12 12v28h49v-361h32v-41h-113v41h32v280h-34v41h22zM303 402l-51 -296h39v154h49v-260h-49v64h-96l60 338h48z" />
    <glyph glyph-name="onehalf" unicode="&#xbd;" horiz-adv-x="378" 
d="M263 700h50l-209 -700h-49zM29 660q12 0 12 12v28h49v-361h32v-41h-113v41h32v280h-34v41h22zM234 41q0 46 11.5 76t34.5 58q19 23 29 50.5t10 74.5v46q0 8 -5 13.5t-13 5.5t-13 -5.5t-5 -13.5v-81h-49v74q0 29 19 48t49 19q29 0 47.5 -19t18.5 -48v-39q0 -46 -13 -80.5
t-38 -64.5q-19 -28 -26.5 -53t-7.5 -61h85v-41h-134v41z" />
    <glyph glyph-name="threequarters" unicode="&#xbe;" horiz-adv-x="362" 
d="M273 700h49l-209 -700h-50zM10 448h49v-94q0 -8 5 -13.5t13 -5.5t13 5t5 13v139q0 9 -6.5 15.5t-15.5 6.5h-63v41l83 104h-83v41h138v-41l-84 -104h33q20 0 33.5 -13.5t13.5 -33.5v-148q0 -29 -19 -47.5t-49 -18.5q-29 0 -47.5 19t-18.5 48v87zM314 402l-51 -296h39v154
h49v-260h-49v64h-96l60 338h48z" />
    <glyph glyph-name="questiondown" unicode="&#xbf;" horiz-adv-x="151" 
d="M56 520h49v-63h-49v63zM8 43q0 53 6.5 91t19.5 73q11 31 16.5 61t5.5 71v21h49v-21q0 -47 -6 -80.5t-19 -67.5q-12 -31 -17.5 -65t-5.5 -83v-168q0 -8 5 -13t13 -5t13 5t5 13v201h49v-193q0 -29 -19 -48t-49 -19q-29 0 -47.5 19t-18.5 48v160z" />
    <glyph glyph-name="Agrave" unicode="&#xc0;" horiz-adv-x="155" 
d="M130 738h-39l-73 84h62zM10 674q0 11 7.5 18.5t18.5 7.5h83q11 0 18.5 -7.5t7.5 -18.5v-674h-49v215h-37v-215h-49v674zM59 256h37v391q0 12 -12 12h-13q-12 0 -12 -12v-391z" />
    <glyph glyph-name="Aacute" unicode="&#xc1;" horiz-adv-x="155" 
d="M135 822l-73 -84h-39l50 84h62zM10 674q0 11 7.5 18.5t18.5 7.5h83q11 0 18.5 -7.5t7.5 -18.5v-674h-49v215h-37v-215h-49v674zM59 256h37v391q0 12 -12 12h-13q-12 0 -12 -12v-391z" />
    <glyph glyph-name="Acircumflex" unicode="&#xc2;" horiz-adv-x="155" 
d="M79 803l-15 -65h-52l49 84h36l49 -84h-53zM10 674q0 11 7.5 18.5t18.5 7.5h83q11 0 18.5 -7.5t7.5 -18.5v-674h-49v215h-37v-215h-49v674zM59 256h37v391q0 12 -12 12h-13q-12 0 -12 -12v-391z" />
    <glyph glyph-name="Atilde" unicode="&#xc3;" horiz-adv-x="155" 
d="M138 825q0 -83 -37 -83q-20 0 -32 24q-8 19 -19 19q-17 0 -19 -39h-13q0 83 36 83q22 0 32 -24q8 -19 20 -19q18 0 19 39h13zM10 675q0 11 7.5 18.5t18.5 7.5h83q11 0 18.5 -7.5t7.5 -18.5v-674h-49v215h-37v-215h-49v674zM59 257h37v390q0 12 -12 12h-13q-12 0 -12 -12
v-390z" />
    <glyph glyph-name="Adieresis" unicode="&#xc4;" horiz-adv-x="155" 
d="M18 813h47v-63h-47v63zM90 813h47v-63h-47v63zM10 674q0 11 7.5 18.5t18.5 7.5h83q11 0 18.5 -7.5t7.5 -18.5v-674h-49v215h-37v-215h-49v674zM59 257h37v390q0 5 -3.5 8.5t-8.5 3.5h-12q-13 0 -13 -12v-390z" />
    <glyph glyph-name="Aring" unicode="&#xc5;" horiz-adv-x="155" 
d="M17 781q0 25 17.5 42.5t43.5 17.5q25 0 42 -17.5t17 -42.5t-17 -42t-42 -17q-26 0 -43.5 17t-17.5 42zM51 781q0 -11 7.5 -18t19.5 -7q11 0 18 7t7 18t-7 18.5t-18 7.5q-12 0 -19.5 -7.5t-7.5 -18.5zM10 675q0 11 7.5 18.5t18.5 7.5h83q11 0 18.5 -7.5t7.5 -18.5v-674
h-49v215h-37v-215h-49v674zM59 257h37v390q0 12 -12 12h-13q-12 0 -12 -12v-390z" />
    <glyph glyph-name="AE" unicode="&#xc6;" horiz-adv-x="190" 
d="M96 329h-37v-329h-49v674q0 11 7.5 18.5t18.5 7.5h149v-41h-40v-289h40v-41h-40v-288h40v-41h-89v329zM67 567q-2 0 0 -2t4 -6v-101q3 2 10.5 3t9.5 1l-2 190q-5 7 -12 3z" />
    <glyph glyph-name="Ccedilla" unicode="&#xc7;" horiz-adv-x="155" 
d="M96 41v256h49v-297h-57l-4 -12q38 -4 38 -34q0 -24 -22 -42t-60 -26v20q19 5 31 17t12 28q0 24 -29 24l12 25h-30q-11 0 -18.5 7.5t-7.5 18.5v648q0 11 7.5 18.5t18.5 7.5h109v-297h-49v256h-25q-12 0 -12 -12v-594q0 -12 12 -12h25z" />
    <glyph glyph-name="Egrave" unicode="&#xc8;" horiz-adv-x="104" 
d="M110 738h-39l-73 84h62zM10 700h89v-41h-40v-288h40v-42h-40v-288h40v-41h-89v700z" />
    <glyph glyph-name="Eacute" unicode="&#xc9;" horiz-adv-x="104" 
d="M107 822l-73 -84h-39l50 84h62zM10 700h89v-41h-40v-288h40v-42h-40v-288h40v-41h-89v700z" />
    <glyph glyph-name="Ecircumflex" unicode="&#xca;" horiz-adv-x="104" 
d="M55 803l-15 -65h-52l49 84h35l49 -84h-52zM10 700h89v-41h-40v-288h40v-42h-40v-288h40v-41h-89v700z" />
    <glyph glyph-name="Edieresis" unicode="&#xcb;" horiz-adv-x="104" 
d="M-6 813h47v-63h-47v63zM67 813h47v-63h-47v63zM10 700h89v-41h-40v-288h40v-41h-40v-288h40v-42h-89v700z" />
    <glyph glyph-name="Igrave" unicode="&#xcc;" horiz-adv-x="69" 
d="M87 738h-39l-73 84h61zM10 700h49v-700h-49v700z" />
    <glyph glyph-name="Iacute" unicode="&#xcd;" horiz-adv-x="69" 
d="M92 822l-73 -84h-39l50 84h62zM10 700h49v-700h-49v700z" />
    <glyph glyph-name="Icircumflex" unicode="&#xce;" horiz-adv-x="69" 
d="M36 803l-14 -65h-53l50 84h34l49 -84h-52zM10 700h49v-700h-49v700z" />
    <glyph glyph-name="Idieresis" unicode="&#xcf;" horiz-adv-x="69" 
d="M-25 813h47v-63h-47v63zM47 813h47v-63h-47v63zM10 700h49v-700h-49v700z" />
    <glyph glyph-name="Eth" unicode="&#xd0;" horiz-adv-x="156" 
d="M146 25q0 -11 -7.5 -18.5t-18.5 -7.5h-108v326h-15v49h15v326h108q11 0 18.5 -7.5t7.5 -18.5v-649zM97 647q0 12 -12 12h-24v-285h21v-49h-21v-284h24q12 0 12 12v594z" />
    <glyph glyph-name="Ntilde" unicode="&#xd1;" horiz-adv-x="157" 
d="M139 825q0 -83 -37 -83q-20 0 -32 24q-8 19 -19 19q-17 0 -19 -39h-13q0 83 36 83q22 0 32 -24q8 -19 20 -19q18 0 19 39h13zM147 1h-49v453l-39 115v-568h-49v700h47l41 -133v133h49v-700z" />
    <glyph glyph-name="Ograve" unicode="&#xd2;" 
d="M131 738h-39l-73 84h61zM144 26q0 -11 -7.5 -18.5t-18.5 -7.5h-82q-11 0 -18.5 7.5t-7.5 18.5v648q0 11 7.5 18.5t18.5 7.5h82q11 0 18.5 -7.5t7.5 -18.5v-648zM95 647q0 12 -12 12h-12q-12 0 -12 -12v-594q0 -12 12 -12h12q12 0 12 12v594z" />
    <glyph glyph-name="Oacute" unicode="&#xd3;" 
d="M136 822l-73 -84h-39l50 84h62zM144 26q0 -11 -7.5 -18.5t-18.5 -7.5h-82q-11 0 -18.5 7.5t-7.5 18.5v648q0 11 7.5 18.5t18.5 7.5h82q11 0 18.5 -7.5t7.5 -18.5v-648zM95 647q0 12 -12 12h-12q-12 0 -12 -12v-594q0 -12 12 -12h12q12 0 12 12v594z" />
    <glyph glyph-name="Ocircumflex" unicode="&#xd4;" 
d="M80 803l-15 -65h-52l49 84h35l49 -84h-52zM144 26q0 -11 -7.5 -18.5t-18.5 -7.5h-82q-11 0 -18.5 7.5t-7.5 18.5v648q0 11 7.5 18.5t18.5 7.5h82q11 0 18.5 -7.5t7.5 -18.5v-648zM95 647q0 12 -12 12h-12q-12 0 -12 -12v-594q0 -12 12 -12h12q12 0 12 12v594z" />
    <glyph glyph-name="Otilde" unicode="&#xd5;" 
d="M139 825q0 -83 -37 -83q-20 0 -32 24q-8 19 -19 19q-17 0 -19 -39h-13q0 83 36 83q22 0 32 -24q8 -19 19 -19q19 0 20 39h13zM144 27q0 -11 -7 -18.5t-18 -7.5h-83q-11 0 -18.5 7.5t-7.5 18.5v648q0 11 7.5 18.5t18.5 7.5h83q11 0 18 -7.5t7 -18.5v-648zM95 647
q0 12 -12 12h-12q-12 0 -12 -12v-593q0 -12 12 -12h12q12 0 12 12v593z" />
    <glyph glyph-name="Odieresis" unicode="&#xd6;" 
d="M19 813h47v-63h-47v63zM91 813h47v-63h-47v63zM144 26q0 -11 -7.5 -18.5t-18.5 -7.5h-82q-11 0 -18.5 7.5t-7.5 18.5v648q0 11 7.5 18.5t18.5 7.5h82q11 0 18.5 -7.5t7.5 -18.5v-648zM95 647q0 12 -12 12h-11q-13 0 -13 -12v-593q0 -12 13 -12h11q12 0 12 12v593z" />
    <glyph glyph-name="multiply" unicode="&#xd7;" horiz-adv-x="222" 
d="M8 211l68 68l-63 63l34 35l64 -63l63 64l35 -35l-64 -64l68 -68l-34 -35l-68 69l-68 -68z" />
    <glyph glyph-name="Oslash" unicode="&#xd8;" 
d="M14 12q-4 8 -4 14v648q0 11 7.5 18.5t18.5 7.5h65l1 10h42l-3 -22q4 -8 4 -14v-648q0 -11 -7.5 -18.5t-18.5 -7.5h-65l-1 -10h-42zM92 648q0 11 -9 11h-12q-12 0 -12 -12v-331zM62 51q0 -5 3 -7.5t6 -2.5h12q12 0 12 12v331z" />
    <glyph glyph-name="Ugrave" unicode="&#xd9;" 
d="M89 738l-73 84h62l50 -84h-39zM144 26q0 -11 -7.5 -18.5t-18.5 -7.5h-82q-11 0 -18.5 7.5t-7.5 18.5v673h49v-646q0 -12 12 -12h12q12 0 12 12v646h49v-673z" />
    <glyph glyph-name="Uacute" unicode="&#xda;" 
d="M60 738h-39l51 84h61zM144 26q0 -11 -7.5 -18.5t-18.5 -7.5h-82q-11 0 -18.5 7.5t-7.5 18.5v673h49v-646q0 -12 12 -12h12q12 0 12 12v646h49v-673z" />
    <glyph glyph-name="Ucircumflex" unicode="&#xdb;" 
d="M63 738h-52l49 84h35l49 -84h-52l-15 65zM144 26q0 -11 -7.5 -18.5t-18.5 -7.5h-82q-11 0 -18.5 7.5t-7.5 18.5v673h49v-646q0 -12 12 -12h12q12 0 12 12v646h49v-673z" />
    <glyph glyph-name="Udieresis" unicode="&#xdc;" 
d="M63 813v-63h-47v63h47zM136 813v-63h-47v63h47zM144 26q0 -11 -7 -18.5t-18 -7.5h-83q-11 0 -18.5 7.5t-7.5 18.5v673h49v-645q0 -12 13 -12h11q12 0 12 12v645h49v-673z" />
    <glyph glyph-name="Yacute" unicode="&#xdd;" horiz-adv-x="156" 
d="M136 822l-73 -84h-39l50 84h62zM79 316l23 384h46l-46 -509v-192h-49v192l-44 509h46l22 -384h2z" />
    <glyph glyph-name="Thorn" unicode="&#xde;" 
d="M144 146q0 -11 -7.5 -18.5t-18.5 -7.5h-59v-120h-49v700h49v-119h59q11 0 18.5 -7.5t7.5 -18.5v-409zM95 528q0 12 -12 12h-24v-379h24q12 0 12 12v355z" />
    <glyph glyph-name="germandbls" unicode="&#xdf;" horiz-adv-x="229" 
d="M10 617q0 37 24 61t61 24q38 0 62.5 -24t24.5 -61v-59q0 -24 -14 -41l-35 -47q-10 -12 2 -22l64 -72q16 -19 16 -45v-305q0 -11 -7.5 -18.5t-17.5 -7.5h-83q-11 0 -18.5 7.5t-7.5 18.5v177h49v-150q0 -12 12 -12h12q12 0 12 12v275q0 26 -16 45l-60 68q-14 16 -1 36
l34 49q5 6 7.5 14.5t2.5 16.5v68q0 16 -10.5 26t-25.5 10q-17 0 -27.5 -10t-10.5 -26v-625h-49v617z" />
    <glyph glyph-name="agrave" unicode="&#xe0;" horiz-adv-x="155" 
d="M130 558h-39l-74 84h62zM10 275q0 11 7.5 18.5t18.5 7.5h60v167q0 12 -12 12h-13q-12 0 -12 -12v-131h-49v158q0 11 7.5 18.5t18.5 7.5h83q11 0 18.5 -7.5t7.5 -18.5v-494h-109q-11 0 -18.5 7.5t-7.5 18.5v248zM96 42v218h-25q-12 0 -12 -12v-194q0 -12 12 -12h25z" />
    <glyph glyph-name="aacute" unicode="&#xe1;" horiz-adv-x="155" 
d="M135 642l-74 -84h-39l51 84h62zM10 275q0 11 7.5 18.5t18.5 7.5h60v167q0 12 -12 12h-13q-12 0 -12 -12v-131h-49v158q0 11 7.5 18.5t18.5 7.5h83q11 0 18.5 -7.5t7.5 -18.5v-494h-109q-11 0 -18.5 7.5t-7.5 18.5v248zM96 42v218h-25q-12 0 -12 -12v-194q0 -12 12 -12h25
z" />
    <glyph glyph-name="acircumflex" unicode="&#xe2;" horiz-adv-x="155" 
d="M79 623l-15 -65h-52l49 84h35l49 -84h-52zM10 275q0 11 7.5 18.5t18.5 7.5h60v167q0 12 -12 12h-13q-12 0 -12 -12v-131h-49v158q0 11 7.5 18.5t18.5 7.5h83q11 0 18.5 -7.5t7.5 -18.5v-494h-109q-11 0 -18.5 7.5t-7.5 18.5v248zM96 42v218h-25q-12 0 -12 -12v-194
q0 -12 12 -12h25z" />
    <glyph glyph-name="atilde" unicode="&#xe3;" horiz-adv-x="155" 
d="M138 645q0 -83 -37 -83q-20 0 -32 24q-8 19 -19 19q-17 0 -19 -39h-13q0 83 36 83q21 0 32 -24q8 -19 19 -19q19 0 20 39h13zM10 275q0 11 7.5 18.5t18.5 7.5h60v167q0 12 -12 12h-13q-12 0 -12 -12v-131h-49v158q0 11 7.5 18.5t18.5 7.5h84q11 0 18 -7.5t7 -18.5v-494
h-109q-11 0 -18.5 7.5t-7.5 18.5v248zM96 42v218h-25q-12 0 -12 -12v-194q0 -12 12 -12h25z" />
    <glyph glyph-name="adieresis" unicode="&#xe4;" horiz-adv-x="155" 
d="M17 633h47v-63h-47v63zM90 633h47v-63h-47v63zM10 275q0 11 7.5 18.5t18.5 7.5h60v167q0 12 -12 12h-13q-12 0 -12 -12v-131h-49v158q0 11 7.5 18.5t18.5 7.5h83q11 0 18.5 -7.5t7.5 -18.5v-494h-109q-11 0 -18.5 7.5t-7.5 18.5v248zM96 42v218h-25q-12 0 -12 -12v-194
q0 -12 12 -12h25z" />
    <glyph glyph-name="aring" unicode="&#xe5;" horiz-adv-x="155" 
d="M17 601q0 25 17 42.5t43 17.5q25 0 42.5 -17.5t17.5 -42.5t-17.5 -42t-42.5 -17q-26 0 -43 17t-17 42zM51 601q0 -11 7.5 -18t18.5 -7t18 7t7 18t-7 18.5t-18 7.5t-18.5 -7.5t-7.5 -18.5zM10 275q0 11 7.5 18.5t18.5 7.5h60v167q0 12 -12 12h-13q-12 0 -12 -12v-131h-49
v158q0 11 7.5 18.5t18.5 7.5h83q11 0 18.5 -7.5t7.5 -18.5v-494h-109q-11 0 -18.5 7.5t-7.5 18.5v248zM96 42v218h-25q-12 0 -12 -12v-194q0 -12 12 -12h25z" />
    <glyph glyph-name="ae" unicode="&#xe6;" horiz-adv-x="241" 
d="M10 257q0 11 7.5 18.5t18.5 7.5h60v184q0 12 -12 12h-13q-12 0 -12 -12v-130h-49v158q0 11 7.5 18t18.5 7h169q11 0 18.5 -7t7.5 -18v-227q0 -11 -7.5 -18.5t-18.5 -7.5h-60v-189q0 -12 12 -12h13q12 0 12 12v136h49v-163q0 -11 -7.5 -18.5t-18.5 -7.5h-169
q-11 0 -18.5 7.5t-7.5 18.5v231zM157 479q-12 0 -12 -12v-184h25q12 0 12 12v172q0 12 -12 12h-13zM96 41v201h-25q-12 0 -12 -12v-177q0 -12 12 -12h25z" />
    <glyph glyph-name="ccedilla" unicode="&#xe7;" horiz-adv-x="104" 
d="M99 41v-41h-31l-4 -12q38 -5 38 -34q0 -24 -21.5 -42t-59.5 -26v20q18 5 30 17t12 28q0 24 -28 24l11 25h-10q-11 0 -18.5 7.5t-7.5 18.5v468q0 11 7.5 18.5t18.5 7.5h63v-41h-28q-12 0 -12 -12v-414q0 -12 12 -12h28z" />
    <glyph glyph-name="egrave" unicode="&#xe8;" 
d="M129 558h-39l-73 84h62zM145 251q0 -11 -7.5 -18.5t-18.5 -7.5h-60v-172q0 -12 12 -12h13q12 0 12 12v136h49v-163q0 -11 -7.5 -18.5t-18.5 -7.5h-83q-11 0 -18.5 7.5t-7.5 18.5v468q0 11 7.5 18.5t18.5 7.5h83q11 0 18.5 -7.5t7.5 -18.5v-243zM71 479q-12 0 -12 -12
v-201h25q12 0 12 12v189q0 12 -12 12h-13z" />
    <glyph glyph-name="eacute" unicode="&#xe9;" 
d="M134 642l-73 -84h-39l50 84h62zM145 251q0 -11 -7.5 -18.5t-18.5 -7.5h-60v-172q0 -12 12 -12h13q12 0 12 12v136h49v-163q0 -11 -7.5 -18.5t-18.5 -7.5h-83q-11 0 -18.5 7.5t-7.5 18.5v468q0 11 7.5 18.5t18.5 7.5h83q11 0 18.5 -7.5t7.5 -18.5v-243zM71 479
q-12 0 -12 -12v-201h25q12 0 12 12v189q0 12 -12 12h-13z" />
    <glyph glyph-name="ecircumflex" unicode="&#xea;" 
d="M78 623l-15 -65h-52l49 84h36l49 -84h-53zM145 251q0 -11 -7.5 -18.5t-18.5 -7.5h-60v-172q0 -12 12 -12h13q12 0 12 12v136h49v-163q0 -11 -7.5 -18.5t-18.5 -7.5h-83q-11 0 -18.5 7.5t-7.5 18.5v468q0 11 7.5 18.5t18.5 7.5h83q11 0 18.5 -7.5t7.5 -18.5v-243zM71 479
q-12 0 -12 -12v-201h25q12 0 12 12v189q0 12 -12 12h-13z" />
    <glyph glyph-name="edieresis" unicode="&#xeb;" 
d="M17 633h47v-63h-47v63zM89 633h47v-63h-47v63zM145 251q0 -11 -7.5 -18.5t-18.5 -7.5h-60v-172q0 -12 13 -12h12q12 0 12 12v136h49v-163q0 -11 -7.5 -18.5t-18.5 -7.5h-83q-11 0 -18.5 7.5t-7.5 18.5v468q0 11 7.5 18.5t18.5 7.5h83q11 0 18.5 -7.5t7.5 -18.5v-243z
M72 479q-13 0 -13 -12v-200h25q12 0 12 12v188q0 12 -12 12h-12z" />
    <glyph glyph-name="igrave" unicode="&#xec;" horiz-adv-x="69" 
d="M87 558h-39l-73 84h61zM59 520v-520h-49v520h49z" />
    <glyph glyph-name="iacute" unicode="&#xed;" horiz-adv-x="69" 
d="M92 642l-73 -84h-39l50 84h62zM59 520v-520h-49v520h49z" />
    <glyph glyph-name="icircumflex" unicode="&#xee;" horiz-adv-x="69" 
d="M36 623l-14 -65h-53l50 84h34l49 -84h-52zM59 520v-520h-49v520h49z" />
    <glyph glyph-name="idieresis" unicode="&#xef;" horiz-adv-x="69" 
d="M-25 633h47v-63h-47v63zM47 633h47v-63h-47v63zM59 520v-520h-49v520h49z" />
    <glyph glyph-name="eth" unicode="&#xf0;" horiz-adv-x="155" 
d="M11 509l40 89l-36 102h49l15 -46l18 46h48l-45 -100l45 -123v-414q0 -29 -19 -48t-48 -19q-30 0 -49 18.5t-19 47.5v344q0 32 19.5 51.5t51.5 19.5h14l-23 68l-14 -36h-47zM81 436q-9 0 -15.5 -6.5t-6.5 -15.5v-359q0 -8 5 -12.5t13 -4.5t13 5t5 13v380h-14z" />
    <glyph glyph-name="ntilde" unicode="&#xf1;" 
d="M138 645q0 -83 -38 -83q-20 0 -31 24q-8 19 -19 19q-17 0 -19 -39h-13q0 83 36 83q21 0 31 -24q8 -19 20 -19q19 0 20 39h13zM10 521h109q11 0 18 -7.5t7 -18.5v-494h-49v463q0 12 -12 12h-24v-475h-49v520z" />
    <glyph glyph-name="ograve" unicode="&#xf2;" horiz-adv-x="155" 
d="M130 558h-39l-74 84h62zM145 26q0 -11 -7.5 -18.5t-18.5 -7.5h-83q-11 0 -18.5 7.5t-7.5 18.5v468q0 11 7.5 18.5t18.5 7.5h83q11 0 18.5 -7.5t7.5 -18.5v-468zM96 467q0 12 -12 12h-13q-12 0 -12 -12v-414q0 -12 12 -12h13q12 0 12 12v414z" />
    <glyph glyph-name="oacute" unicode="&#xf3;" horiz-adv-x="155" 
d="M135 642l-74 -84h-39l51 84h62zM145 26q0 -11 -7.5 -18.5t-18.5 -7.5h-83q-11 0 -18.5 7.5t-7.5 18.5v468q0 11 7.5 18.5t18.5 7.5h83q11 0 18.5 -7.5t7.5 -18.5v-468zM96 467q0 12 -12 12h-13q-12 0 -12 -12v-414q0 -12 12 -12h13q12 0 12 12v414z" />
    <glyph glyph-name="ocircumflex" unicode="&#xf4;" horiz-adv-x="155" 
d="M79 623l-15 -65h-52l49 84h35l49 -84h-52zM145 26q0 -11 -7.5 -18.5t-18.5 -7.5h-83q-11 0 -18.5 7.5t-7.5 18.5v468q0 11 7.5 18.5t18.5 7.5h83q11 0 18.5 -7.5t7.5 -18.5v-468zM96 467q0 12 -12 12h-13q-12 0 -12 -12v-414q0 -12 12 -12h13q12 0 12 12v414z" />
    <glyph glyph-name="otilde" unicode="&#xf5;" horiz-adv-x="155" 
d="M138 645q0 -83 -37 -83q-20 0 -32 24q-8 19 -19 19q-17 0 -19 -39h-13q0 83 36 83q21 0 32 -24q8 -19 19 -19q19 0 20 39h13zM145 27q0 -11 -7 -18.5t-18 -7.5h-84q-11 0 -18.5 7.5t-7.5 18.5v468q0 11 7.5 18.5t18.5 7.5h84q11 0 18 -7.5t7 -18.5v-468zM96 467
q0 12 -12 12h-13q-12 0 -12 -12v-413q0 -12 12 -12h13q12 0 12 12v413z" />
    <glyph glyph-name="odieresis" unicode="&#xf6;" horiz-adv-x="155" 
d="M17 633h47v-63h-47v63zM90 633h47v-63h-47v63zM145 26q0 -11 -7.5 -18.5t-18.5 -7.5h-83q-11 0 -18.5 7.5t-7.5 18.5v468q0 11 7.5 18.5t18.5 7.5h83q11 0 18.5 -7.5t7.5 -18.5v-468zM96 467q0 12 -12 12h-13q-12 0 -12 -12v-413q0 -12 12 -12h13q12 0 12 12v413z" />
    <glyph glyph-name="divide" unicode="&#xf7;" horiz-adv-x="189" 
d="M67 374h53v-50h-53v50zM4 302h182v-49h-182v49zM67 232h53v-50h-53v50z" />
    <glyph glyph-name="oslash" unicode="&#xf8;" 
d="M144 26q0 -11 -7.5 -18.5t-18.5 -7.5h-82q-4 0 -10 2l-3 -12h-12l5 20q-6 8 -6 16v468q0 11 7.5 18.5t18.5 7.5h82q4 0 10 -2l3 12h12l-5 -20q6 -7 6 -16v-468zM95 400v67q0 12 -12 12h-12q-12 0 -12 -12v-283zM95 332l-36 -216v-63q0 -12 12 -12h12q12 0 12 12v279z" />
    <glyph glyph-name="ugrave" unicode="&#xf9;" 
d="M129 558h-39l-73 84h62zM144 0h-108q-11 0 -18.5 7.5t-7.5 18.5v494h49v-463q0 -12 12 -12h24v475h49v-520z" />
    <glyph glyph-name="uacute" unicode="&#xfa;" 
d="M134 642l-73 -84h-39l50 84h62zM144 0h-108q-11 0 -18.5 7.5t-7.5 18.5v494h49v-463q0 -12 12 -12h24v475h49v-520z" />
    <glyph glyph-name="ucircumflex" unicode="&#xfb;" 
d="M78 623l-15 -65h-52l49 84h35l49 -84h-52zM144 0h-108q-11 0 -18.5 7.5t-7.5 18.5v494h49v-463q0 -12 12 -12h24v475h49v-520z" />
    <glyph glyph-name="udieresis" unicode="&#xfc;" 
d="M17 633h47v-63h-47v63zM90 633h47v-63h-47v63zM144 0h-108q-11 0 -18.5 7.5t-7.5 18.5v494h49v-463q0 -12 13 -12h23v475h49v-520z" />
    <glyph glyph-name="yacute" unicode="&#xfd;" 
d="M73 642h62l-74 -84h-39zM10 520h49v-467q0 -12 12 -12h25v479h49v-657q0 -11 -7.5 -18.5t-18.5 -7.5h-83q-11 0 -18.5 7.5t-7.5 18.5v97h49v-70q0 -12 12 -12h13q12 0 12 12v110h-60q-11 0 -18.5 7.5t-7.5 18.5v494z" />
    <glyph glyph-name="thorn" unicode="&#xfe;" 
d="M59 -163h-49v878h49v-195h59q11 0 18.5 -7.5t7.5 -18.5v-468q0 -11 -7.5 -18.5t-18.5 -7.5h-59v-163zM83 41q12 0 12 12v414q0 12 -12 12h-24v-438h24z" />
    <glyph glyph-name="ydieresis" unicode="&#xff;" 
d="M17 633h47v-63h-47v63zM90 633h47v-63h-47v63zM10 520h49v-467q0 -12 12 -12h25v479h49v-657q0 -11 -7.5 -18.5t-18.5 -7.5h-83q-11 0 -18.5 7.5t-7.5 18.5v97h49v-70q0 -12 12 -12h13q12 0 12 12v110h-60q-11 0 -18.5 7.5t-7.5 18.5v494z" />
    <glyph glyph-name="Dcroat" unicode="&#x110;" horiz-adv-x="156" 
d="M146 25q0 -11 -7.5 -18.5t-18.5 -7.5h-108v326h-15v49h15v326h108q11 0 18.5 -7.5t7.5 -18.5v-649zM97 647q0 12 -12 12h-24v-285h21v-49h-21v-284h24q12 0 12 12v594z" />
    <glyph glyph-name="dcroat" unicode="&#x111;" 
d="M10 494q0 11 7.5 18.5t18.5 7.5h59v55h-38v49h38v100h49v-100h13v-49h-13v-575h-108q-11 0 -18.5 7.5t-7.5 18.5v468zM59 53q0 -12 12 -12h24v438h-24q-12 0 -12 -12v-414z" />
    <glyph glyph-name="dotlessi" unicode="&#x131;" horiz-adv-x="69" 
d="M59 520v-520h-49v520h49z" />
    <glyph glyph-name="Lslash" unicode="&#x141;" horiz-adv-x="108" 
d="M10 299l-13 -12v55l13 12v346h50v-306l16 14v-55l-16 -14v-298h39v-41h-89v299z" />
    <glyph glyph-name="lslash" unicode="&#x142;" horiz-adv-x="89" 
d="M20 301l-15 -14v55l15 14v367h49v-328l15 13v-55l-15 -13v-340h-49v301z" />
    <glyph glyph-name="OE" unicode="&#x152;" horiz-adv-x="189" 
d="M36 0q-11 0 -18.5 7.5t-7.5 18.5v648q0 11 7.5 18.5t18.5 7.5h148v-41h-40v-288h40v-42h-40v-288h40v-41h-148zM95 647q0 12 -12 12h-12q-12 0 -12 -12v-594q0 -12 12 -12h12q12 0 12 12v594z" />
    <glyph glyph-name="oe" unicode="&#x153;" horiz-adv-x="239" 
d="M36 0q-11 0 -18.5 7.5t-7.5 18.5v468q0 11 7.5 18.5t18.5 7.5h168q11 0 18.5 -7.5t7.5 -18.5v-243q0 -11 -7.5 -18.5t-18.5 -7.5h-60v-172q0 -12 12 -12h13q12 0 12 12v136h49v-163q0 -11 -7.5 -18.5t-18.5 -7.5h-168zM83 41q12 0 12 12v414q0 12 -12 12h-12
q-12 0 -12 -12v-414q0 -12 12 -12h12zM169 267q12 0 12 12v188q0 12 -12 12h-13q-12 0 -12 -12v-200h25z" />
    <glyph glyph-name="Scaron" unicode="&#x160;" horiz-adv-x="155" 
d="M95 738h-35l-49 84h52l15 -65l14 65h52zM42 329q-14 0 -23 9t-9 23v313q0 11 7.5 18.5t18.5 7.5h83q11 0 18.5 -7.5t7.5 -18.5v-286h-49v259q0 12 -12 12h-13q-12 0 -12 -12v-265q0 -12 12 -12h42q14 0 23 -9t9 -23v-312q0 -11 -7.5 -18.5t-18.5 -7.5h-83
q-11 0 -18.5 7.5t-7.5 18.5v285h49v-258q0 -12 12 -12h13q12 0 12 12v264q0 12 -12 12h-42z" />
    <glyph glyph-name="scaron" unicode="&#x161;" 
d="M94 558h-35l-49 84h52l15 -65l14 65h52zM42 321q-14 0 -23 9t-9 23v141q0 11 7.5 18.5t18.5 7.5h83q11 0 18.5 -7.5t7.5 -18.5v-114h-49v87q0 12 -12 12h-13q-12 0 -12 -12v-93q0 -12 12 -12h42q14 0 23 -9t9 -23v-304q0 -11 -7.5 -18.5t-18.5 -7.5h-83q-11 0 -18.5 7.5
t-7.5 18.5v277h49v-249q0 -12 12 -12h13q12 0 12 12v255q0 12 -12 12h-42z" />
    <glyph glyph-name="Ydieresis" unicode="&#x178;" horiz-adv-x="156" 
d="M18 813h47v-63h-47v63zM91 813h47v-63h-47v63zM79 316l23 384h46l-46 -508v-193h-49v193l-45 508h47l22 -384h2z" />
    <glyph glyph-name="Zcaron" unicode="&#x17d;" horiz-adv-x="117" 
d="M125 822l-49 -84h-35l-49 84h52l15 -65l14 65h52zM5 41l61 618h-61v41h107v-41l-61 -618h61v-41h-107v41z" />
    <glyph glyph-name="zcaron" unicode="&#x17e;" horiz-adv-x="121" 
d="M127 642l-49 -84h-35l-49 84h52l15 -65l14 65h52zM7 41l61 438h-61v41h107v-41l-61 -438h61v-41h-107v41z" />
    <glyph glyph-name="florin" unicode="&#x192;" horiz-adv-x="148" 
d="M55 479h-40v41h40v178q0 11 7.5 18.5t18.5 7.5h62v-41h-27q-12 0 -12 -12v-151h39v-41h-39v-423q0 -83 -39 -138t-106 -88v42q47 28 71.5 73t24.5 117v417z" />
    <glyph glyph-name="circumflex" unicode="&#x2c6;" horiz-adv-x="153" 
d="M77 623l-15 -65h-52l49 84h35l49 -84h-52z" />
    <glyph glyph-name="caron" unicode="&#x2c7;" horiz-adv-x="158" 
d="M146 642l-49 -84h-35l-49 84h52l15 -65l14 65h52z" />
    <glyph glyph-name="breve" unicode="&#x2d8;" horiz-adv-x="145" 
d="M72 561q-29 0 -45.5 21.5t-16.5 63.5h21q0 -21 11 -31.5t30 -10.5t30.5 10.5t11.5 31.5h21q0 -41 -17 -63t-46 -22z" />
    <glyph glyph-name="dotaccent" unicode="&#x2d9;" horiz-adv-x="71" 
d="M10 633h51v-63h-51v63z" />
    <glyph glyph-name="ring" unicode="&#x2da;" horiz-adv-x="146" 
d="M13 601q0 25 17.5 42.5t43.5 17.5q25 0 42 -17.5t17 -42.5t-17 -42t-42 -17q-26 0 -43.5 17t-17.5 42zM47 601q0 -11 8 -18t19 -7t18 7t7 18t-7 18.5t-18 7.5t-19 -7.5t-8 -18.5z" />
    <glyph glyph-name="ogonek" unicode="&#x2db;" horiz-adv-x="101" 
d="M98 3v-1q-23 -16 -31.5 -28.5t-8.5 -29.5q0 -37 34 -56h-46q-36 13 -36 50q0 20 12.5 35.5t40.5 29.5h35z" />
    <glyph glyph-name="tilde" unicode="&#x2dc;" horiz-adv-x="140" 
d="M130 645q0 -83 -37 -83q-20 0 -31 24q-8 19 -20 19q-17 0 -19 -39h-13q0 83 37 83q21 0 31 -24q8 -19 20 -19q18 0 19 39h13z" />
    <glyph glyph-name="hungarumlaut" unicode="&#x2dd;" horiz-adv-x="198" 
d="M119 642l-73 -84h-36l51 84h58zM188 642l-73 -84h-36l51 84h58z" />
    <glyph glyph-name="uni03BC" unicode="&#x3bc;" horiz-adv-x="272" 
d="M10 532h49v-259q0 -105 14 -168t37 -63q17 0 33.5 36t30 100.5t23.5 152.5t16 192v9h49v-532h-49v195q-18 -97 -44 -152t-55 -55q-14 0 -28.5 15.5t-26.5 43.5v-247h-49v732z" />
    <glyph glyph-name="endash" unicode="&#x2013;" horiz-adv-x="407" 
d="M5 304h397v-49h-397v49z" />
    <glyph glyph-name="emdash" unicode="&#x2014;" horiz-adv-x="710" 
d="M5 304h700v-49h-700v49z" />
    <glyph glyph-name="quoteleft" unicode="&#x2018;" horiz-adv-x="91" 
d="M40 700h42l-24 -131h-50z" />
    <glyph glyph-name="quoteright" unicode="&#x2019;" horiz-adv-x="91" 
d="M32 700h50l-32 -131h-42z" />
    <glyph glyph-name="quotesinglbase" unicode="&#x201a;" horiz-adv-x="91" 
d="M32 63h50l-32 -131h-42z" />
    <glyph glyph-name="quotedblleft" unicode="&#x201c;" horiz-adv-x="170" 
d="M120 700h42l-24 -131h-50zM40 700h42l-24 -131h-50z" />
    <glyph glyph-name="quotedblright" unicode="&#x201d;" horiz-adv-x="170" 
d="M112 700h50l-32 -131h-42zM32 700h50l-32 -131h-42z" />
    <glyph glyph-name="quotedblbase" unicode="&#x201e;" horiz-adv-x="170" 
d="M32 63h50l-32 -131h-42zM112 63h50l-32 -131h-42z" />
    <glyph glyph-name="dagger" unicode="&#x2020;" horiz-adv-x="195" 
d="M73 521h-70v41h70v176h49v-176h70v-41h-70v-521h-49v521z" />
    <glyph glyph-name="daggerdbl" unicode="&#x2021;" horiz-adv-x="199" 
d="M5 562h70v176h49v-176h70v-41h-70v-302h70v-41h-70v-178h-49v178h-70v41h70v302h-70v41z" />
    <glyph glyph-name="bullet" unicode="&#x2022;" horiz-adv-x="162" 
d="M10 363q0 29 21 49.5t50 20.5t50 -20.5t21 -49.5t-21 -50t-50 -21t-50 21t-21 50z" />
    <glyph glyph-name="ellipsis" unicode="&#x2026;" horiz-adv-x="213" 
d="M10 63h51v-63h-51v63zM81 63h51v-63h-51v63zM152 63h51v-63h-51v63z" />
    <glyph glyph-name="perthousand" unicode="&#x2030;" horiz-adv-x="532" 
d="M144 361q0 -28 -19.5 -47.5t-48.5 -19.5q-27 0 -46.5 19.5t-19.5 47.5v277q0 27 19.5 46.5t48.5 19.5q28 0 47 -19.5t19 -46.5v-277zM267 700h50l-210 -700h-49zM95 645q0 8 -5 13t-13 5t-13 -5t-5 -13v-291q0 -8 5 -13t13 -5t13 5t5 13v291zM364 62q0 -27 -19.5 -46.5
t-48.5 -19.5q-27 0 -46.5 19.5t-19.5 46.5v278q0 27 19.5 46.5t48.5 19.5q28 0 47 -19.5t19 -46.5v-278zM522 62q0 -27 -19.5 -46.5t-48.5 -19.5q-27 0 -46.5 19.5t-19.5 46.5v278q0 27 19.5 46.5t48.5 19.5q28 0 47 -19.5t19 -46.5v-278zM315 347q0 8 -5 13t-13 5t-13 -5
t-5 -13v-292q0 -8 5 -13t13 -5t13 5t5 13v292zM473 347q0 8 -5 13t-13 5t-13 -5t-5 -13v-292q0 -8 5 -13t13 -5t13 5t5 13v292z" />
    <glyph glyph-name="guilsinglleft" unicode="&#x2039;" horiz-adv-x="143" 
d="M5 268l82 183h51l-82 -183l82 -183h-51z" />
    <glyph glyph-name="guilsinglright" unicode="&#x203a;" horiz-adv-x="143" 
d="M5 85l82 183l-82 183h51l82 -183l-82 -183h-51z" />
    <glyph glyph-name="fraction" unicode="&#x2044;" horiz-adv-x="279" 
d="M219 700h50l-209 -700h-50z" />
    <glyph glyph-name="Euro" unicode="&#x20ac;" horiz-adv-x="169" 
d="M114 41v95h49v-136h-108q-11 0 -18.5 7.5t-7.5 18.5v274h-23l10 42h13v19h-23l10 42h13v271q0 11 7.5 18.5t18.5 7.5h108v-136h-49v95h-24q-12 0 -12 -12v-244h61l-10 -42h-51v-19h45l-10 -42h-35v-247q0 -12 12 -12h24z" />
    <glyph glyph-name="trademark" unicode="&#x2122;" horiz-adv-x="301" 
d="M45 659h-40v41h129v-41h-40v-244h-49v244zM149 700h39l32 -116l31 116h39v-285h-49v129l-21 -88l-22 88v-129h-49v285z" />
    <glyph glyph-name="minus" unicode="&#x2212;" horiz-adv-x="202" 
d="M10 302h182v-49h-182v49z" />
    <glyph glyph-name="uniE01A" unicode="&#xe01a;" horiz-adv-x="264" 
d="M10 674q0 11 7.5 18.5t18.5 7.5h192q11 0 18.5 -7.5t7.5 -18.5v-674h-50v215h-145v-215h-49v674zM59 256h145v391q0 12 -12 12h-121q-12 0 -12 -12v-391z" />
    <glyph glyph-name="uniE01C" unicode="&#xe01c;" horiz-adv-x="264" 
d="M254 375q0 -8 -5.5 -15.5t-13.5 -9.5q8 -2 13.5 -9.5t5.5 -15.5v-299q0 -11 -7.5 -18.5t-18.5 -7.5h-218v700h218q11 0 18.5 -7.5t7.5 -18.5v-299zM204 647q0 12 -12 12h-133v-288h133q12 0 12 12v264zM204 317q0 12 -12 12h-133v-288h133q12 0 12 12v264z" />
    <glyph glyph-name="uniE01D" unicode="&#xe01d;" horiz-adv-x="264" 
d="M204 41v256h50v-297h-218q-11 0 -18.5 7.5t-7.5 18.5v648q0 11 7.5 18.5t18.5 7.5h218v-297h-50v256h-133q-12 0 -12 -12v-594q0 -12 12 -12h133z" />
    <glyph glyph-name="uniE01E" unicode="&#xe01e;" horiz-adv-x="264" 
d="M254 26q0 -11 -7.5 -18.5t-18.5 -7.5h-218v700h218q11 0 18.5 -7.5t7.5 -18.5v-648zM204 647q0 12 -12 12h-133v-618h133q12 0 12 12v594z" />
    <glyph glyph-name="uniE01F" unicode="&#xe01f;" horiz-adv-x="244" 
d="M10 700h229v-41h-180v-288h180v-42h-180v-288h180v-41h-229v700z" />
    <glyph glyph-name="uniE025" unicode="&#xe025;" horiz-adv-x="241" 
d="M10 700h226v-41h-177v-288h177v-42h-177v-329h-49v700z" />
    <glyph glyph-name="uniE026" unicode="&#xe026;" horiz-adv-x="264" 
d="M10 674q0 11 7.5 18.5t18.5 7.5h218v-298h-50v257h-133q-12 0 -12 -12v-594q0 -12 12 -12h133v284h-22v41h72v-366h-218q-11 0 -18.5 7.5t-7.5 18.5v648z" />
    <glyph glyph-name="uniE027" unicode="&#xe027;" horiz-adv-x="264" 
d="M10 700h49v-327h145v327h50v-701h-50v332h-145v-332h-49v701z" />
    <glyph glyph-name="uniE029" unicode="&#xe029;" horiz-adv-x="245" 
d="M5 0v41h169q12 0 12 12v606h-181v41h230v-674q0 -11 -7.5 -18.5t-18.5 -7.5h-204z" />
    <glyph glyph-name="uniE02A" unicode="&#xe02a;" horiz-adv-x="269" 
d="M107 350l157 -350h-52l-148 329h-5v-329h-49v700h49v-329h5l148 329h52z" />
    <glyph glyph-name="uniE02B" unicode="&#xe02b;" horiz-adv-x="231" 
d="M10 700h49v-659h167v-41h-216v700z" />
    <glyph glyph-name="uniE02C" unicode="&#xe02c;" horiz-adv-x="266" 
d="M10 700h40l83 -159l84 159h39v-700h-49v592l-74 -136l-74 136v-592h-49v700z" />
    <glyph glyph-name="uniE02D" unicode="&#xe02d;" horiz-adv-x="264" 
d="M254 0h-50v454l-145 172v-626h-49v700h47l147 -174v174h50v-700z" />
    <glyph glyph-name="uniE02E" unicode="&#xe02e;" horiz-adv-x="263" 
d="M253 26q0 -11 -7.5 -18.5t-18.5 -7.5h-191q-11 0 -18.5 7.5t-7.5 18.5v648q0 11 7.5 18.5t18.5 7.5h191q11 0 18.5 -7.5t7.5 -18.5v-648zM204 647q0 12 -12 12h-121q-12 0 -12 -12v-594q0 -12 12 -12h121q12 0 12 12v594z" />
    <glyph glyph-name="uniE02F" unicode="&#xe02f;" horiz-adv-x="263" 
d="M253 265q0 -11 -7.5 -18.5t-18.5 -7.5h-168v-239h-49v700h217q11 0 18.5 -7.5t7.5 -18.5v-409zM204 647q0 12 -12 12h-133v-379h133q12 0 12 12v355z" />
    <glyph glyph-name="uniE034" unicode="&#xe034;" horiz-adv-x="263" 
d="M36 0q-11 0 -18.5 7.5t-7.5 18.5v648q0 11 7.5 18.5t18.5 7.5h191q11 0 18.5 -7.5t7.5 -18.5v-648q0 -11 -7.5 -18.5t-18.5 -7.5h-71l26 -61h-47l-26 61h-73zM204 647q0 12 -12 12h-121q-12 0 -12 -12v-594q0 -12 12 -12h121q12 0 12 12v594z" />
    <glyph glyph-name="uniE035" unicode="&#xe035;" horiz-adv-x="258" 
d="M198 0v287q0 12 -12 12h-127v-299h-49v700h212q11 0 18.5 -7.5t7.5 -18.5v-329q0 -8 -6 -15.5t-14 -9.5q8 -2 14 -9.5t6 -15.5v-295h-50zM198 647q0 12 -12 12h-127v-318h127q12 0 12 12v294z" />
    <glyph glyph-name="uniE036" unicode="&#xe036;" horiz-adv-x="264" 
d="M42 329q-14 0 -23 9t-9 23v313q0 11 7.5 18.5t18.5 7.5h192q11 0 18.5 -7.5t7.5 -18.5v-285h-50v258q0 12 -12 12h-121q-12 0 -12 -12v-264q0 -12 12 -12h151q14 0 23 -9t9 -23v-313q0 -11 -7.5 -18.5t-18.5 -7.5h-192q-11 0 -18.5 7.5t-7.5 18.5v285h49v-258
q0 -12 12 -12h121q12 0 12 12v264q0 12 -12 12h-150z" />
    <glyph glyph-name="uniE037" unicode="&#xe037;" horiz-adv-x="267" 
d="M109 659h-104v41h257v-41h-104v-659h-49v659z" />
    <glyph glyph-name="uniE038" unicode="&#xe038;" horiz-adv-x="263" 
d="M255 26q0 -11 -7.5 -18.5t-18.5 -7.5h-193q-11 0 -18.5 7.5t-7.5 18.5v674h49v-647q0 -12 12 -12h123q12 0 12 12v647h49v-674z" />
    <glyph glyph-name="uniE039" unicode="&#xe039;" horiz-adv-x="268" 
d="M263 700l-89 -700h-80l-89 700h47l81 -629h2l81 629h47z" />
    <glyph glyph-name="uniE03B" unicode="&#xe03b;" horiz-adv-x="266" 
d="M59 700v-591l74 135l74 -135v591h49v-700h-39l-84 159l-83 -159h-40v700h49z" />
    <glyph glyph-name="uniE03C" unicode="&#xe03c;" horiz-adv-x="268" 
d="M53 0h-48l93 348l-93 352h48l81 -302h2l79 302h48l-93 -352l93 -348h-48l-79 297h-2z" />
    <glyph glyph-name="uniE03D" unicode="&#xe03d;" horiz-adv-x="274" 
d="M138 310l81 390h47l-105 -509v-192h-49v192l-104 509h48l80 -390h2z" />
    <glyph glyph-name="uniE03E" unicode="&#xe03e;" horiz-adv-x="254" 
d="M5 41l194 618h-194v41h244v-41l-194 -618h194v-41h-244v41z" />
    <glyph glyph-name="uniE03F" unicode="&#xe03f;" horiz-adv-x="463" 
d="M10 674q0 11 7.5 18.5t18.5 7.5h391q11 0 18.5 -7.5t7.5 -18.5v-674h-50v215h-344v-215h-49v674zM59 256h344v391q0 12 -12 12h-320q-12 0 -12 -12v-391z" />
    <glyph glyph-name="uniE047" unicode="&#xe047;" horiz-adv-x="450" 
d="M440 375q0 -8 -5.5 -15.5t-13.5 -9.5q8 -2 13.5 -9.5t5.5 -15.5v-299q0 -11 -7.5 -18.5t-18.5 -7.5h-404v700h404q11 0 18.5 -7.5t7.5 -18.5v-299zM391 647q0 12 -12 12h-320v-288h320q12 0 12 12v264zM391 317q0 12 -12 12h-320v-288h320q12 0 12 12v264z" />
    <glyph glyph-name="uniE048" unicode="&#xe048;" horiz-adv-x="450" 
d="M391 41v256h49v-297h-404q-11 0 -18.5 7.5t-7.5 18.5v648q0 11 7.5 18.5t18.5 7.5h404v-297h-49v256h-320q-12 0 -12 -12v-594q0 -12 12 -12h320z" />
    <glyph glyph-name="uniE049" unicode="&#xe049;" horiz-adv-x="450" 
d="M440 26q0 -11 -7.5 -18.5t-18.5 -7.5h-404v700h404q11 0 18.5 -7.5t7.5 -18.5v-648zM391 647q0 12 -12 12h-320v-618h320q12 0 12 12v594z" />
    <glyph glyph-name="uniE04A" unicode="&#xe04a;" horiz-adv-x="429" 
d="M10 700h414v-41h-365v-288h365v-42h-365v-288h365v-41h-414v700z" />
    <glyph glyph-name="uniE04B" unicode="&#xe04b;" horiz-adv-x="429" 
d="M10 700h414v-41h-365v-288h365v-42h-365v-329h-49v700z" />
    <glyph glyph-name="uniE04C" unicode="&#xe04c;" horiz-adv-x="450" 
d="M10 674q0 11 7.5 18.5t18.5 7.5h404v-298h-49v257h-320q-12 0 -12 -12v-594q0 -12 12 -12h320v284h-22v41h71v-366h-404q-11 0 -18.5 7.5t-7.5 18.5v648z" />
    <glyph glyph-name="uniE04D" unicode="&#xe04d;" horiz-adv-x="450" 
d="M10 700h49v-327h332v327h49v-701h-49v332h-332v-332h-49v701z" />
    <glyph glyph-name="uniE04F" unicode="&#xe04f;" horiz-adv-x="450" 
d="M5 0v41h374q12 0 12 12v606h-386v41h435v-674q0 -11 -7.5 -18.5t-18.5 -7.5h-409z" />
    <glyph glyph-name="uniE050" unicode="&#xe050;" horiz-adv-x="450" 
d="M109 350l336 -350h-62l-319 329h-5v-329h-49v700h49v-329h5l319 329h62z" />
    <glyph glyph-name="uniE051" unicode="&#xe051;" horiz-adv-x="430" 
d="M10 700h49v-659h366v-41h-415v700z" />
    <glyph glyph-name="uniE05A" unicode="&#xe05a;" horiz-adv-x="456" 
d="M10 700h40l180 -175l177 175h39v-700h-49v622l-167 -166l-171 166v-622h-49v700z" />
    <glyph glyph-name="uniE05B" unicode="&#xe05b;" horiz-adv-x="450" 
d="M440 0h-49v454l-332 189v-643h-49v700h47l334 -190v190h49v-700z" />
    <glyph glyph-name="uniE05C" unicode="&#xe05c;" horiz-adv-x="450" 
d="M440 26q0 -11 -7.5 -18.5t-18.5 -7.5h-378q-11 0 -18.5 7.5t-7.5 18.5v648q0 11 7.5 18.5t18.5 7.5h378q11 0 18.5 -7.5t7.5 -18.5v-648zM391 647q0 12 -12 12h-308q-12 0 -12 -12v-594q0 -12 12 -12h308q12 0 12 12v594z" />
    <glyph glyph-name="uniE05D" unicode="&#xe05d;" horiz-adv-x="450" 
d="M440 265q0 -11 -7.5 -18.5t-18.5 -7.5h-355v-239h-49v700h404q11 0 18.5 -7.5t7.5 -18.5v-409zM391 647q0 12 -12 12h-320v-379h320q12 0 12 12v355z" />
    <glyph glyph-name="uniE05E" unicode="&#xe05e;" horiz-adv-x="450" 
d="M36 0q-11 0 -18.5 7.5t-7.5 18.5v648q0 11 7.5 18.5t18.5 7.5h378q11 0 18.5 -7.5t7.5 -18.5v-648q0 -11 -7.5 -18.5t-18.5 -7.5h-161l26 -61h-47l-26 61h-170zM391 647q0 12 -12 12h-308q-12 0 -12 -12v-594q0 -12 12 -12h308q12 0 12 12v594z" />
    <glyph glyph-name="uniE05F" unicode="&#xe05f;" horiz-adv-x="450" 
d="M391 0v287q0 12 -12 12h-320v-299h-49v700h404q11 0 18.5 -7.5t7.5 -18.5v-329q0 -8 -6 -15.5t-14 -9.5q8 -2 14 -9.5t6 -15.5v-295h-49zM391 647q0 12 -12 12h-320v-318h320q12 0 12 12v294z" />
    <glyph glyph-name="uniE06A" unicode="&#xe06a;" horiz-adv-x="450" 
d="M42 329q-14 0 -23 9t-9 23v313q0 11 7.5 18.5t18.5 7.5h378q11 0 18.5 -7.5t7.5 -18.5v-285h-49v258q0 12 -12 12h-308q-12 0 -12 -12v-264q0 -12 12 -12h337q14 0 23 -9t9 -23v-313q0 -11 -7.5 -18.5t-18.5 -7.5h-378q-11 0 -18.5 7.5t-7.5 18.5v285h49v-258
q0 -12 12 -12h308q12 0 12 12v264q0 12 -12 12h-337z" />
    <glyph glyph-name="uniE06B" unicode="&#xe06b;" horiz-adv-x="450" 
d="M200 659h-195v41h440v-41h-196v-659h-49v659z" />
    <glyph glyph-name="uniE06C" unicode="&#xe06c;" horiz-adv-x="450" 
d="M440 26q0 -11 -7.5 -18.5t-18.5 -7.5h-378q-11 0 -18.5 7.5t-7.5 18.5v673h49v-646q0 -12 12 -12h308q12 0 12 12v646h49v-673z" />
    <glyph glyph-name="uniE06D" unicode="&#xe06d;" horiz-adv-x="450" 
d="M445 700l-180 -700h-80l-180 700h49l170 -657h2l170 657h49z" />
    <glyph glyph-name="uniE06E" unicode="&#xe06e;" horiz-adv-x="450" 
d="M59 700v-622l171 166l167 -166v622h49v-700h-39l-177 175l-180 -175h-40v700h49z" />
    <glyph glyph-name="uniE06F" unicode="&#xe06f;" horiz-adv-x="450" 
d="M58 0h-53l185 348l-185 352h53l167 -315h2l165 315h53l-183 -352l183 -348h-53l-165 311h-2z" />
    <glyph glyph-name="uniE073" unicode="&#xe073;" horiz-adv-x="450" 
d="M226 267l168 433h51l-196 -509v-192h-49v192l-195 509h51l168 -433h2z" />
    <glyph glyph-name="uniE074" unicode="&#xe074;" horiz-adv-x="438" 
d="M5 41l372 618h-372v41h428v-41l-372 -618h372v-41h-428v41z" />
    </font>
</defs>
</svg>
