<?xml version="1.0" standalone="no"?>
<!DOCTYPE svg PUBLIC "-//W3C//DTD SVG 1.1//EN" "http://www.w3.org/Graphics/SVG/1.1/DTD/svg11.dtd" >
<svg xmlns="http://www.w3.org/2000/svg" xmlns:xlink="http://www.w3.org/1999/xlink" version="1.1">
<metadata>
Created by FontForge 20170731 at Tue Jul 11 12:14:06 2023
 By Aleksey,,,
Copyright (c) 2022 Sign Studio. All Right Reserved.
</metadata>
<defs>
<font id="Psilograph-Black" horiz-adv-x="471" >
  <font-face 
    font-family="Psilograph Black"
    font-weight="900"
    font-stretch="normal"
    units-per-em="2048"
    panose-1="0 0 0 0 0 0 0 0 0 0"
    ascent="1597"
    descent="-451"
    x-height="1065"
    cap-height="1434"
    bbox="-76 -410 1554 1767"
    underline-thickness="0"
    underline-position="0"
    unicode-range="U+000D-FB02"
  />
<missing-glyph horiz-adv-x="1044" 
d="M84 0v1434h874v-1434h-874zM518 809l297 496h-586zM178 223l291 494l-291 493v-987zM866 221v989l-293 -493zM229 131h586l-291 494z" />
    <glyph glyph-name="fi" unicode="fi" horiz-adv-x="499" 
d="M20 0v1430q0 22 16 37.5t38 15.5h190v-144h-35q-11 0 -17.5 -6.5t-6.5 -17.5v-250h59v-143h-59v-922h-185zM295 1309h184v-185h-184v185zM479 1065v-1065h-184v1065h184z" />
    <glyph glyph-name="fl" unicode="fl" horiz-adv-x="499" 
d="M20 0v1430q0 22 16 37.5t38 15.5h190v-144h-35q-11 0 -17.5 -6.5t-6.5 -17.5v-250h59v-143h-59v-922h-185zM479 0h-184v1483h184v-1483z" />
    <glyph glyph-name=".notdef" horiz-adv-x="1044" 
d="M84 0v1434h874v-1434h-874zM518 809l297 496h-586zM178 223l291 494l-291 493v-987zM866 221v989l-293 -493zM229 131h586l-291 494z" />
    <glyph glyph-name="uni0000" horiz-adv-x="0" 
 />
    <glyph glyph-name="uni0000" horiz-adv-x="0" 
 />
    <glyph glyph-name="uni000D" unicode="&#xd;" horiz-adv-x="512" 
 />
    <glyph glyph-name="space" unicode=" " horiz-adv-x="153" 
 />
    <glyph glyph-name="exclam" unicode="!" horiz-adv-x="225" 
d="M205 328h-185v1106h185v-1106zM205 0h-185v184h185v-184z" />
    <glyph glyph-name="quotedbl" unicode="&#x22;" horiz-adv-x="477" 
d="M20 1079l64 355h178l-106 -355h-136zM215 1079l64 355h178l-107 -355h-135z" />
    <glyph glyph-name="numbersign" unicode="#" horiz-adv-x="647" 
d="M74 969h69l60 465h176l-60 -465h72l60 465h176l-60 -465h58v-172h-80l-19 -158h60v-172h-82l-60 -467h-176l60 467h-72l-59 -467h-177l60 467h-45v172h67l19 158h-47v172zM279 639h71l19 158h-72z" />
    <glyph glyph-name="dollar" unicode="$" 
d="M86 645q-28 0 -47 19t-19 47v669q0 22 16 38t38 16h69v79h185v-79h69q22 0 38 -16t16 -38v-555h-185v441q0 10 -7 17t-17 7h-13q-11 0 -17.5 -7t-6.5 -17v-453q0 -11 7 -18t17 -7h156q28 0 47 -18.5t19 -46.5v-670q0 -22 -16 -37.5t-38 -15.5h-69v-80h-185v80h-69
q-22 0 -38 15.5t-16 37.5v555h185v-440q0 -11 7 -18t17 -7h13q10 0 17 7t7 18v453q0 11 -7 17.5t-17 6.5h-156z" />
    <glyph glyph-name="percent" unicode="%" horiz-adv-x="1103" 
d="M451 1229v-414q0 -89 -63 -151t-155 -62q-89 0 -151 62t-62 151v414q0 89 63 151t155 62q89 0 151 -62t62 -151zM248 0l428 1434h182l-428 -1434h-182zM266 776v492q0 12 -8.5 21t-21.5 9q-12 0 -21.5 -9t-9.5 -21v-492q0 -12 9 -21.5t22 -9.5q12 0 21 9.5t9 21.5z
M1083 618v-413q0 -90 -62.5 -151.5t-154.5 -61.5q-89 0 -151 62t-62 151v413q0 90 62.5 151.5t154.5 61.5q89 0 151 -62t62 -151zM899 166v491q0 12 -9 21.5t-22 9.5q-12 0 -21 -9.5t-9 -21.5v-491q0 -12 8.5 -21.5t21.5 -9.5q12 0 21.5 9.5t9.5 21.5z" />
    <glyph glyph-name="ampersand" unicode="&#x26;" horiz-adv-x="509" 
d="M205 1272v-299l61 -55v57h174v-217l60 -56v-221l-60 56v-484q0 -22 -15.5 -37.5t-37.5 -15.5h-313q-22 0 -38 15.5t-16 37.5v707q0 22 16 37.5t38 15.5h65l-119 109v464q0 22 16 38t38 16h313q22 0 37.5 -16t15.5 -38v-241h-174v127q0 10 -7 17t-17 7h-13q-11 0 -17.5 -7
t-6.5 -17zM266 670h-37q-10 0 -17 -7t-7 -18v-477q0 -11 7 -18t17 -7h13q10 0 17 7t7 18v502z" />
    <glyph glyph-name="quotesingle" unicode="'" horiz-adv-x="282" 
d="M20 1079l64 355h178l-106 -355h-136z" />
    <glyph glyph-name="parenleft" unicode="(" horiz-adv-x="344" 
d="M20 588q0 255 35.5 476t98.5 370h180q-61 -144 -95 -367.5t-34 -478.5t34 -478.5t95 -367.5h-180q-63 149 -98.5 370t-35.5 476z" />
    <glyph glyph-name="parenright" unicode=")" horiz-adv-x="344" 
d="M324 588q0 -255 -35.5 -476t-98.5 -370h-180q61 144 95 367.5t34 478.5t-34 478.5t-95 367.5h180q63 -149 98.5 -370t35.5 -476z" />
    <glyph glyph-name="asterisk" unicode="*" horiz-adv-x="645" 
d="M322 1098l-66 -269l-205 154l232 145l-273 -18l72 246l215 -178l-102 256h256l-103 -256l215 178l72 -246l-273 18l232 -145l-205 -154z" />
    <glyph glyph-name="plus" unicode="+" horiz-adv-x="477" 
d="M20 518v184h127v125h185v-125h125v-184h-125v-127h-185v127h-127z" />
    <glyph glyph-name="comma" unicode="," horiz-adv-x="262" 
d="M10 -170l64 354h178l-107 -354h-135z" />
    <glyph glyph-name="hyphen" unicode="-" horiz-adv-x="477" 
d="M20 518v184h437v-184h-437z" />
    <glyph glyph-name="period" unicode="." horiz-adv-x="225" 
d="M20 0v184h185v-184h-185z" />
    <glyph glyph-name="slash" unicode="/" horiz-adv-x="651" 
d="M20 0l429 1434h182l-428 -1434h-183z" />
    <glyph glyph-name="zero" unicode="0" 
d="M451 1229v-1024q0 -95 -60 -154t-158 -59q-95 0 -154 59t-59 154v1024q0 95 60 154t158 59q95 0 154 -59t59 -154zM266 166v1102q0 14 -8 22t-22 8t-22.5 -8.5t-8.5 -21.5v-1102q0 -14 8.5 -22.5t22.5 -8.5q13 0 21.5 8.5t8.5 22.5z" />
    <glyph glyph-name="one" unicode="1" horiz-adv-x="339" 
d="M10 1352h45q11 0 18 7t7 17v58h184v-1291h66v-143h-316v143h66v1065h-70v144z" />
    <glyph glyph-name="two" unicode="2" horiz-adv-x="450" 
d="M10 0v143q0 60 20 125.5t39.5 104t59.5 108.5q71 124 99 203.5t28 159.5v424q0 13 -8.5 21.5t-22.5 8.5q-13 0 -21.5 -8t-8.5 -22v-432h-185v393q0 96 59.5 154.5t157.5 58.5q95 0 154 -59t59 -154v-385q0 -88 -29 -173.5t-104 -217.5q-64 -113 -88 -180.5t-24 -129.5
h245v-143h-430z" />
    <glyph glyph-name="three" unicode="3" horiz-adv-x="479" 
d="M233 -8q-95 0 -154 59t-59 154v307h185v-346q0 -14 8.5 -22.5t22.5 -8.5q13 0 21.5 8.5t8.5 22.5v622q0 19 -13 32.5t-32 13.5h-201v143l236 313h-236v144h449v-144l-236 -313h121q40 0 68.5 -28t28.5 -68v-676q0 -95 -60 -154t-158 -59z" />
    <glyph glyph-name="four" unicode="4" horiz-adv-x="475" 
d="M90 1434h174l-69 -953h75v684h185v-1165h-185v338h-260z" />
    <glyph glyph-name="five" unicode="5" 
d="M451 750v-545q0 -95 -60 -154t-158 -59q-95 0 -154 59t-59 154v307h185v-346q0 -14 8.5 -22.5t22.5 -8.5q13 0 21.5 8.5t8.5 22.5v622q0 19 -13 32.5t-32 13.5h-201v600h431v-144h-246v-313h18q103 0 165.5 -62t62.5 -165z" />
    <glyph glyph-name="six" unicode="6" horiz-adv-x="473" 
d="M453 750v-545q0 -97 -60 -155t-160 -58q-97 0 -155 58t-58 155v1024q0 97 60 155t160 58q97 0 155 -58t58 -155v-170h-185v209q0 14 -8 22t-22 8t-22.5 -8.5t-8.5 -21.5v-291h18q103 0 165.5 -62t62.5 -165zM207 834v-668q0 -14 8.5 -22.5t22.5 -8.5q13 0 21.5 8.5
t8.5 22.5v622q0 19 -13 32.5t-32 13.5h-16z" />
    <glyph glyph-name="seven" unicode="7" horiz-adv-x="501" 
d="M492 1290q-118 -368 -161.5 -634t-43.5 -617v-39h-185v39q0 342 48 645t149 606h-94v-231h-185v375h472v-144z" />
    <glyph glyph-name="eight" unicode="8" 
d="M451 764v-559q0 -89 -63 -151t-155 -62q-89 0 -151 62t-62 151v559q0 80 54 141q-54 61 -54 142v182q0 89 63 151t155 62q89 0 151 -62t62 -151v-182q0 -81 -54 -142q54 -61 54 -141zM266 1008v260q0 12 -8.5 21t-21.5 9q-12 0 -21.5 -9t-9.5 -21v-260q0 -12 9 -21.5
t22 -9.5q12 0 21 9.5t9 21.5zM266 166v637q0 12 -8.5 21.5t-21.5 9.5q-12 0 -21.5 -9.5t-9.5 -21.5v-637q0 -12 9 -21.5t22 -9.5q12 0 21 9.5t9 21.5z" />
    <glyph glyph-name="nine" unicode="9" horiz-adv-x="473" 
d="M20 684v545q0 97 60 155t160 58q97 0 155 -58t58 -155v-1024q0 -97 -60 -155t-160 -58q-97 0 -155 58t-58 155v170h185v-209q0 -14 8.5 -22.5t22.5 -8.5q13 0 21.5 8.5t8.5 22.5v291h-18q-103 0 -165.5 62t-62.5 165zM266 600v668q0 14 -8 22t-22 8t-22.5 -8.5
t-8.5 -21.5v-623q0 -19 13 -32t32 -13h16z" />
    <glyph glyph-name="colon" unicode=":" horiz-adv-x="225" 
d="M20 696v185h185v-185h-185zM20 0v184h185v-184h-185z" />
    <glyph glyph-name="semicolon" unicode=";" horiz-adv-x="282" 
d="M61 696v185h185v-185h-185zM20 -170l64 354h178l-106 -354h-136z" />
    <glyph glyph-name="less" unicode="&#x3c;" horiz-adv-x="710" 
d="M700 313l-690 297v103l690 297v-201l-407 -147l407 -148v-201z" />
    <glyph glyph-name="equal" unicode="=" horiz-adv-x="477" 
d="M20 651v164h437v-164h-437zM20 436v164h437v-164h-437z" />
    <glyph glyph-name="greater" unicode="&#x3e;" horiz-adv-x="710" 
d="M10 313v201l408 148l-408 147v201l690 -297v-103z" />
    <glyph glyph-name="question" unicode="?" horiz-adv-x="450" 
d="M117 360q0 88 17.5 155.5t58.5 139.5q63 109 63 230v383q0 13 -8.5 21.5t-22.5 8.5q-13 0 -21.5 -8t-8.5 -22v-383h-185v344q0 96 59.5 154.5t157.5 58.5q95 0 154 -59t59 -154v-344q0 -179 -75 -289q-35 -51 -49.5 -105t-14.5 -131v-32h-184v32zM117 0v184h184v-184
h-184z" />
    <glyph glyph-name="at" unicode="@" horiz-adv-x="966" 
d="M496 -184q-476 12 -476 841q0 387 120 586t354 199q224 0 338 -177.5t114 -527.5q0 -339 -52.5 -487t-184.5 -148h-381q-22 0 -38 16t-16 38v546q0 22 16 38t38 16h192v243q0 11 -7 18t-17 7h-13q-10 0 -17 -7t-7 -18v-182h-185v297q0 22 16 37.5t38 15.5h323
q22 0 38 -15.5t16 -37.5v-866q77 18 77 495q0 281 -72.5 418t-220.5 137q-154 0 -229.5 -158t-75.5 -485q0 -346 74 -518t238 -178v-143zM471 246h37v366h-37q-11 0 -18 -7t-7 -17v-318q0 -10 7 -17t18 -7z" />
    <glyph glyph-name="A" unicode="A" 
d="M20 0v1380q0 22 16 38t38 16h323q22 0 38 -16t16 -38v-1380h-185v440h-61v-440h-185zM205 1266v-682h61v682q0 10 -7 17t-17 7h-13q-11 0 -17.5 -7t-6.5 -17z" />
    <glyph glyph-name="B" unicode="B" 
d="M451 1380v-612q0 -42 -39 -51q39 -9 39 -51v-613q0 -25 -14.5 -39t-39.5 -14h-377v1434h377q25 0 39.5 -14.5t14.5 -39.5zM266 813v453q0 10 -7 17t-17 7h-37v-502h37q10 0 17 7t7 18zM266 168v453q0 11 -7 17.5t-17 6.5h-37v-502h37q10 0 17 7t7 18z" />
    <glyph glyph-name="C" unicode="C" 
d="M229 143h37v465h185v-608h-377q-22 0 -38 15.5t-16 37.5v1327q0 22 16 38t38 16h377v-609h-185v465h-37q-11 0 -17.5 -7t-6.5 -17v-1098q0 -11 7 -18t17 -7z" />
    <glyph glyph-name="D" unicode="D" 
d="M451 1380v-1327q0 -25 -14.5 -39t-39.5 -14h-377v1434h377q25 0 39.5 -14.5t14.5 -39.5zM266 168v1098q0 10 -7 17t-17 7h-37v-1147h37q10 0 17 7t7 18z" />
    <glyph glyph-name="E" unicode="E" horiz-adv-x="296" 
d="M20 0v1434h267v-144h-82v-502h82v-143h-82v-502h82v-143h-267z" />
    <glyph glyph-name="F" unicode="F" horiz-adv-x="296" 
d="M20 0v1434h267v-144h-82v-502h82v-143h-82v-645h-185z" />
    <glyph glyph-name="G" unicode="G" 
d="M20 53v1327q0 22 16 38t38 16h377v-611h-185v467h-37q-11 0 -17.5 -7t-6.5 -17v-1098q0 -11 7 -18t17 -7h37v475h-26v144h211v-762h-377q-22 0 -38 15.5t-16 37.5z" />
    <glyph glyph-name="H" unicode="H" 
d="M20 -2v1436h185v-641h61v641h185v-1436h-185v651h-61v-651h-185z" />
    <glyph glyph-name="I" unicode="I" horiz-adv-x="225" 
d="M20 0v1434h185v-1434h-185z" />
    <glyph glyph-name="J" unicode="J" horiz-adv-x="276" 
d="M203 0h-193v143h37q11 0 18 7.5t7 17.5v1122h-62v144h246v-1381q0 -25 -14 -39t-39 -14z" />
    <glyph glyph-name="K" unicode="K" horiz-adv-x="430" 
d="M420 1434l-64 -717l64 -717h-152l-53 645h-10v-645h-185v1434h185v-646h10l53 646h152z" />
    <glyph glyph-name="L" unicode="L" horiz-adv-x="296" 
d="M20 0v1434h185v-1291h82v-143h-267z" />
    <glyph glyph-name="M" unicode="M" horiz-adv-x="491" 
d="M20 0v1434h146l80 -232l80 232h145v-1434h-184v991l-41 -114l-41 114v-991h-185z" />
    <glyph glyph-name="N" unicode="N" horiz-adv-x="481" 
d="M461 1434v-1434h-185v905l-71 144v-1049h-185v1434h181l75 -193v193h185z" />
    <glyph glyph-name="O" unicode="O" 
d="M451 1380v-1327q0 -22 -16 -37.5t-38 -15.5h-323q-22 0 -38 15.5t-16 37.5v1327q0 22 16 38t38 16h323q22 0 38 -16t16 -38zM266 168v1098q0 10 -7 17t-17 7h-13q-11 0 -17.5 -7t-6.5 -17v-1098q0 -11 7 -18t17 -7h13q10 0 17 7t7 18z" />
    <glyph glyph-name="P" unicode="P" 
d="M451 1380v-837q0 -22 -16 -38t-38 -16h-192v-489h-185v1434h377q22 0 38 -16t16 -38zM266 657v609q0 10 -7 17t-17 7h-37v-657h37q10 0 17 6.5t7 17.5z" />
    <glyph glyph-name="Q" unicode="Q" 
d="M156 0h-82q-22 0 -38 15.5t-16 37.5v1327q0 22 16 38t38 16h323q22 0 38 -16t16 -38v-1327q0 -22 -16 -37.5t-38 -15.5h-75l53 -125h-166zM266 168v1098q0 10 -7 17t-17 7h-13q-11 0 -17.5 -7t-6.5 -17v-1098q0 -11 7 -18t17 -7h13q10 0 17 7t7 18z" />
    <glyph glyph-name="R" unicode="R" 
d="M451 0h-185v559q0 11 -7 18t-17 7h-37v-584h-185v1434h377q22 0 38 -16t16 -38v-673q0 -17 -12 -32.5t-29 -19.5q17 -5 29 -19.5t12 -31.5v-604zM266 752v514q0 10 -7 17t-17 7h-37v-563h37q10 0 17 7t7 18z" />
    <glyph glyph-name="S" unicode="S" 
d="M86 645q-28 0 -47 19t-19 47v669q0 22 16 38t38 16h323q22 0 38 -16t16 -38v-555h-185v441q0 10 -7 17t-17 7h-13q-11 0 -17.5 -7t-6.5 -17v-453q0 -11 7 -18t17 -7h156q28 0 47 -18.5t19 -46.5v-670q0 -22 -16 -37.5t-38 -15.5h-323q-22 0 -38 15.5t-16 37.5v555h185
v-440q0 -11 7 -18t17 -7h13q10 0 17 7t7 18v453q0 11 -7 17.5t-17 6.5h-156z" />
    <glyph glyph-name="T" unicode="T" horiz-adv-x="368" 
d="M92 0v1290h-82v144h348v-144h-82v-1290h-184z" />
    <glyph glyph-name="U" unicode="U" 
d="M451 1432v-1379q0 -22 -16 -37.5t-38 -15.5h-323q-22 0 -38 15.5t-16 37.5v1379h185v-1264q0 -11 7 -18t17 -7h13q10 0 17 7t7 18v1264h185z" />
    <glyph glyph-name="V" unicode="V" horiz-adv-x="417" 
d="M233 1434h175l-31 -1434h-336l-31 1434h174l23 -1287h4z" />
    <glyph glyph-name="W" unicode="W" horiz-adv-x="491" 
d="M20 1434h185v-992l41 115l41 -115v992h184v-1434h-145l-80 231l-80 -231h-146v1434z" />
    <glyph glyph-name="X" unicode="X" horiz-adv-x="423" 
d="M211 596l-27 -596h-174l51 713l-51 721h172l29 -607h4l27 607h172l-52 -721l52 -713h-174l-25 596h-4z" />
    <glyph glyph-name="Y" unicode="Y" horiz-adv-x="419" 
d="M207 694h4l27 740h172l-109 -1076v-360h-184v360l-107 1076h172z" />
    <glyph glyph-name="Z" unicode="Z" horiz-adv-x="319" 
d="M10 0v143l125 1147h-125v144h299v-144l-125 -1147h125v-143h-299z" />
    <glyph glyph-name="bracketleft" unicode="[" horiz-adv-x="276" 
d="M20 -258v1692h246v-144h-61v-1405h61v-143h-246z" />
    <glyph glyph-name="backslash" unicode="\" horiz-adv-x="651" 
d="M631 0h-182l-429 1434h183z" />
    <glyph glyph-name="bracketright" unicode="]" horiz-adv-x="276" 
d="M256 -258h-246v143h62v1405h-62v144h246v-1692z" />
    <glyph glyph-name="asciicircum" unicode="^" horiz-adv-x="634" 
d="M10 889l242 545h131l242 -545h-160l-148 340l-147 -340h-160z" />
    <glyph glyph-name="underscore" unicode="_" horiz-adv-x="456" 
d="M10 -143v143h436v-143h-436z" />
    <glyph glyph-name="grave" unicode="`" horiz-adv-x="321" 
d="M227 1331l78 -225h-139l-150 225h211z" />
    <glyph glyph-name="a" unicode="a" 
d="M20 53v547q0 22 16 37.5t38 15.5h192v244q0 11 -7 18t-17 7h-13q-10 0 -17 -7t-7 -18v-182h-185v297q0 22 16 37.5t38 15.5h323q22 0 38 -15.5t16 -37.5v-1012h-377q-22 0 -38 15.5t-16 37.5zM229 143h37v367h-37q-10 0 -17 -7t-7 -18v-317q0 -11 7 -18t17 -7z" />
    <glyph glyph-name="b" unicode="b" 
d="M451 1012v-959q0 -22 -16 -37.5t-38 -15.5h-377v1483h185v-418h192q22 0 38 -15.5t16 -37.5zM266 168v729q0 11 -7 18t-17 7h-37v-779h37q10 0 17 7t7 18z" />
    <glyph glyph-name="c" unicode="c" horiz-adv-x="296" 
d="M229 143h58v-143h-213q-22 0 -38 15.5t-16 37.5v959q0 22 16 37.5t38 15.5h213v-143h-58q-10 0 -17 -7t-7 -18v-729q0 -11 7 -18t17 -7z" />
    <glyph glyph-name="d" unicode="d" 
d="M20 1012q0 22 16 37.5t38 15.5h192v418h185v-1483h-377q-22 0 -38 15.5t-16 37.5v959zM205 168q0 -11 7 -18t17 -7h37v779h-37q-10 0 -17 -7t-7 -18v-729z" />
    <glyph glyph-name="e" unicode="e" 
d="M451 1012v-518q0 -22 -16 -38t-38 -16h-192v-272q0 -11 7 -18t17 -7h13q10 0 17 7t7 18v211h185v-326q0 -22 -16 -37.5t-38 -15.5h-323q-22 0 -38 15.5t-16 37.5v959q0 22 16 37.5t38 15.5h323q22 0 38 -15.5t16 -37.5zM242 922h-13q-10 0 -17 -7t-7 -18v-313h37
q10 0 17 7t7 17v289q0 11 -7 18t-17 7z" />
    <glyph glyph-name="f" unicode="f" horiz-adv-x="274" 
d="M20 0v1430q0 22 16 37.5t38 15.5h190v-144h-35q-11 0 -17.5 -6.5t-6.5 -17.5v-250h59v-143h-59v-922h-185z" />
    <glyph glyph-name="g" unicode="g" 
d="M20 53v959q0 25 14.5 39t39.5 14h377v-1346q0 -25 -14.5 -39t-39.5 -14h-323q-25 0 -39.5 14t-14.5 39v199h185v-84q0 -10 6.5 -17t17.5 -7h13q10 0 17 7t7 17v166h-192q-25 0 -39.5 14t-14.5 39zM266 922h-37q-10 0 -17 -7t-7 -18v-729q0 -11 7 -18t17 -7h37v779z" />
    <glyph glyph-name="h" unicode="h" 
d="M20 0v1483h185v-418h192q22 0 38 -15.5t16 -37.5v-1012h-185v877q0 11 -7 17.5t-17 6.5h-37v-901h-185z" />
    <glyph glyph-name="i" unicode="i" horiz-adv-x="225" 
d="M20 1124v185h185v-185h-185zM20 1065h185v-1065h-185v1065z" />
    <glyph glyph-name="j" unicode="j" horiz-adv-x="225" 
d="M20 1124v185h185v-185h-185zM20 -125v1190h185v-1346q0 -25 -14 -39t-39 -14h-199v184h43q10 0 17 7t7 18z" />
    <glyph glyph-name="k" unicode="k" horiz-adv-x="446" 
d="M436 1065l-45 -530l45 -535h-178l-39 463h-14v-463h-185v1483h185v-877h14l39 459h178z" />
    <glyph glyph-name="l" unicode="l" horiz-adv-x="225" 
d="M205 0h-185v1483h185v-1483z" />
    <glyph glyph-name="m" unicode="m" horiz-adv-x="696" 
d="M20 0v1065h267q35 0 61 -33q26 33 60 33h215q25 0 39 -14t14 -39v-1012h-184v897q0 10 -6.5 16.5t-14.5 6.5q-9 0 -14.5 -7t-5.5 -16v-897h-205v897q0 11 -7 18t-18 7h-16v-922h-185z" />
    <glyph glyph-name="n" unicode="n" 
d="M20 0v1065h377q22 0 38 -15.5t16 -37.5v-1012h-185v877q0 11 -7 17.5t-17 6.5h-37v-901h-185z" />
    <glyph glyph-name="o" unicode="o" 
d="M451 1012v-959q0 -22 -16 -37.5t-38 -15.5h-323q-22 0 -38 15.5t-16 37.5v959q0 22 16 37.5t38 15.5h323q22 0 38 -15.5t16 -37.5zM266 168v729q0 11 -7 18t-17 7h-13q-10 0 -17 -7t-7 -18v-729q0 -11 7 -18t17 -7h13q10 0 17 7t7 18z" />
    <glyph glyph-name="p" unicode="p" 
d="M205 0v-334h-185v1399h377q22 0 38 -15.5t16 -37.5v-959q0 -22 -16 -37.5t-38 -15.5h-192zM205 143h37q10 0 17 7t7 18v729q0 11 -7 18t-17 7h-37v-779z" />
    <glyph glyph-name="q" unicode="q" 
d="M74 0q-22 0 -38 15.5t-16 37.5v959q0 22 16 37.5t38 15.5h377v-1399h-185v334h-192zM229 143h37v779h-37q-10 0 -17 -7t-7 -18v-729q0 -11 7 -18t17 -7z" />
    <glyph glyph-name="r" unicode="r" horiz-adv-x="460" 
d="M20 0v1065h185v-29l61 29h131q25 0 39.5 -14t14.5 -39v-531h-185v357q0 23 -22 14l-39 -18v-834h-185z" />
    <glyph glyph-name="s" unicode="s" 
d="M86 598q-28 0 -47 19t-19 47v348q0 22 16 37.5t38 15.5h323q22 0 38 -15.5t16 -37.5v-234h-185v119q0 11 -7 18t-17 7h-13q-10 0 -17 -7t-7 -18v-131q0 -11 7 -18t17 -7h156q28 0 47 -18.5t19 -46.5v-623q0 -22 -16 -37.5t-38 -15.5h-323q-22 0 -38 15.5t-16 37.5v508
h185v-393q0 -11 7 -18t17 -7h13q10 0 17 7t7 18v405q0 11 -7 18t-17 7h-156z" />
    <glyph glyph-name="t" unicode="t" horiz-adv-x="274" 
d="M264 143v-143h-190q-22 0 -38 15.5t-16 37.5v1217h185v-205h59v-143h-59v-754q0 -11 7 -18t17 -7h35z" />
    <glyph glyph-name="u" unicode="u" 
d="M451 1065v-1065h-377q-22 0 -38 15.5t-16 37.5v1012h185v-877q0 -10 6.5 -17t17.5 -7h37v901h185z" />
    <glyph glyph-name="v" unicode="v" horiz-adv-x="417" 
d="M233 1065h175l-31 -1065h-336l-31 1065h174l23 -918h4z" />
    <glyph glyph-name="w" unicode="w" horiz-adv-x="696" 
d="M20 53v1012h185v-897q0 -23 18 -23h4q8 0 13.5 6.5t5.5 16.5v897h205v-897q0 -23 18 -23h4q8 0 13.5 6.5t5.5 16.5v897h184v-1012q0 -22 -15.5 -37.5t-37.5 -15.5h-215q-36 0 -62 33q-26 -33 -59 -33h-213q-25 0 -39.5 14t-14.5 39z" />
    <glyph glyph-name="x" unicode="x" horiz-adv-x="423" 
d="M211 442l-27 -442h-174l51 530l-51 535h172l29 -451h4l27 451h172l-52 -535l52 -530h-174l-25 442h-4z" />
    <glyph glyph-name="y" unicode="y" 
d="M74 0q-22 0 -38 15.5t-16 37.5v1012h185v-897q0 -11 7 -18t17 -7h37v922h185v-1346q0 -22 -16 -37.5t-38 -15.5h-323q-22 0 -38 15.5t-16 37.5v199h185v-84q0 -10 6.5 -17t17.5 -7h13q10 0 17 7t7 17v166h-192z" />
    <glyph glyph-name="z" unicode="z" horiz-adv-x="319" 
d="M10 0v143l125 779h-125v143h299v-143l-125 -779h125v-143h-299z" />
    <glyph glyph-name="braceleft" unicode="{" horiz-adv-x="350" 
d="M205 588q55 -18 55 -142v-499q0 -62 51 -62h19v-143h-109q-69 0 -107 41.5t-38 116.5v587q0 39 -15.5 56.5t-50.5 17.5v51q35 0 50.5 17.5t15.5 56.5v590q0 75 38 116.5t107 41.5h109v-144h-19q-51 0 -51 -61v-502q0 -118 -55 -139z" />
    <glyph glyph-name="bar" unicode="|" horiz-adv-x="225" 
d="M20 -348v1859h185v-1859h-185z" />
    <glyph glyph-name="braceright" unicode="}" horiz-adv-x="350" 
d="M145 588q-55 21 -55 139v502q0 61 -51 61h-19v144h109q69 0 107 -41.5t38 -116.5v-590q0 -39 15.5 -56.5t50.5 -17.5v-51q-35 0 -50.5 -17.5t-15.5 -56.5v-587q0 -75 -38 -116.5t-107 -41.5h-109v143h19q51 0 51 62v499q0 124 55 142z" />
    <glyph glyph-name="asciitilde" unicode="~" horiz-adv-x="557" 
d="M20 750q48 69 132 69q56 0 133 -45q74 -43 118 -43q78 0 134 86v-190q-50 -70 -134 -70q-56 0 -141 51q-64 37 -108 37q-77 0 -134 -86v191z" />
    <glyph glyph-name="exclamdown" unicode="&#xa1;" horiz-adv-x="225" 
d="M205 1065v-184h-185v184h185zM205 737v-1106h-185v1106h185z" />
    <glyph glyph-name="cent" unicode="&#xa2;" horiz-adv-x="296" 
d="M90 0v184h-16q-22 0 -38 16t-16 38v958q0 22 16 37.5t38 15.5h16v185h152v-185h45v-143h-58q-10 0 -17 -7t-7 -18v-729q0 -10 6.5 -17t17.5 -7h58v-144h-45v-184h-152z" />
    <glyph glyph-name="sterling" unicode="&#xa3;" horiz-adv-x="544" 
d="M213 1184q0 -128 51 -328h135v-143h-100q29 -122 29 -205q0 -112 -42.5 -192t-150.5 -173h205v86h184v-229h-504v143h7q116 77 116 299q0 117 -37 271h-86v143h50q-41 152 -41 264q0 151 64 232.5t183 81.5q108 0 178 -65t70 -165h-194q0 80 -15.5 130t-40.5 50
q-28 0 -44.5 -54.5t-16.5 -145.5z" />
    <glyph glyph-name="currency" unicode="&#xa4;" horiz-adv-x="671" 
d="M336 403q-111 0 -197 70l-78 -78l-38 39l77 78q-73 85 -73 201q0 111 71 194l-78 78l39 39l78 -78q87 72 199 72q115 0 199 -72l77 78l39 -39l-78 -78q72 -84 72 -194q0 -115 -74 -201l78 -78l-39 -39l-78 78q-86 -70 -196 -70zM336 455q109 0 183.5 73.5t74.5 182.5
t-74.5 182.5t-183.5 73.5t-183.5 -73.5t-74.5 -182.5t74.5 -182.5t183.5 -73.5z" />
    <glyph glyph-name="yen" unicode="&#xa5;" horiz-adv-x="419" 
d="M207 694h4l27 740h172l-86 -852h59v-164h-76l-6 -51h82v-164h-82v-205h-184v205h-80v164h80l-6 51h-74v164h57l-84 852h172z" />
    <glyph glyph-name="brokenbar" unicode="&#xa6;" horiz-adv-x="225" 
d="M205 705h-185v806h185v-806zM20 459h185v-807h-185v807z" />
    <glyph glyph-name="section" unicode="&#xa7;" 
d="M20 485h185v-317q0 -11 7 -18t17 -7h13q10 0 17 7t7 18v330q0 10 -7 17t-17 7h-156q-28 0 -47 19t-19 47v792q0 22 16 38t38 16h323q22 0 38 -16t16 -38v-432h-185v318q0 10 -7 17t-17 7h-13q-11 0 -17.5 -7t-6.5 -17v-330q0 -11 7 -18t17 -7h156q28 0 47 -18.5t19 -46.5
v-793q0 -22 -16 -37.5t-38 -15.5h-323q-22 0 -38 15.5t-16 37.5v432zM266 666v77q0 11 -7 18t-17 7h-37v-78q0 -10 6.5 -17t17.5 -7h37z" />
    <glyph glyph-name="dieresis" unicode="&#xa8;" horiz-adv-x="403" 
d="M20 1124v185h164v-185h-164zM219 1124v185h164v-185h-164z" />
    <glyph glyph-name="copyright" unicode="&#xa9;" horiz-adv-x="747" 
d="M20 342v750q0 146 102.5 248t248.5 102t251 -102.5t105 -247.5v-750q0 -148 -103.5 -249t-252.5 -101q-146 0 -248.5 102t-102.5 248zM371 41q127 0 216 85.5t89 213.5v754q0 127 -89 213t-216 86q-125 0 -212 -87.5t-87 -211.5v-754q0 -124 87 -211.5t212 -87.5z
M360 297h37v311h185v-454h-377q-22 0 -37.5 15.5t-15.5 37.5v1020q0 22 15.5 37.5t37.5 15.5h377v-455h-185v312h-37q-10 0 -17 -7t-7 -18v-790q0 -11 7 -18t17 -7z" />
    <glyph glyph-name="ordfeminine" unicode="&#xaa;" horiz-adv-x="225" 
d="M20 940v244q0 22 16 37.5t38 15.5h80v164q0 10 -7 17t-18 7h-33q-10 0 -17 -6.5t-7 -17.5v-82h-52v102q0 22 16 38t38 16h78q22 0 37.5 -16t15.5 -38v-534h-131q-22 0 -38 15.5t-16 37.5zM96 936h58v252h-58q-10 0 -17 -7t-7 -18v-202q0 -11 7 -18t17 -7z" />
    <glyph glyph-name="guillemotleft" unicode="&#xab;" horiz-adv-x="540" 
d="M127 174l-117 375l117 375h182l-116 -375l116 -375h-182zM348 174l-117 375l117 375h182l-116 -375l116 -375h-182z" />
    <glyph glyph-name="logicalnot" unicode="&#xac;" horiz-adv-x="964" 
d="M20 522v185h924v-351h-184v166h-740z" />
    <glyph glyph-name="registered" unicode="&#xae;" horiz-adv-x="747" 
d="M20 342v750q0 147 102 248.5t249 101.5q148 0 252 -102.5t104 -247.5v-750q0 -148 -103.5 -249t-252.5 -101q-146 0 -248.5 102t-102.5 248zM371 41q129 0 217 86.5t88 212.5v754q0 126 -88.5 212.5t-216.5 86.5q-125 0 -212 -87.5t-87 -211.5v-754q0 -124 87 -211.5
t212 -87.5zM590 147h-184v414q0 11 -7 18t-18 7h-37v-439h-184v1143h377q22 0 37.5 -15.5t15.5 -37.5v-528q0 -17 -12 -32.5t-29 -19.5q17 -5 29 -19.5t12 -31.5v-459zM406 754v368q0 10 -7 17.5t-18 7.5h-37v-418h37q11 0 18 7.5t7 17.5z" />
    <glyph glyph-name="macron" unicode="&#xaf;" horiz-adv-x="329" 
d="M20 1126v185h289v-185h-289z" />
    <glyph glyph-name="degree" unicode="&#xb0;" horiz-adv-x="565" 
d="M281 930q-107 0 -184 77t-77 185q0 107 77 184.5t184 77.5q109 0 186.5 -77.5t77.5 -184.5q0 -109 -77.5 -185.5t-186.5 -76.5zM283 1112q34 0 56.5 23t22.5 57t-22.5 57t-56.5 23t-57 -23t-23 -57t23 -57t57 -23z" />
    <glyph glyph-name="plusminus" unicode="&#xb1;" horiz-adv-x="477" 
d="M20 518v184h127v125h185v-125h125v-184h-125v-127h-185v127h-127zM20 72v184h437v-184h-437z" />
    <glyph glyph-name="twosuperior" unicode="&#xb2;" horiz-adv-x="223" 
d="M20 936q0 114 76 233q56 85 56 162v21q0 17 -12 29t-27 12q-17 0 -29 -12t-12 -29v-49h-52v49q0 37 27.5 63.5t65.5 26.5q37 0 63.5 -26.5t26.5 -63.5v-21q0 -82 -58 -168q-73 -116 -73 -227h131v-49h-183v49z" />
    <glyph glyph-name="threesuperior" unicode="&#xb3;" horiz-adv-x="223" 
d="M203 1143v-172q0 -35 -26.5 -61.5t-63.5 -26.5q-36 0 -64.5 27t-28.5 63v69h56v-69q0 -17 12 -29t27 -12q14 0 25.5 11t11.5 28v174q0 19 -13 32t-30 13h-89v49l132 145h-132v50h183v-50l-127 -145h33q38 0 66 -28t28 -68z" />
    <glyph glyph-name="acute" unicode="&#xb4;" horiz-adv-x="323" 
d="M94 1331h211l-149 -225h-140z" />
    <glyph glyph-name="paragraph" unicode="&#xb6;" horiz-adv-x="643" 
d="M326 903q-130 0 -223 92.5t-93 223.5t113 223t274 92h226v-1882h-185v1829h-61v-1829h-51v1251z" />
    <glyph glyph-name="periodcentered" unicode="&#xb7;" horiz-adv-x="225" 
d="M20 627v184h185v-184h-185z" />
    <glyph glyph-name="cedilla" unicode="&#xb8;" horiz-adv-x="223" 
d="M78 10h69l-8 -22q33 -6 51.5 -27t18.5 -53q0 -56 -54.5 -99.5t-142.5 -56.5v78q26 8 46 29t20 43q0 15 -10 25t-25 12z" />
    <glyph glyph-name="onesuperior" unicode="&#xb9;" horiz-adv-x="206" 
d="M10 1393h45q11 0 18 7t7 17v58h51v-539h66v-49h-183v49h66v407h-70v50z" />
    <glyph glyph-name="ordmasculine" unicode="&#xba;" horiz-adv-x="225" 
d="M205 1421v-481q0 -22 -15.5 -37.5t-37.5 -15.5h-78q-22 0 -38 15.5t-16 37.5v481q0 22 16 38t38 16h78q22 0 37.5 -16t15.5 -38zM154 961v440q0 10 -7 17t-18 7h-33q-10 0 -17 -6.5t-7 -17.5v-440q0 -11 7 -18t17 -7h33q11 0 18 7t7 18z" />
    <glyph glyph-name="guillemotright" unicode="&#xbb;" horiz-adv-x="540" 
d="M414 174h-183l117 375l-117 375h183l116 -375zM193 174h-183l117 375l-117 375h183l116 -375z" />
    <glyph glyph-name="onequarter" unicode="&#xbc;" horiz-adv-x="964" 
d="M178 0l428 1434h182l-428 -1434h-182zM10 1352h45q11 0 18 7t7 17v58h184v-680h66v-144h-316v144h66v454h-70v144zM655 823h181l-156 -565h80v236h184v-494h-184v115h-299z" />
    <glyph glyph-name="onehalf" unicode="&#xbd;" horiz-adv-x="1058" 
d="M188 0l428 1434h183l-428 -1434h-183zM20 1352h46q10 0 17 7t7 17v58h184v-680h66v-144h-315v144h65v454h-70v144zM608 0v143q0 95 36 156.5t116 112.5q50 31 72 60t22 67v118q0 13 -9 22t-22 9t-21.5 -8.5t-8.5 -22.5v-127h-185v88q0 96 59.5 154.5t157.5 58.5
q95 0 154 -59t59 -154v-79q0 -59 -43 -122.5t-127 -123.5q-45 -33 -60 -61.5t-15 -88.5h245v-143h-430z" />
    <glyph glyph-name="threequarters" unicode="&#xbe;" horiz-adv-x="1042" 
d="M256 0l428 1434h182l-428 -1434h-182zM20 815v84h185v-123q0 -14 8.5 -22.5t22.5 -8.5q13 0 21.5 8.5t8.5 22.5v158q0 19 -13 32t-32 13h-201v143l236 168h-236v144h449v-144l-236 -168h121q40 0 68.5 -28t28.5 -68v-211q0 -95 -60 -154t-158 -59q-95 0 -154 59t-59 154z
M733 823h180l-155 -565h80v236h184v-494h-184v115h-299z" />
    <glyph glyph-name="questiondown" unicode="&#xbf;" horiz-adv-x="450" 
d="M150 881v184h184v-184h-184zM10 180q0 92 18.5 161.5t59.5 137.5q34 56 48 106.5t14 119.5v32h184v-32q0 -86 -17.5 -150.5t-56.5 -128.5q-35 -60 -50 -115.5t-15 -130.5v-383q0 -13 8.5 -21.5t21.5 -8.5q14 0 22.5 8.5t8.5 21.5v383h184v-344q0 -96 -59.5 -154.5
t-157.5 -58.5q-95 0 -154 59t-59 154v344z" />
    <glyph glyph-name="Agrave" unicode="&#xc0;" 
d="M281 1700l77 -225h-139l-149 225h211zM20 0v1380q0 22 16 38t38 16h323q22 0 38 -16t16 -38v-1380h-185v440h-61v-440h-185zM205 1266v-682h61v682q0 10 -7 17t-17 7h-13q-11 0 -17.5 -7t-6.5 -17z" />
    <glyph glyph-name="Aacute" unicode="&#xc1;" 
d="M193 1700h210l-149 -225h-139zM20 0v1380q0 22 16 38t38 16h323q22 0 38 -16t16 -38v-1380h-185v440h-61v-440h-185zM205 1266v-682h61v682q0 10 -7 17t-17 7h-13q-11 0 -17.5 -7t-6.5 -17z" />
    <glyph glyph-name="Acircumflex" unicode="&#xc2;" 
d="M256 1475l-18 188l-19 -188h-170l123 225h131l123 -225h-170zM20 0v1380q0 22 16 38t38 16h323q22 0 38 -16t16 -38v-1380h-185v440h-61v-440h-185zM205 1266v-682h61v682q0 10 -7 17t-17 7h-13q-11 0 -17.5 -7t-6.5 -17z" />
    <glyph glyph-name="Atilde" unicode="&#xc3;" 
d="M377 1726q0 -124 -21.5 -178.5t-68.5 -54.5q-45 0 -68 51q-16 37 -43 37q-44 0 -47 -80h-31q0 123 21 178.5t67 55.5q44 0 68 -49q19 -39 45 -39q44 0 47 79h31zM20 0v1380q0 22 16 38t38 16h323q22 0 38 -16t16 -38v-1380h-185v440h-61v-440h-185zM205 1266v-682h61v682
q0 10 -7 17t-17 7h-13q-11 0 -17.5 -7t-6.5 -17z" />
    <glyph glyph-name="Adieresis" unicode="&#xc4;" 
d="M55 1493v184h164v-184h-164zM254 1493v184h164v-184h-164zM20 0v1380q0 22 16 38t38 16h323q22 0 38 -16t16 -38v-1380h-185v440h-61v-440h-185zM205 1266v-682h61v682q0 10 -7 17t-17 7h-13q-11 0 -17.5 -7t-6.5 -17z" />
    <glyph glyph-name="Aring" unicode="&#xc5;" 
d="M86 1620q0 62 43.5 104.5t106.5 42.5q62 0 104.5 -42.5t42.5 -104.5t-42.5 -104.5t-104.5 -42.5q-63 0 -106.5 42.5t-43.5 104.5zM195 1620q0 -17 12 -28t29 -11q15 0 26.5 11t11.5 28t-11.5 28t-26.5 11q-17 0 -29 -11t-12 -28zM20 0v1380q0 22 16 38t38 16h323
q22 0 38 -16t16 -38v-1380h-185v440h-61v-440h-185zM205 1266v-682h61v682q0 10 -7 17t-17 7h-13q-11 0 -17.5 -7t-6.5 -17z" />
    <glyph glyph-name="AE" unicode="&#xc6;" horiz-adv-x="542" 
d="M266 0v645h-61v-645h-185v1380q0 22 16 38t38 16h458v-144h-81v-502h81v-143h-81v-502h81v-143h-266zM205 1266v-478h61v478q0 10 -7 17t-17 7h-13q-11 0 -17.5 -7t-6.5 -17z" />
    <glyph glyph-name="Ccedilla" unicode="&#xc7;" 
d="M229 143h37v465h185v-608h-187l-4 -12q33 -6 51.5 -27t18.5 -53q0 -56 -54.5 -99.5t-142.5 -56.5v78q26 8 46 29t20 43q0 15 -10 25t-25 12l31 61h-121q-22 0 -38 15.5t-16 37.5v1327q0 22 16 38t38 16h377v-609h-185v465h-37q-11 0 -17.5 -7t-6.5 -17v-1098q0 -11 7 -18
t17 -7z" />
    <glyph glyph-name="Egrave" unicode="&#xc8;" horiz-adv-x="296" 
d="M215 1700l78 -225h-139l-150 225h211zM20 0v1434h267v-144h-82v-502h82v-143h-82v-502h82v-143h-267z" />
    <glyph glyph-name="Eacute" unicode="&#xc9;" horiz-adv-x="296" 
d="M82 1700h211l-150 -225h-139zM20 0v1434h267v-144h-82v-502h82v-143h-82v-502h82v-143h-267z" />
    <glyph glyph-name="Ecircumflex" unicode="&#xca;" horiz-adv-x="296" 
d="M166 1475l-19 188l-18 -188h-170l123 225h131l123 -225h-170zM20 0v1434h267v-144h-82v-502h82v-143h-82v-502h82v-143h-267z" />
    <glyph glyph-name="Edieresis" unicode="&#xcb;" horiz-adv-x="296" 
d="M-33 1493v184h164v-184h-164zM166 1493v184h164v-184h-164zM20 0v1434h267v-144h-82v-502h82v-143h-82v-502h82v-143h-267z" />
    <glyph glyph-name="Igrave" unicode="&#xcc;" horiz-adv-x="225" 
d="M156 1700l77 -225h-139l-149 225h211zM20 0v1434h185v-1434h-185z" />
    <glyph glyph-name="Iacute" unicode="&#xcd;" horiz-adv-x="225" 
d="M68 1700h211l-150 -225h-139zM20 0v1434h185v-1434h-185z" />
    <glyph glyph-name="Icircumflex" unicode="&#xce;" horiz-adv-x="225" 
d="M131 1475l-18 188l-19 -188h-170l123 225h131l123 -225h-170zM20 0v1434h185v-1434h-185z" />
    <glyph glyph-name="Idieresis" unicode="&#xcf;" horiz-adv-x="225" 
d="M-70 1493v184h164v-184h-164zM129 1493v184h164v-184h-164zM20 0v1434h185v-1434h-185z" />
    <glyph glyph-name="Eth" unicode="&#xd0;" horiz-adv-x="481" 
d="M461 1380v-1327q0 -22 -15.5 -37.5t-37.5 -15.5h-377v625h-31v184h31v625h377q22 0 37.5 -16t15.5 -38zM276 168v1098q0 10 -7 17t-17 7h-37v-481h29v-184h-29v-482h37q10 0 17 7t7 18z" />
    <glyph glyph-name="Ntilde" unicode="&#xd1;" horiz-adv-x="481" 
d="M381 1726q0 -124 -21.5 -178.5t-68.5 -54.5q-45 0 -68 51q-16 37 -43 37q-44 0 -47 -80h-31q0 123 21 178.5t67 55.5q44 0 68 -49q19 -39 45 -39q44 0 47 79h31zM461 1434v-1434h-185v905l-71 144v-1049h-185v1434h181l75 -193v193h185z" />
    <glyph glyph-name="Ograve" unicode="&#xd2;" 
d="M289 1700l78 -225h-140l-149 225h211zM451 1380v-1327q0 -22 -16 -37.5t-38 -15.5h-323q-22 0 -38 15.5t-16 37.5v1327q0 22 16 38t38 16h323q22 0 38 -16t16 -38zM266 168v1098q0 10 -7 17t-17 7h-13q-11 0 -17.5 -7t-6.5 -17v-1098q0 -11 7 -18t17 -7h13q10 0 17 7
t7 18z" />
    <glyph glyph-name="Oacute" unicode="&#xd3;" 
d="M201 1700h211l-150 -225h-139zM451 1380v-1327q0 -22 -16 -37.5t-38 -15.5h-323q-22 0 -38 15.5t-16 37.5v1327q0 22 16 38t38 16h323q22 0 38 -16t16 -38zM266 168v1098q0 10 -7 17t-17 7h-13q-11 0 -17.5 -7t-6.5 -17v-1098q0 -11 7 -18t17 -7h13q10 0 17 7t7 18z" />
    <glyph glyph-name="Ocircumflex" unicode="&#xd4;" 
d="M264 1475l-18 188l-19 -188h-170l123 225h131l123 -225h-170zM451 1380v-1327q0 -22 -16 -37.5t-38 -15.5h-323q-22 0 -38 15.5t-16 37.5v1327q0 22 16 38t38 16h323q22 0 38 -16t16 -38zM266 168v1098q0 10 -7 17t-17 7h-13q-11 0 -17.5 -7t-6.5 -17v-1098q0 -11 7 -18
t17 -7h13q10 0 17 7t7 18z" />
    <glyph glyph-name="Otilde" unicode="&#xd5;" 
d="M385 1726q0 -124 -21.5 -178.5t-68.5 -54.5q-45 0 -68 51q-16 37 -43 37q-44 0 -47 -80h-31q0 122 21.5 178t67.5 56q43 0 67 -49q19 -39 45 -39q44 0 47 79h31zM451 1380v-1327q0 -22 -16 -37.5t-38 -15.5h-323q-22 0 -38 15.5t-16 37.5v1327q0 22 16 38t38 16h323
q22 0 38 -16t16 -38zM266 168v1098q0 10 -7 17t-17 7h-13q-11 0 -17.5 -7t-6.5 -17v-1098q0 -11 7 -18t17 -7h13q10 0 17 7t7 18z" />
    <glyph glyph-name="Odieresis" unicode="&#xd6;" 
d="M63 1493v184h164v-184h-164zM262 1493v184h164v-184h-164zM451 1380v-1327q0 -22 -16 -37.5t-38 -15.5h-323q-22 0 -38 15.5t-16 37.5v1327q0 22 16 38t38 16h323q22 0 38 -16t16 -38zM266 168v1098q0 10 -7 17t-17 7h-13q-11 0 -17.5 -7t-6.5 -17v-1098q0 -11 7 -18
t17 -7h13q10 0 17 7t7 18z" />
    <glyph glyph-name="multiply" unicode="&#xd7;" horiz-adv-x="499" 
d="M141 360l-131 132l109 108l-109 109l131 131l109 -109l108 109l131 -131l-108 -109l108 -108l-131 -132l-108 109z" />
    <glyph glyph-name="Oslash" unicode="&#xd8;" 
d="M31 23q-11 15 -11 30v1327q0 22 16 38t38 16h231l4 20h142l-11 -43q11 -15 11 -31v-1327q0 -22 -16 -37.5t-38 -15.5h-229l-4 -20h-144zM205 819l61 447q0 10 -7 17t-17 7h-13q-11 0 -17.5 -7t-6.5 -17v-447zM205 168q0 -11 7 -18t17 -7h13q10 0 17 7t7 18v446z" />
    <glyph glyph-name="Ugrave" unicode="&#xd9;" 
d="M356 1475h-139l-149 225h211zM451 1432v-1379q0 -22 -16 -37.5t-38 -15.5h-323q-22 0 -38 15.5t-16 37.5v1379h185v-1264q0 -11 7 -18t17 -7h13q10 0 17 7t7 18v1264h185z" />
    <glyph glyph-name="Uacute" unicode="&#xda;" 
d="M401 1700l-149 -225h-139l77 225h211zM451 1432v-1379q0 -22 -16 -37.5t-38 -15.5h-323q-22 0 -38 15.5t-16 37.5v1379h185v-1264q0 -11 7 -18t17 -7h13q10 0 17 7t7 18v1264h185z" />
    <glyph glyph-name="Ucircumflex" unicode="&#xdb;" 
d="M236 1663l-19 -188h-170l123 225h131l123 -225h-170zM451 1432v-1379q0 -22 -16 -37.5t-38 -15.5h-323q-22 0 -38 15.5t-16 37.5v1379h185v-1264q0 -11 7 -18t17 -7h13q10 0 17 7t7 18v1264h185z" />
    <glyph glyph-name="Udieresis" unicode="&#xdc;" 
d="M53 1677h164v-184h-164v184zM252 1677h164v-184h-164v184zM451 1432v-1379q0 -22 -16 -37.5t-38 -15.5h-323q-22 0 -38 15.5t-16 37.5v1379h185v-1264q0 -11 7 -18t17 -7h13q10 0 17 7t7 18v1264h185z" />
    <glyph glyph-name="Yacute" unicode="&#xdd;" horiz-adv-x="419" 
d="M166 1700h211l-150 -225h-139zM207 694h4l27 740h172l-109 -1076v-360h-184v360l-107 1076h172z" />
    <glyph glyph-name="Thorn" unicode="&#xde;" 
d="M451 1137v-838q0 -22 -16 -37.5t-38 -15.5h-192v-246h-185v1434h185v-244h192q22 0 38 -15.5t16 -37.5zM266 414v608q0 11 -7 18t-17 7h-37v-658h37q10 0 17 7t7 18z" />
    <glyph glyph-name="germandbls" unicode="&#xdf;" horiz-adv-x="706" 
d="M20 0v1184q0 112 69 181t181 69q117 0 186.5 -68.5t69.5 -181.5v-119q0 -56 -32 -96l-62 -78q-15 -19 -11.5 -38.5t25.5 -29.5l172 -84q22 -11 35 -31.5t13 -45.5v-609q0 -22 -16 -37.5t-38 -15.5h-323q-22 0 -37.5 15.5t-15.5 37.5v355h184v-240q0 -11 7 -18t17 -7h13
q10 0 17 7t7 18v494q0 54 -47 77l-158 84q-21 10 -25.5 29t9.5 39l51 76q31 47 31 98v158q0 31 -18.5 49t-49.5 18q-32 0 -50.5 -18t-18.5 -49v-1223h-185z" />
    <glyph glyph-name="agrave" unicode="&#xe0;" 
d="M279 1331l77 -225h-139l-149 225h211zM20 53v547q0 22 16 37.5t38 15.5h192v244q0 11 -7 18t-17 7h-13q-10 0 -17 -7t-7 -18v-182h-185v297q0 22 16 37.5t38 15.5h323q22 0 38 -15.5t16 -37.5v-1012h-377q-22 0 -38 15.5t-16 37.5zM229 143h37v367h-37q-10 0 -17 -7
t-7 -18v-317q0 -11 7 -18t17 -7z" />
    <glyph glyph-name="aacute" unicode="&#xe1;" 
d="M190 1331h211l-149 -225h-139zM20 53v547q0 22 16 37.5t38 15.5h192v244q0 11 -7 18t-17 7h-13q-10 0 -17 -7t-7 -18v-182h-185v297q0 22 16 37.5t38 15.5h323q22 0 38 -15.5t16 -37.5v-1012h-377q-22 0 -38 15.5t-16 37.5zM229 143h37v367h-37q-10 0 -17 -7t-7 -18v-317
q0 -11 7 -18t17 -7z" />
    <glyph glyph-name="acircumflex" unicode="&#xe2;" 
d="M254 1106l-18 188l-19 -188h-170l123 225h131l123 -225h-170zM20 53v547q0 22 16 37.5t38 15.5h192v244q0 11 -7 18t-17 7h-13q-10 0 -17 -7t-7 -18v-182h-185v297q0 22 16 37.5t38 15.5h323q22 0 38 -15.5t16 -37.5v-1012h-377q-22 0 -38 15.5t-16 37.5zM229 143h37v367
h-37q-10 0 -17 -7t-7 -18v-317q0 -11 7 -18t17 -7z" />
    <glyph glyph-name="atilde" unicode="&#xe3;" 
d="M375 1358q0 -124 -21.5 -179t-68.5 -55q-44 0 -68 52q-16 36 -43 36q-44 0 -47 -79h-31q0 123 21 178t67 55q44 0 68 -49q19 -39 45 -39q44 0 47 80h31zM20 53v547q0 22 16 37.5t38 15.5h192v244q0 11 -7 18t-17 7h-13q-10 0 -17 -7t-7 -18v-182h-185v297q0 22 16 37.5
t38 15.5h323q22 0 38 -15.5t16 -37.5v-1012h-377q-22 0 -38 15.5t-16 37.5zM229 143h37v367h-37q-10 0 -17 -7t-7 -18v-317q0 -11 7 -18t17 -7z" />
    <glyph glyph-name="adieresis" unicode="&#xe4;" 
d="M53 1124v185h164v-185h-164zM252 1124v185h164v-185h-164zM20 53v547q0 22 16 37.5t38 15.5h192v244q0 11 -7 18t-17 7h-13q-10 0 -17 -7t-7 -18v-182h-185v297q0 22 16 37.5t38 15.5h323q22 0 38 -15.5t16 -37.5v-1012h-377q-22 0 -38 15.5t-16 37.5zM229 143h37v367
h-37q-10 0 -17 -7t-7 -18v-317q0 -11 7 -18t17 -7z" />
    <glyph glyph-name="aring" unicode="&#xe5;" 
d="M84 1251q0 62 43 105t106 43q61 0 104.5 -43.5t43.5 -104.5t-43 -104t-105 -43q-63 0 -106 42.5t-43 104.5zM193 1251q0 -17 11.5 -28t28.5 -11q16 0 27.5 11t11.5 28t-11.5 28t-27.5 11q-17 0 -28.5 -11t-11.5 -28zM20 53v547q0 22 16 37.5t38 15.5h192v244q0 11 -7 18
t-17 7h-13q-10 0 -17 -7t-7 -18v-182h-185v297q0 22 16 37.5t38 15.5h323q22 0 38 -15.5t16 -37.5v-1012h-377q-22 0 -38 15.5t-16 37.5zM229 143h37v367h-37q-10 0 -17 -7t-7 -18v-317q0 -11 7 -18t17 -7z" />
    <glyph glyph-name="ae" unicode="&#xe6;" horiz-adv-x="716" 
d="M20 53v512q0 22 16 37.5t38 15.5h192v279q0 11 -7 18t-17 7h-13q-10 0 -17 -7t-7 -18v-182h-185v297q0 22 16 37.5t38 15.5h569q22 0 37.5 -15.5t15.5 -37.5v-484q0 -22 -15.5 -37.5t-37.5 -15.5h-192v-307q0 -11 7 -18t17 -7h12q11 0 18 7.5t7 17.5v211h184v-326
q0 -22 -15.5 -37.5t-37.5 -15.5h-569q-22 0 -38 15.5t-16 37.5zM487 922h-12q-10 0 -17 -7t-7 -18v-279h36q11 0 18 7t7 18v254q0 11 -7 18t-18 7zM229 143h37v332h-37q-11 0 -17.5 -6.5t-6.5 -17.5v-283q0 -11 7 -18t17 -7z" />
    <glyph glyph-name="ccedilla" unicode="&#xe7;" horiz-adv-x="296" 
d="M229 143h58v-143h-99l-4 -12q33 -6 51.5 -27t18.5 -53q0 -56 -54.5 -99.5t-142.5 -56.5v78q26 8 46 29t20 43q0 15 -10 25t-25 12l31 61h-45q-22 0 -38 15.5t-16 37.5v959q0 22 16 37.5t38 15.5h213v-143h-58q-10 0 -17 -7t-7 -18v-729q0 -11 7 -18t17 -7z" />
    <glyph glyph-name="egrave" unicode="&#xe8;" 
d="M279 1331l77 -225h-139l-149 225h211zM451 1012v-518q0 -22 -16 -38t-38 -16h-192v-272q0 -11 7 -18t17 -7h13q10 0 17 7t7 18v211h185v-326q0 -22 -16 -37.5t-38 -15.5h-323q-22 0 -38 15.5t-16 37.5v959q0 22 16 37.5t38 15.5h323q22 0 38 -15.5t16 -37.5zM242 922h-13
q-10 0 -17 -7t-7 -18v-313h37q10 0 17 7t7 17v289q0 11 -7 18t-17 7z" />
    <glyph glyph-name="eacute" unicode="&#xe9;" 
d="M190 1331h211l-149 -225h-139zM451 1012v-518q0 -22 -16 -38t-38 -16h-192v-272q0 -11 7 -18t17 -7h13q10 0 17 7t7 18v211h185v-326q0 -22 -16 -37.5t-38 -15.5h-323q-22 0 -38 15.5t-16 37.5v959q0 22 16 37.5t38 15.5h323q22 0 38 -15.5t16 -37.5zM242 922h-13
q-10 0 -17 -7t-7 -18v-313h37q10 0 17 7t7 17v289q0 11 -7 18t-17 7z" />
    <glyph glyph-name="ecircumflex" unicode="&#xea;" 
d="M254 1106l-18 188l-19 -188h-170l123 225h131l123 -225h-170zM451 1012v-518q0 -22 -16 -38t-38 -16h-192v-272q0 -11 7 -18t17 -7h13q10 0 17 7t7 18v211h185v-326q0 -22 -16 -37.5t-38 -15.5h-323q-22 0 -38 15.5t-16 37.5v959q0 22 16 37.5t38 15.5h323q22 0 38 -15.5
t16 -37.5zM242 922h-13q-10 0 -17 -7t-7 -18v-313h37q10 0 17 7t7 17v289q0 11 -7 18t-17 7z" />
    <glyph glyph-name="edieresis" unicode="&#xeb;" 
d="M53 1124v185h164v-185h-164zM252 1124v185h164v-185h-164zM451 1012v-518q0 -22 -16 -38t-38 -16h-192v-272q0 -11 7 -18t17 -7h13q10 0 17 7t7 18v211h185v-326q0 -22 -16 -37.5t-38 -15.5h-323q-22 0 -38 15.5t-16 37.5v959q0 22 16 37.5t38 15.5h323q22 0 38 -15.5
t16 -37.5zM242 922h-13q-10 0 -17 -7t-7 -18v-313h37q10 0 17 7t7 17v289q0 11 -7 18t-17 7z" />
    <glyph glyph-name="igrave" unicode="&#xec;" horiz-adv-x="225" 
d="M156 1331l77 -225h-139l-149 225h211zM20 1065h185v-1065h-185v1065z" />
    <glyph glyph-name="iacute" unicode="&#xed;" horiz-adv-x="225" 
d="M68 1331h211l-150 -225h-139zM20 1065h185v-1065h-185v1065z" />
    <glyph glyph-name="icircumflex" unicode="&#xee;" horiz-adv-x="225" 
d="M131 1106l-18 188l-19 -188h-170l123 225h131l123 -225h-170zM20 1065h185v-1065h-185v1065z" />
    <glyph glyph-name="idieresis" unicode="&#xef;" horiz-adv-x="225" 
d="M-70 1124v185h164v-185h-164zM129 1124v185h164v-185h-164zM20 1065h185v-1065h-185v1065z" />
    <glyph glyph-name="eth" unicode="&#xf0;" horiz-adv-x="473" 
d="M195 1030h-175l123 193l-104 211h186l23 -48l31 48h174l-127 -201l127 -256v-772q0 -97 -58 -155t-155 -58q-100 0 -160 58t-60 155v545q0 103 62.5 165t165.5 62h18l-47 92zM266 834h-16q-19 0 -32 -13.5t-13 -32.5v-622q0 -14 8.5 -22.5t22.5 -8.5q13 0 21.5 8.5
t8.5 22.5v668z" />
    <glyph glyph-name="ntilde" unicode="&#xf1;" 
d="M375 1358q0 -124 -21.5 -179t-68.5 -55q-44 0 -68 52q-16 36 -43 36q-44 0 -47 -79h-31q0 123 21 178t67 55q44 0 68 -49q19 -39 45 -39q44 0 47 80h31zM20 0v1065h377q22 0 38 -15.5t16 -37.5v-1012h-185v877q0 11 -7 17.5t-17 6.5h-37v-901h-185z" />
    <glyph glyph-name="ograve" unicode="&#xf2;" 
d="M279 1331l77 -225h-139l-149 225h211zM451 1012v-959q0 -22 -16 -37.5t-38 -15.5h-323q-22 0 -38 15.5t-16 37.5v959q0 22 16 37.5t38 15.5h323q22 0 38 -15.5t16 -37.5zM266 168v729q0 11 -7 18t-17 7h-13q-10 0 -17 -7t-7 -18v-729q0 -11 7 -18t17 -7h13q10 0 17 7
t7 18z" />
    <glyph glyph-name="oacute" unicode="&#xf3;" 
d="M190 1331h211l-149 -225h-139zM451 1012v-959q0 -22 -16 -37.5t-38 -15.5h-323q-22 0 -38 15.5t-16 37.5v959q0 22 16 37.5t38 15.5h323q22 0 38 -15.5t16 -37.5zM266 168v729q0 11 -7 18t-17 7h-13q-10 0 -17 -7t-7 -18v-729q0 -11 7 -18t17 -7h13q10 0 17 7t7 18z" />
    <glyph glyph-name="ocircumflex" unicode="&#xf4;" 
d="M254 1106l-18 188l-19 -188h-170l123 225h131l123 -225h-170zM451 1012v-959q0 -22 -16 -37.5t-38 -15.5h-323q-22 0 -38 15.5t-16 37.5v959q0 22 16 37.5t38 15.5h323q22 0 38 -15.5t16 -37.5zM266 168v729q0 11 -7 18t-17 7h-13q-10 0 -17 -7t-7 -18v-729q0 -11 7 -18
t17 -7h13q10 0 17 7t7 18z" />
    <glyph glyph-name="otilde" unicode="&#xf5;" 
d="M375 1358q0 -124 -21.5 -179t-68.5 -55q-44 0 -68 52q-16 36 -43 36q-44 0 -47 -79h-31q0 123 21 178t67 55q44 0 68 -49q19 -39 45 -39q44 0 47 80h31zM451 1012v-959q0 -22 -16 -37.5t-38 -15.5h-323q-22 0 -38 15.5t-16 37.5v959q0 22 16 37.5t38 15.5h323
q22 0 38 -15.5t16 -37.5zM266 168v729q0 11 -7 18t-17 7h-13q-10 0 -17 -7t-7 -18v-729q0 -11 7 -18t17 -7h13q10 0 17 7t7 18z" />
    <glyph glyph-name="odieresis" unicode="&#xf6;" 
d="M53 1124v185h164v-185h-164zM252 1124v185h164v-185h-164zM451 1012v-959q0 -22 -16 -37.5t-38 -15.5h-323q-22 0 -38 15.5t-16 37.5v959q0 22 16 37.5t38 15.5h323q22 0 38 -15.5t16 -37.5zM266 168v729q0 11 -7 18t-17 7h-13q-10 0 -17 -7t-7 -18v-729q0 -11 7 -18
t17 -7h13q10 0 17 7t7 18z" />
    <glyph glyph-name="divide" unicode="&#xf7;" horiz-adv-x="477" 
d="M137 733v131h185v-131h-185zM20 518v184h437v-184h-437zM137 358v131h185v-131h-185z" />
    <glyph glyph-name="oslash" unicode="&#xf8;" 
d="M451 1012v-959q0 -22 -16 -37.5t-38 -15.5h-323q-9 0 -21 4l-8 -24h-25l15 38q-15 19 -15 35v959q0 22 16 37.5t38 15.5h323q9 0 21 -4l8 24h25l-15 -38q15 -19 15 -35zM205 481l61 168v248q0 11 -7 18t-17 7h-13q-10 0 -17 -7t-7 -18v-416zM266 168v416l-61 -168v-248
q0 -11 7 -18t17 -7h13q10 0 17 7t7 18z" />
    <glyph glyph-name="ugrave" unicode="&#xf9;" 
d="M276 1331l78 -225h-139l-149 225h210zM451 1065v-1065h-377q-22 0 -38 15.5t-16 37.5v1012h185v-877q0 -10 6.5 -17t17.5 -7h37v901h185z" />
    <glyph glyph-name="uacute" unicode="&#xfa;" 
d="M188 1331h211l-149 -225h-139zM451 1065v-1065h-377q-22 0 -38 15.5t-16 37.5v1012h185v-877q0 -10 6.5 -17t17.5 -7h37v901h185z" />
    <glyph glyph-name="ucircumflex" unicode="&#xfb;" 
d="M252 1106l-19 188l-18 -188h-170l123 225h131l123 -225h-170zM451 1065v-1065h-377q-22 0 -38 15.5t-16 37.5v1012h185v-877q0 -10 6.5 -17t17.5 -7h37v901h185z" />
    <glyph glyph-name="udieresis" unicode="&#xfc;" 
d="M51 1124v185h164v-185h-164zM250 1124v185h164v-185h-164zM451 1065v-1065h-377q-22 0 -38 15.5t-16 37.5v1012h185v-877q0 -10 6.5 -17t17.5 -7h37v901h185z" />
    <glyph glyph-name="yacute" unicode="&#xfd;" 
d="M113 1106l77 225h211l-149 -225h-139zM20 53v1012h185v-897q0 -11 7 -18t17 -7h37v922h185v-1346q0 -22 -16 -37.5t-38 -15.5h-323q-22 0 -38 15.5t-16 37.5v199h185v-84q0 -10 6.5 -17t17.5 -7h13q10 0 17 7t7 17v166h-192q-22 0 -38 15.5t-16 37.5z" />
    <glyph glyph-name="thorn" unicode="&#xfe;" 
d="M205 0v-334h-185v1768h185v-369h192q22 0 38 -15.5t16 -37.5v-959q0 -22 -16 -37.5t-38 -15.5h-192zM205 143h37q10 0 17 7t7 18v729q0 11 -7 18t-17 7h-37v-779z" />
    <glyph glyph-name="ydieresis" unicode="&#xff;" 
d="M53 1124v185h164v-185h-164zM252 1124v185h164v-185h-164zM20 53v1012h185v-897q0 -11 7 -18t17 -7h37v922h185v-1346q0 -22 -16 -37.5t-38 -15.5h-323q-22 0 -38 15.5t-16 37.5v199h185v-84q0 -10 6.5 -17t17.5 -7h13q10 0 17 7t7 17v166h-192q-22 0 -38 15.5t-16 37.5z
" />
    <glyph glyph-name="Dcroat" unicode="&#x110;" horiz-adv-x="481" 
d="M461 1380v-1327q0 -22 -15.5 -37.5t-37.5 -15.5h-377v625h-31v184h31v625h377q22 0 37.5 -16t15.5 -38zM276 168v1098q0 10 -7 17t-17 7h-37v-481h29v-184h-29v-482h37q10 0 17 7t7 18z" />
    <glyph glyph-name="dcroat" unicode="&#x111;" 
d="M20 1012q0 22 16 37.5t38 15.5h192v61h-84v185h84v172h185v-172h20v-185h-20v-1126h-377q-22 0 -38 15.5t-16 37.5v959zM205 168q0 -11 7 -18t17 -7h37v779h-37q-10 0 -17 -7t-7 -18v-729z" />
    <glyph glyph-name="dotlessi" unicode="&#x131;" horiz-adv-x="225" 
d="M20 1065h185v-1065h-185v1065z" />
    <glyph glyph-name="Lslash" unicode="&#x141;" horiz-adv-x="296" 
d="M20 0v602l-20 -14v184l20 14v648h185v-516l39 28v-184l-39 -29v-590h82v-143h-267z" />
    <glyph glyph-name="lslash" unicode="&#x142;" horiz-adv-x="266" 
d="M41 0v610l-31 -22v184l31 23v680h184v-551l31 22v-184l-31 -23v-739h-184z" />
    <glyph glyph-name="OE" unicode="&#x152;" horiz-adv-x="542" 
d="M74 0q-22 0 -38 15.5t-16 37.5v1327q0 22 16 38t38 16h458v-144h-81v-502h81v-143h-81v-502h81v-143h-458zM266 168v1098q0 10 -7 17t-17 7h-13q-11 0 -17.5 -7t-6.5 -17v-1098q0 -11 7 -18t17 -7h13q10 0 17 7t7 18z" />
    <glyph glyph-name="oe" unicode="&#x153;" horiz-adv-x="716" 
d="M74 0q-22 0 -38 15.5t-16 37.5v959q0 22 16 37.5t38 15.5h569q22 0 37.5 -15.5t15.5 -37.5v-518q0 -22 -15.5 -38t-37.5 -16h-192v-272q0 -11 7 -18t17 -7h12q11 0 18 7.5t7 17.5v211h184v-326q0 -22 -15.5 -37.5t-37.5 -15.5h-569zM229 143h13q10 0 17 7t7 18v729
q0 11 -7 18t-17 7h-13q-10 0 -17 -7t-7 -18v-729q0 -11 7 -18t17 -7zM451 584h36q11 0 18 7t7 17v289q0 11 -7 18t-18 7h-12q-10 0 -17 -7t-7 -18v-313z" />
    <glyph glyph-name="Scaron" unicode="&#x160;" 
d="M424 1700l-123 -225h-131l-123 225h170l19 -189l18 189h170zM86 645q-28 0 -47 19t-19 47v669q0 22 16 38t38 16h323q22 0 38 -16t16 -38v-555h-185v441q0 10 -7 17t-17 7h-13q-11 0 -17.5 -7t-6.5 -17v-453q0 -11 7 -18t17 -7h156q28 0 47 -18.5t19 -46.5v-670
q0 -22 -16 -37.5t-38 -15.5h-323q-22 0 -38 15.5t-16 37.5v555h185v-440q0 -11 7 -18t17 -7h13q10 0 17 7t7 18v453q0 11 -7 17.5t-17 6.5h-156z" />
    <glyph glyph-name="scaron" unicode="&#x161;" 
d="M424 1331l-123 -225h-131l-123 225h170l19 -188l18 188h170zM86 598q-28 0 -47 19t-19 47v348q0 22 16 37.5t38 15.5h323q22 0 38 -15.5t16 -37.5v-234h-185v119q0 11 -7 18t-17 7h-13q-10 0 -17 -7t-7 -18v-131q0 -11 7 -18t17 -7h156q28 0 47 -18.5t19 -46.5v-623
q0 -22 -16 -37.5t-38 -15.5h-323q-22 0 -38 15.5t-16 37.5v508h185v-393q0 -11 7 -18t17 -7h13q10 0 17 7t7 18v405q0 11 -7 18t-17 7h-156z" />
    <glyph glyph-name="Ydieresis" unicode="&#x178;" horiz-adv-x="419" 
d="M29 1493v184h164v-184h-164zM227 1493v184h164v-184h-164zM207 694h4l27 740h172l-109 -1076v-360h-184v360l-107 1076h172z" />
    <glyph glyph-name="Zcaron" unicode="&#x17d;" horiz-adv-x="319" 
d="M178 1700h170l-123 -225h-131l-123 225h170l19 -189zM10 0v143l125 1147h-125v144h299v-144l-125 -1147h125v-143h-299z" />
    <glyph glyph-name="zcaron" unicode="&#x17e;" horiz-adv-x="339" 
d="M188 1331h170l-122 -225h-132l-122 225h170l18 -188zM20 0v143l125 779h-125v143h299v-143l-124 -779h124v-143h-299z" />
    <glyph glyph-name="florin" unicode="&#x192;" horiz-adv-x="399" 
d="M125 127v795h-82v143h82v365q0 22 16 37.5t39 15.5h209v-144h-55q-11 0 -18 -7t-7 -17v-250h80v-143h-80v-824q0 -175 -98 -290t-283 -156v123q107 41 152 121t45 231z" />
    <glyph glyph-name="circumflex" unicode="&#x2c6;" horiz-adv-x="417" 
d="M227 1106l-18 188l-19 -188h-170l123 225h131l123 -225h-170z" />
    <glyph glyph-name="caron" unicode="&#x2c7;" horiz-adv-x="417" 
d="M227 1331h170l-123 -225h-131l-123 225h170l19 -188z" />
    <glyph glyph-name="breve" unicode="&#x2d8;" horiz-adv-x="319" 
d="M158 1120q-66 0 -102 58.5t-36 173.5h58q0 -88 80 -88q84 0 84 88h57q0 -112 -37.5 -172t-103.5 -60z" />
    <glyph glyph-name="dotaccent" unicode="&#x2d9;" horiz-adv-x="225" 
d="M20 1124v185h185v-185h-185z" />
    <glyph glyph-name="ring" unicode="&#x2da;" horiz-adv-x="331" 
d="M16 1251q0 62 43.5 105t106.5 43q61 0 104 -43t43 -105q0 -61 -42.5 -104t-104.5 -43q-63 0 -106.5 42.5t-43.5 104.5zM125 1251q0 -17 12 -28t29 -11q16 0 27.5 11t11.5 28t-11.5 28t-27.5 11q-17 0 -29 -11t-12 -28z" />
    <glyph glyph-name="ogonek" unicode="&#x2db;" horiz-adv-x="266" 
d="M109 6h141v-2q-55 -63 -55 -131q0 -80 57 -119h-158q-35 12 -54.5 41t-19.5 68q0 83 89 143z" />
    <glyph glyph-name="tilde" unicode="&#x2dc;" horiz-adv-x="319" 
d="M299 1358q0 -124 -21.5 -179t-68.5 -55q-44 0 -68 52q-16 36 -43 36q-44 0 -47 -79h-31q0 122 21.5 177.5t67.5 55.5q43 0 67 -49q19 -39 45 -39q44 0 47 80h31z" />
    <glyph glyph-name="hungarumlaut" unicode="&#x2dd;" horiz-adv-x="509" 
d="M98 1331h191l-150 -225h-119zM299 1331h190l-149 -225h-119z" />
    <glyph glyph-name="uni03BC" unicode="&#x3bc;" horiz-adv-x="669" 
d="M20 -410v1500h185v-531q0 -175 23 -279t61 -104q56 0 104 250.5t72 644.5v19h184v-1090h-184v166q-67 -191 -148 -191q-48 0 -112 70v-455h-185z" />
    <glyph glyph-name="endash" unicode="&#x2013;" horiz-adv-x="833" 
d="M10 522v185h813v-185h-813z" />
    <glyph glyph-name="emdash" unicode="&#x2014;" horiz-adv-x="1454" 
d="M10 522v185h1434v-185h-1434z" />
    <glyph glyph-name="quoteleft" unicode="&#x2018;" horiz-adv-x="262" 
d="M10 1079l107 355h135l-64 -355h-178z" />
    <glyph glyph-name="quoteright" unicode="&#x2019;" horiz-adv-x="262" 
d="M10 1079l64 355h178l-107 -355h-135z" />
    <glyph glyph-name="quotesinglbase" unicode="&#x201a;" horiz-adv-x="262" 
d="M10 -170l64 354h178l-107 -354h-135z" />
    <glyph glyph-name="quotedblleft" unicode="&#x201c;" horiz-adv-x="460" 
d="M209 1079l106 355h136l-64 -355h-178zM10 1079l107 355h135l-64 -355h-178z" />
    <glyph glyph-name="quotedblright" unicode="&#x201d;" horiz-adv-x="460" 
d="M209 1079l63 355h179l-107 -355h-135zM10 1079l64 355h178l-107 -355h-135z" />
    <glyph glyph-name="quotedblbase" unicode="&#x201e;" horiz-adv-x="456" 
d="M10 -170l64 354h178l-107 -354h-135zM205 -170l63 354h178l-106 -354h-135z" />
    <glyph glyph-name="dagger" unicode="&#x2020;" horiz-adv-x="491" 
d="M154 0v1028h-144v143h144v340h184v-340h143v-143h-143v-1028h-184z" />
    <glyph glyph-name="daggerdbl" unicode="&#x2021;" horiz-adv-x="491" 
d="M10 1028v143h144v340h184v-340h143v-143h-143v-541h143v-143h-143v-344h-184v344h-144v143h144v541h-144z" />
    <glyph glyph-name="bullet" unicode="&#x2022;" horiz-adv-x="442" 
d="M20 743q0 80 60 139.5t141 59.5t141 -59.5t60 -139.5q0 -82 -59.5 -141t-141.5 -59t-141.5 59t-59.5 141z" />
    <glyph glyph-name="ellipsis" unicode="&#x2026;" horiz-adv-x="675" 
d="M20 0v184h185v-184h-185zM246 0v184h184v-184h-184zM471 0v184h184v-184h-184z" />
    <glyph glyph-name="perthousand" unicode="&#x2030;" horiz-adv-x="1574" 
d="M451 1229v-414q0 -89 -63 -151t-155 -62q-89 0 -151 62t-62 151v414q0 89 63 151t155 62q89 0 151 -62t62 -151zM248 0l428 1434h182l-428 -1434h-182zM266 776v492q0 12 -8.5 21t-21.5 9q-12 0 -21.5 -9t-9.5 -21v-492q0 -12 9 -21.5t22 -9.5q12 0 21 9.5t9 21.5z
M1083 618v-413q0 -90 -62.5 -151.5t-154.5 -61.5q-89 0 -151 62t-62 151v413q0 90 62.5 151.5t154.5 61.5q89 0 151 -62t62 -151zM1554 618v-413q0 -90 -62.5 -151.5t-154.5 -61.5q-89 0 -151 62t-62 151v413q0 90 62.5 151.5t154.5 61.5q89 0 151 -62t62 -151zM899 166v491
q0 12 -9 21.5t-22 9.5q-12 0 -21 -9.5t-9 -21.5v-491q0 -12 8.5 -21.5t21.5 -9.5q12 0 21.5 9.5t9.5 21.5zM1370 166v491q0 12 -9 21.5t-22 9.5q-12 0 -21 -9.5t-9 -21.5v-491q0 -12 8.5 -21.5t21.5 -9.5q12 0 21.5 9.5t9.5 21.5z" />
    <glyph glyph-name="guilsinglleft" unicode="&#x2039;" horiz-adv-x="319" 
d="M127 174l-117 375l117 375h182l-116 -375l116 -375h-182z" />
    <glyph glyph-name="guilsinglright" unicode="&#x203a;" horiz-adv-x="319" 
d="M193 174h-183l117 375l-117 375h183l116 -375z" />
    <glyph glyph-name="fraction" unicode="&#x2044;" horiz-adv-x="651" 
d="M20 0l429 1434h182l-428 -1434h-183z" />
    <glyph glyph-name="Euro" unicode="&#x20ac;" horiz-adv-x="493" 
d="M262 143h37v176h184v-319h-377q-22 0 -37.5 15.5t-15.5 37.5v512h-43l21 144h22v24h-43l21 144h22v503q0 22 15.5 38t37.5 16h377v-320h-184v176h-37q-10 0 -17 -7t-7 -17v-389h133l-21 -144h-112v-24h108l-20 -144h-88v-397q0 -11 7 -18t17 -7z" />
    <glyph glyph-name="trademark" unicode="&#x2122;" horiz-adv-x="860" 
d="M92 850v440h-82v144h348v-144h-82v-440h-184zM389 850v584h146l79 -232l80 232h146v-584h-185v141l-41 -114l-41 114v-141h-184z" />
    <glyph glyph-name="minus" unicode="&#x2212;" horiz-adv-x="477" 
d="M20 518v184h437v-184h-437z" />
    <glyph glyph-name="uniE01A" unicode="&#xe01a;" horiz-adv-x="655" 
d="M20 0v1380q0 22 16 38t38 16h508q22 0 37.5 -16t15.5 -38v-1380h-184v440h-246v-440h-185zM205 1266v-682h246v682q0 10 -7 17t-18 7h-197q-11 0 -17.5 -7t-6.5 -17z" />
    <glyph glyph-name="uniE01C" unicode="&#xe01c;" horiz-adv-x="655" 
d="M635 1380v-612q0 -42 -39 -51q39 -9 39 -51v-613q0 -25 -14 -39t-39 -14h-562v1434h562q25 0 39 -14.5t14 -39.5zM451 813v453q0 10 -7 17t-18 7h-221v-502h221q10 0 17.5 7t7.5 18zM451 168v453q0 10 -7 17t-18 7h-221v-502h221q10 0 17.5 7.5t7.5 17.5z" />
    <glyph glyph-name="uniE01D" unicode="&#xe01d;" horiz-adv-x="655" 
d="M229 143h222v465h184v-608h-561q-22 0 -38 15.5t-16 37.5v1327q0 22 16 38t38 16h561v-609h-184v465h-222q-11 0 -17.5 -7t-6.5 -17v-1098q0 -11 7 -18t17 -7z" />
    <glyph glyph-name="uniE01E" unicode="&#xe01e;" horiz-adv-x="655" 
d="M635 1380v-1327q0 -25 -14 -39t-39 -14h-562v1434h562q25 0 39 -14.5t14 -39.5zM451 168v1098q0 10 -7 17t-18 7h-221v-1147h221q10 0 17.5 7.5t7.5 17.5z" />
    <glyph glyph-name="uniE01F" unicode="&#xe01f;" horiz-adv-x="614" 
d="M20 0v1434h584v-144h-399v-502h399v-143h-399v-502h399v-143h-584z" />
    <glyph glyph-name="uniE025" unicode="&#xe025;" horiz-adv-x="614" 
d="M20 0v1434h584v-144h-399v-502h399v-143h-399v-645h-185z" />
    <glyph glyph-name="uniE026" unicode="&#xe026;" horiz-adv-x="655" 
d="M20 53v1327q0 22 16 38t38 16h561v-611h-184v467h-222q-11 0 -17.5 -7t-6.5 -17v-1098q0 -11 7 -18t17 -7h222v475h-45v144h229v-762h-561q-22 0 -38 15.5t-16 37.5z" />
    <glyph glyph-name="uniE027" unicode="&#xe027;" horiz-adv-x="655" 
d="M20 0v1434h185v-641h246v641h184v-1434h-184v649h-246v-649h-185z" />
    <glyph glyph-name="uniE029" unicode="&#xe029;" horiz-adv-x="655" 
d="M582 0h-572v143h416q10 0 17.5 7.5t7.5 17.5v1122h-441v144h625v-1381q0 -25 -14 -39t-39 -14z" />
    <glyph glyph-name="uniE02A" unicode="&#xe02a;" horiz-adv-x="686" 
d="M676 1434l-299 -717l299 -717h-193l-268 645h-10v-645h-185v1434h185v-646h10l268 646h193z" />
    <glyph glyph-name="uniE02B" unicode="&#xe02b;" horiz-adv-x="614" 
d="M20 0v1434h185v-1291h399v-143h-584z" />
    <glyph glyph-name="uniE02C" unicode="&#xe02c;" horiz-adv-x="655" 
d="M20 0v1434h146l162 -273l161 273h146v-1434h-184v1053l-123 -176l-123 176v-1053h-185z" />
    <glyph glyph-name="uniE02D" unicode="&#xe02d;" horiz-adv-x="655" 
d="M635 1434v-1434h-184v905l-246 266v-1171h-185v1434h181l250 -265v265h184z" />
    <glyph glyph-name="uniE02E" unicode="&#xe02e;" horiz-adv-x="655" 
d="M635 1380v-1327q0 -22 -15.5 -37.5t-37.5 -15.5h-508q-22 0 -38 15.5t-16 37.5v1327q0 22 16 38t38 16h508q22 0 37.5 -16t15.5 -38zM451 168v1098q0 10 -7 17t-18 7h-197q-11 0 -17.5 -7t-6.5 -17v-1098q0 -11 7 -18t17 -7h197q10 0 17.5 7.5t7.5 17.5z" />
    <glyph glyph-name="uniE02F" unicode="&#xe02f;" horiz-adv-x="655" 
d="M635 1380v-837q0 -22 -15.5 -38t-37.5 -16h-377v-489h-185v1434h562q22 0 37.5 -16t15.5 -38zM451 657v609q0 10 -7 17t-18 7h-221v-657h221q11 0 18 7t7 17z" />
    <glyph glyph-name="uniE034" unicode="&#xe034;" horiz-adv-x="655" 
d="M250 0h-176q-22 0 -38 15.5t-16 37.5v1327q0 22 16 38t38 16h508q22 0 37.5 -16t15.5 -38v-1327q0 -22 -15.5 -37.5t-37.5 -15.5h-166l53 -125h-166zM451 168v1098q0 10 -7 17t-18 7h-197q-11 0 -17.5 -7t-6.5 -17v-1098q0 -11 7 -18t17 -7h197q10 0 17.5 7.5t7.5 17.5z
" />
    <glyph glyph-name="uniE035" unicode="&#xe035;" horiz-adv-x="655" 
d="M635 0h-184v559q0 11 -7.5 18t-17.5 7h-221v-584h-185v1434h562q22 0 37.5 -16t15.5 -38v-673q0 -17 -12 -32.5t-29 -19.5q17 -5 29 -19.5t12 -31.5v-604zM451 752v514q0 10 -7 17t-18 7h-221v-563h221q10 0 17.5 7.5t7.5 17.5z" />
    <glyph glyph-name="uniE036" unicode="&#xe036;" horiz-adv-x="655" 
d="M86 645q-28 0 -47 19t-19 47v669q0 22 16 38t38 16h508q22 0 37.5 -16t15.5 -38v-555h-184v441q0 10 -7 17t-18 7h-197q-11 0 -17.5 -7t-6.5 -17v-453q0 -11 7 -18t17 -7h340q28 0 47 -18.5t19 -46.5v-670q0 -22 -15.5 -37.5t-37.5 -15.5h-508q-22 0 -38 15.5t-16 37.5
v555h185v-440q0 -11 7 -18t17 -7h197q10 0 17.5 7.5t7.5 17.5v453q0 10 -7 17t-18 7h-340z" />
    <glyph glyph-name="uniE037" unicode="&#xe037;" horiz-adv-x="655" 
d="M236 0v1290h-226v144h635v-144h-225v-1290h-184z" />
    <glyph glyph-name="uniE038" unicode="&#xe038;" horiz-adv-x="655" 
d="M645 1434v-1381q0 -22 -15.5 -37.5t-37.5 -15.5h-518q-22 0 -38 15.5t-16 37.5v1381h185v-1266q0 -11 7 -18t17 -7h207q10 0 17.5 7.5t7.5 17.5v1266h184z" />
    <glyph glyph-name="uniE039" unicode="&#xe039;" horiz-adv-x="655" 
d="M471 1434h174l-149 -1434h-336l-150 1434h174l142 -1287h4z" />
    <glyph glyph-name="uniE03B" unicode="&#xe03b;" horiz-adv-x="655" 
d="M20 1434h185v-1053l123 176l123 -176v1053h184v-1434h-146l-161 272l-162 -272h-146v1434z" />
    <glyph glyph-name="uniE03C" unicode="&#xe03c;" horiz-adv-x="655" 
d="M328 596l-140 -596h-178l168 713l-168 721h178l140 -607h4l135 607h178l-166 -721l166 -713h-178l-135 596h-4z" />
    <glyph glyph-name="uniE03D" unicode="&#xe03d;" horiz-adv-x="655" 
d="M326 776h4l137 658h178l-225 -1076v-360h-184v360l-226 1076h178z" />
    <glyph glyph-name="uniE03E" unicode="&#xe03e;" horiz-adv-x="655" 
d="M10 0v143l449 1147h-449v144h635v-144l-448 -1147h448v-143h-635z" />
    <glyph glyph-name="uniE03F" unicode="&#xe03f;" horiz-adv-x="921" 
d="M20 0v1380q0 22 16 38t38 16h774q22 0 37.5 -16t15.5 -38v-1380h-184v440h-512v-440h-185zM205 1266v-682h512v682q0 10 -7 17t-18 7h-463q-11 0 -17.5 -7t-6.5 -17z" />
    <glyph glyph-name="uniE047" unicode="&#xe047;" horiz-adv-x="921" 
d="M901 1380v-612q0 -42 -39 -51q39 -9 39 -51v-613q0 -25 -14 -39t-39 -14h-828v1434h828q25 0 39 -14.5t14 -39.5zM717 813v453q0 10 -7 17t-18 7h-487v-502h487q10 0 17.5 7t7.5 18zM717 168v453q0 10 -7 17t-18 7h-487v-502h487q10 0 17.5 7.5t7.5 17.5z" />
    <glyph glyph-name="uniE048" unicode="&#xe048;" horiz-adv-x="921" 
d="M229 143h488v465h184v-608h-827q-22 0 -38 15.5t-16 37.5v1327q0 22 16 38t38 16h827v-609h-184v465h-488q-11 0 -17.5 -7t-6.5 -17v-1098q0 -11 7 -18t17 -7z" />
    <glyph glyph-name="uniE049" unicode="&#xe049;" horiz-adv-x="921" 
d="M901 1380v-1327q0 -25 -14 -39t-39 -14h-828v1434h828q25 0 39 -14.5t14 -39.5zM717 168v1098q0 10 -7 17t-18 7h-487v-1147h487q10 0 17.5 7.5t7.5 17.5z" />
    <glyph glyph-name="uniE04A" unicode="&#xe04a;" horiz-adv-x="876" 
d="M20 0v1434h846v-144h-661v-502h661v-143h-661v-502h661v-143h-846z" />
    <glyph glyph-name="uniE04B" unicode="&#xe04b;" horiz-adv-x="876" 
d="M20 0v1434h846v-144h-661v-502h661v-143h-661v-645h-185z" />
    <glyph glyph-name="uniE04C" unicode="&#xe04c;" horiz-adv-x="921" 
d="M20 53v1327q0 22 16 38t38 16h827v-611h-184v467h-488q-11 0 -17.5 -7t-6.5 -17v-1098q0 -11 7 -18t17 -7h488v475h-45v144h229v-762h-827q-22 0 -38 15.5t-16 37.5z" />
    <glyph glyph-name="uniE04D" unicode="&#xe04d;" horiz-adv-x="921" 
d="M20 0v1434h185v-641h512v641h184v-1434h-184v649h-512v-649h-185z" />
    <glyph glyph-name="uniE04F" unicode="&#xe04f;" horiz-adv-x="921" 
d="M848 0h-838v143h682q10 0 17.5 7.5t7.5 17.5v1122h-707v144h891v-1381q0 -25 -14 -39t-39 -14z" />
    <glyph glyph-name="uniE050" unicode="&#xe050;" horiz-adv-x="921" 
d="M911 1434l-530 -717l530 -717h-221l-475 645h-10v-645h-185v1434h185v-646h10l475 646h221z" />
    <glyph glyph-name="uniE051" unicode="&#xe051;" horiz-adv-x="880" 
d="M20 0v1434h185v-1291h665v-143h-850z" />
    <glyph glyph-name="uniE05A" unicode="&#xe05a;" horiz-adv-x="921" 
d="M20 0v1434h146l307 -293l283 293h145v-1434h-184v1135l-244 -258l-268 258v-1135h-185z" />
    <glyph glyph-name="uniE05B" unicode="&#xe05b;" horiz-adv-x="921" 
d="M901 1434v-1434h-184v905l-512 314v-1219h-185v1434h181l516 -316v316h184z" />
    <glyph glyph-name="uniE05C" unicode="&#xe05c;" horiz-adv-x="921" 
d="M901 1380v-1327q0 -22 -15.5 -37.5t-37.5 -15.5h-774q-22 0 -38 15.5t-16 37.5v1327q0 22 16 38t38 16h774q22 0 37.5 -16t15.5 -38zM717 168v1098q0 10 -7 17t-18 7h-463q-11 0 -17.5 -7t-6.5 -17v-1098q0 -11 7 -18t17 -7h463q10 0 17.5 7.5t7.5 17.5z" />
    <glyph glyph-name="uniE05D" unicode="&#xe05d;" horiz-adv-x="921" 
d="M901 1380v-837q0 -22 -15.5 -38t-37.5 -16h-643v-489h-185v1434h828q22 0 37.5 -16t15.5 -38zM717 657v609q0 10 -7 17t-18 7h-487v-657h487q11 0 18 7t7 17z" />
    <glyph glyph-name="uniE05E" unicode="&#xe05e;" horiz-adv-x="921" 
d="M383 0h-309q-22 0 -38 15.5t-16 37.5v1327q0 22 16 38t38 16h774q22 0 37.5 -16t15.5 -38v-1327q0 -22 -15.5 -37.5t-37.5 -15.5h-299l53 -125h-166zM717 168v1098q0 10 -7 17t-18 7h-463q-11 0 -17.5 -7t-6.5 -17v-1098q0 -11 7 -18t17 -7h463q10 0 17.5 7.5t7.5 17.5z
" />
    <glyph glyph-name="uniE05F" unicode="&#xe05f;" horiz-adv-x="921" 
d="M901 0h-184v559q0 11 -7.5 18t-17.5 7h-487v-584h-185v1434h828q22 0 37.5 -16t15.5 -38v-673q0 -17 -12 -32.5t-29 -19.5q17 -5 29 -19.5t12 -31.5v-604zM717 752v514q0 10 -7 17t-18 7h-487v-563h487q10 0 17.5 7.5t7.5 17.5z" />
    <glyph glyph-name="uniE06A" unicode="&#xe06a;" horiz-adv-x="921" 
d="M86 645q-28 0 -47 19t-19 47v669q0 22 16 38t38 16h774q22 0 37.5 -16t15.5 -38v-555h-184v441q0 10 -7 17t-18 7h-463q-11 0 -17.5 -7t-6.5 -17v-453q0 -11 7 -18t17 -7h607q28 0 46.5 -18.5t18.5 -46.5v-670q0 -22 -15.5 -37.5t-37.5 -15.5h-774q-22 0 -38 15.5
t-16 37.5v555h185v-440q0 -11 7 -18t17 -7h463q10 0 17.5 7.5t7.5 17.5v453q0 10 -7 17t-18 7h-606z" />
    <glyph glyph-name="uniE06B" unicode="&#xe06b;" horiz-adv-x="921" 
d="M369 0v1290h-359v144h901v-144h-358v-1290h-184z" />
    <glyph glyph-name="uniE06C" unicode="&#xe06c;" horiz-adv-x="921" 
d="M901 1432v-1379q0 -22 -15.5 -37.5t-37.5 -15.5h-774q-22 0 -38 15.5t-16 37.5v1379h185v-1264q0 -11 7 -18t17 -7h463q10 0 17.5 7.5t7.5 17.5v1264h184z" />
    <glyph glyph-name="uniE06D" unicode="&#xe06d;" horiz-adv-x="921" 
d="M727 1434h184l-282 -1434h-336l-283 1434h185l264 -1328h4z" />
    <glyph glyph-name="uniE06E" unicode="&#xe06e;" horiz-adv-x="921" 
d="M20 1434h185v-1135l268 258l244 -258v1135h184v-1434h-145l-283 293l-307 -293h-146v1434z" />
    <glyph glyph-name="uniE06F" unicode="&#xe06f;" horiz-adv-x="921" 
d="M461 596l-256 -596h-195l301 713l-301 721h195l256 -607h4l252 607h194l-299 -721l299 -713h-194l-252 596h-4z" />
    <glyph glyph-name="uniE073" unicode="&#xe073;" horiz-adv-x="921" 
d="M459 653h4l260 781h188l-358 -1076v-360h-184v360l-359 1076h189z" />
    <glyph glyph-name="uniE074" unicode="&#xe074;" horiz-adv-x="921" 
d="M10 0v143l692 1147h-692v144h901v-144l-692 -1147h692v-143h-901z" />
    </font>
</defs>
</svg>
