<svg
   width="32.535416mm"
   height="9.6080704mm"
   viewBox="0 0 32.535416 9.6080704"
   version="1.1"
   id="delay_button"
   fx="delay"
   class="fx_svg"
   xml:space="preserve"
   inkscape:version="1.3 (0e150ed6c4, 2023-07-21)"
   sodipodi:docname="drawing.svg"
   xmlns:inkscape="http://www.inkscape.org/namespaces/inkscape"
   xmlns:sodipodi="http://sodipodi.sourceforge.net/DTD/sodipodi-0.dtd"
   xmlns="http://www.w3.org/2000/svg"
   xmlns:svg="http://www.w3.org/2000/svg"><sodipodi:namedview
     id="namedview1"
     pagecolor="#505050"
     bordercolor="#eeeeee"
     borderopacity="1"
     inkscape:showpageshadow="0"
     inkscape:pageopacity="0"
     inkscape:pagecheckerboard="0"
     inkscape:deskcolor="#505050"
     inkscape:document-units="mm"
     inkscape:zoom="2.9757807"
     inkscape:cx="396.53459"
     inkscape:cy="1417.9472"
     inkscape:window-width="2560"
     inkscape:window-height="1377"
     inkscape:window-x="-8"
     inkscape:window-y="-8"
     inkscape:window-maximized="1"
     inkscape:current-layer="layer1"
     showgrid="false" /><defs
     id="defs1" /><g
     inkscape:label="Layer 1"
     inkscape:groupmode="layer"
     id="layer1"
     transform="translate(-211.97211,-351.74419)"><g
       id="g3"><path
         style="fill:#ffffff;stroke-width:0.352616;stroke-dashoffset:1.36063"
         d="m 211.9721,360.81013 v -6.79291 l 2.27301,-2.27301 h 29.49167 l 0.77074,0.77073 v 7.92941 l -0.90791,0.90793 h -31.00048 z"
         id="path2-4-0-8"
         class="bg"
         sodipodi:nodetypes="ccccccccc" /><path
         d="m 225.84409,357.59351 v -2.78211 h 2.31843 q 0.12751,0 0.23184,0.0618 0.10819,0.0618 0.17002,0.17002 0.0618,0.10433 0.0618,0.23184 v 1.85474 q 0,0.12751 -0.0618,0.23571 -0.0618,0.10433 -0.17002,0.16615 -0.10433,0.0618 -0.23184,0.0618 z m 0.46369,-0.31299 h 1.85474 q 0.0618,0 0.10433,-0.0425 0.0464,-0.0464 0.0464,-0.10819 v -1.85474 q 0,-0.0618 -0.0464,-0.10433 -0.0425,-0.0464 -0.10433,-0.0464 h -1.85474 q -0.0618,0 -0.10819,0.0464 -0.0425,0.0425 -0.0425,0.10433 v 1.85474 q 0,0.0618 0.0425,0.10819 0.0464,0.0425 0.10819,0.0425 z m 3.7742,0.31299 q -0.12751,0 -0.23571,-0.0618 -0.10432,-0.0657 -0.17001,-0.17002 -0.0618,-0.10819 -0.0618,-0.2357 v -1.30605 q 0,-0.12751 0.0618,-0.23184 0.0657,-0.10819 0.17001,-0.17002 0.1082,-0.0657 0.23571,-0.0657 h 1.34469 q 0.13137,0 0.2357,0.0657 0.1082,0.0618 0.17002,0.17002 0.0657,0.10433 0.0657,0.23184 v 0.81145 h -1.9668 v 0.4946 q 0,0.0618 0.0425,0.10819 0.0464,0.0425 0.10819,0.0425 h 1.8161 v 0.31686 h -1.8161 z m -0.1507,-1.279 h 1.64608 v -0.4946 q 0,-0.0618 -0.0464,-0.10433 -0.0425,-0.0464 -0.10433,-0.0464 h -1.34469 q -0.0618,0 -0.10819,0.0464 -0.0425,0.0425 -0.0425,0.10433 z m 3.32597,1.279 q -0.12751,0 -0.2357,-0.0618 -0.10433,-0.0657 -0.17002,-0.17002 -0.0618,-0.10819 -0.0618,-0.2357 v -2.50776 h 0.31686 v 2.50776 q 0,0.0618 0.0425,0.10819 0.0464,0.0425 0.10819,0.0425 h 0.37868 v 0.31686 h -0.37868 z m 1.70308,0 q -0.12751,0 -0.23571,-0.0618 -0.10432,-0.0657 -0.17001,-0.17002 -0.0618,-0.10819 -0.0618,-0.2357 v -0.81145 h 1.96293 v -0.4946 q 0,-0.0618 -0.0464,-0.10433 -0.0425,-0.0464 -0.10433,-0.0464 h -1.81224 v -0.31685 h 1.81224 q 0.13137,0 0.2357,0.0657 0.1082,0.0618 0.17002,0.17002 0.0657,0.10433 0.0657,0.23184 v 1.7736 z m 0,-0.31686 h 1.49538 v -0.64529 h -1.64608 v 0.4946 q 0,0.0618 0.0425,0.10819 0.0464,0.0425 0.10819,0.0425 z m 3.16369,1.20559 v 0 -0.32072 h 1.39878 q 0.0618,0 0.10433,-0.0464 0.0464,-0.0425 0.0464,-0.10433 v -0.41731 h -1.49539 q -0.12751,0 -0.2357,-0.0618 -0.10433,-0.0657 -0.17002,-0.17002 -0.0618,-0.10819 -0.0618,-0.2357 v -1.76587 h 0.31685 v 1.76587 q 0,0.0618 0.0425,0.10819 0.0464,0.0425 0.10819,0.0425 h 1.34469 q 0.0618,0 0.10433,-0.0425 0.0464,-0.0464 0.0464,-0.10819 v -1.76587 h 0.31685 v 2.65073 q 0,0.13138 -0.0618,0.23571 -0.0618,0.10819 -0.17002,0.17002 -0.10432,0.0657 -0.2357,0.0657 z"
         id="text4-3-5"
         style="font-size:3.86404px;font-family:Orbitron;-inkscape-font-specification:Orbitron;letter-spacing:0.574778px;fill:#2e2e2e;stroke-width:0.0684573;stroke-dashoffset:1.36063"
         aria-label="Delay" /><path
         class="initial"
         style="fill:#2e2e2e;fill-opacity:1;stroke-width:0.352616;stroke-dashoffset:1.36063"
         d="m 212.79437,360.53807 v -5.94874 l 2.05066,-2.05065 h 7.14955 c 0,0 0.11084,8.29496 0,8.29496 -0.11084,0 -9.20021,0 -9.20021,0 z"
         id="path3-1-6-7" /><path
         d="m 214.75244,359.60852 v -5.84476 h 5.33335 v 0.65754 h -4.67581 v 1.93201 h 3.7585 v 0.66566 h -3.7585 v 1.93202 h 4.67581 v 0.65753 z"
         id="text5-6-8"
         style="font-size:8.11772px;font-family:Orbitron;-inkscape-font-specification:Orbitron;letter-spacing:1.20751px;fill:#ffffff;stroke-width:0.143818;stroke-dashoffset:1.36063"
         aria-label="E" /></g></g></svg>