<svg
  width="41.772579mm"
  height="9.6080704mm"
  viewBox="0 0 41.772579 9.6080704"
  version="1.1"
  id="distortion_button"
  fx="distortion"
  class="fx_svg"
  xml:space="preserve"
  inkscape:version="1.3 (0e150ed6c4, 2023-07-21)"
  sodipodi:docname="drawing.svg"
  xmlns:inkscape="http://www.inkscape.org/namespaces/inkscape"
  xmlns:sodipodi="http://sodipodi.sourceforge.net/DTD/sodipodi-0.dtd"
  xmlns="http://www.w3.org/2000/svg"
  xmlns:svg="http://www.w3.org/2000/svg"><sodipodi:namedview
    id="namedview1"
    pagecolor="#505050"
    bordercolor="#eeeeee"
    borderopacity="1"
    inkscape:showpageshadow="0"
    inkscape:pageopacity="0"
    inkscape:pagecheckerboard="0"
    inkscape:deskcolor="#505050"
    inkscape:document-units="mm"
    inkscape:zoom="2.9757807"
    inkscape:cx="396.53459"
    inkscape:cy="1417.9472"
    inkscape:window-width="2560"
    inkscape:window-height="1377"
    inkscape:window-x="-8"
    inkscape:window-y="-8"
    inkscape:window-maximized="1"
    inkscape:current-layer="layer1"
    showgrid="false" /><defs
    id="defs1" /><g
    inkscape:label="Layer 1"
    inkscape:groupmode="layer"
    id="layer1"
    transform="translate(-108.93363,-351.74419)"><g
      id="g1"><path
        style="fill:#ffffff;stroke-width:0.352616;stroke-dashoffset:1.36063"
        d="m 108.93363,360.81013 v -6.79291 l 2.27302,-2.27301 h 38.72882 l 0.77073,0.77073 v 7.92941 l -0.9079,0.90793 h -40.23763 z"
        id="path2-4-0"
        class="bg"
        sodipodi:nodetypes="ccccccccc" /><path
        d="m 122.80563,358.03784 v -2.78211 h 2.31842 q 0.12751,0 0.23184,0.0618 0.1082,0.0618 0.17002,0.17002 0.0618,0.10432 0.0618,0.23184 v 1.85474 q 0,0.12751 -0.0618,0.2357 -0.0618,0.10433 -0.17002,0.16616 -0.10433,0.0618 -0.23184,0.0618 z m 0.46368,-0.31299 h 1.85474 q 0.0618,0 0.10433,-0.0425 0.0464,-0.0464 0.0464,-0.10819 v -1.85474 q 0,-0.0618 -0.0464,-0.10433 -0.0425,-0.0464 -0.10433,-0.0464 h -1.85474 q -0.0618,0 -0.10819,0.0464 -0.0425,0.0425 -0.0425,0.10433 v 1.85474 q 0,0.0618 0.0425,0.10819 0.0464,0.0425 0.10819,0.0425 z m 3.31052,0.31299 v 0 -2.24114 h 0.31685 v 2.24114 z m 0,-2.65846 v 0 -0.31685 h 0.31685 v 0.31685 z m 1.83059,2.65846 q -0.12751,0 -0.23571,-0.0618 -0.10433,-0.0657 -0.17001,-0.17002 -0.0618,-0.10819 -0.0618,-0.23571 v -0.0309 h 0.31685 v 0.0309 q 0,0.0618 0.0425,0.1082 0.0464,0.0425 0.10819,0.0425 h 1.34469 q 0.0618,0 0.10432,-0.0425 0.0464,-0.0464 0.0464,-0.1082 v -0.3439 q 0,-0.0618 -0.0464,-0.10433 -0.0425,-0.0464 -0.10432,-0.0464 h -1.34469 q -0.12751,0 -0.23571,-0.0618 -0.10433,-0.0657 -0.17001,-0.17002 -0.0618,-0.10819 -0.0618,-0.2357 v -0.3439 q 0,-0.12752 0.0618,-0.23184 0.0657,-0.1082 0.17001,-0.17002 0.1082,-0.0657 0.23571,-0.0657 h 1.34469 q 0.13137,0 0.2357,0.0657 0.1082,0.0618 0.17002,0.17002 0.0657,0.10432 0.0657,0.23184 v 0.0309 h -0.32072 v -0.0309 q 0,-0.0618 -0.0464,-0.10433 -0.0425,-0.0464 -0.10432,-0.0464 h -1.34469 q -0.0618,0 -0.10819,0.0464 -0.0425,0.0425 -0.0425,0.10433 v 0.3439 q 0,0.0618 0.0425,0.10819 0.0464,0.0425 0.10819,0.0425 h 1.34469 q 0.13137,0 0.2357,0.0657 0.1082,0.0618 0.17002,0.17002 0.0657,0.10433 0.0657,0.23184 v 0.3439 q 0,0.12752 -0.0657,0.23571 -0.0618,0.10433 -0.17002,0.17002 -0.10433,0.0618 -0.2357,0.0618 z m 3.24483,0 q -0.13137,0 -0.23957,-0.0618 -0.10433,-0.0657 -0.16615,-0.17002 -0.0618,-0.10819 -0.0618,-0.23571 v -2.50776 h 0.31686 v 0.73417 h 0.96987 v 0.31685 h -0.96987 v 1.45674 q 0,0.0618 0.0425,0.1082 0.0464,0.0425 0.10819,0.0425 h 0.81918 v 0.31685 h -0.81918 z m 2.15131,0 q -0.12751,0 -0.23571,-0.0618 -0.10433,-0.0657 -0.17002,-0.17002 -0.0618,-0.10819 -0.0618,-0.23571 v -1.30604 q 0,-0.12752 0.0618,-0.23184 0.0657,-0.1082 0.17002,-0.17002 0.1082,-0.0657 0.23571,-0.0657 h 1.34468 q 0.13138,0 0.23571,0.0657 0.10819,0.0618 0.17002,0.17002 0.0657,0.10432 0.0657,0.23184 v 1.30604 q 0,0.12752 -0.0657,0.23571 -0.0618,0.10433 -0.17002,0.17002 -0.10433,0.0618 -0.23571,0.0618 z m 0,-0.31685 h 1.34468 q 0.0618,0 0.10433,-0.0425 0.0464,-0.0464 0.0464,-0.1082 v -1.30604 q 0,-0.0618 -0.0464,-0.10433 -0.0425,-0.0464 -0.10433,-0.0464 h -1.34468 q -0.0618,0 -0.10819,0.0464 -0.0425,0.0425 -0.0425,0.10433 v 1.30604 q 0,0.0618 0.0425,0.1082 0.0464,0.0425 0.10819,0.0425 z m 2.74636,0.31685 v 0 -1.77359 q 0,-0.12752 0.0618,-0.23184 0.0657,-0.1082 0.17002,-0.17002 0.10819,-0.0657 0.2357,-0.0657 h 1.25968 v 0.31685 h -1.25968 q -0.0618,0 -0.10819,0.0464 -0.0425,0.0425 -0.0425,0.10433 v 1.77359 z m 3.02458,0 q -0.13138,0 -0.23957,-0.0618 -0.10433,-0.0657 -0.16615,-0.17002 -0.0618,-0.10819 -0.0618,-0.23571 v -2.50776 h 0.31685 v 0.73417 h 0.96988 v 0.31685 h -0.96988 v 1.45674 q 0,0.0618 0.0425,0.1082 0.0464,0.0425 0.10819,0.0425 h 0.81918 v 0.31685 h -0.81918 z m 1.70694,0 v 0 -2.24114 h 0.31685 v 2.24114 z m 0,-2.65846 v 0 -0.31685 h 0.31685 v 0.31685 z m 1.84218,2.65846 q -0.12751,0 -0.2357,-0.0618 -0.10433,-0.0657 -0.17002,-0.17002 -0.0618,-0.10819 -0.0618,-0.23571 v -1.30604 q 0,-0.12752 0.0618,-0.23184 0.0657,-0.1082 0.17002,-0.17002 0.10819,-0.0657 0.2357,-0.0657 h 1.34469 q 0.13138,0 0.2357,0.0657 0.1082,0.0618 0.17002,0.17002 0.0657,0.10432 0.0657,0.23184 v 1.30604 q 0,0.12752 -0.0657,0.23571 -0.0618,0.10433 -0.17002,0.17002 -0.10432,0.0618 -0.2357,0.0618 z m 0,-0.31685 h 1.34469 q 0.0618,0 0.10433,-0.0425 0.0464,-0.0464 0.0464,-0.1082 v -1.30604 q 0,-0.0618 -0.0464,-0.10433 -0.0425,-0.0464 -0.10433,-0.0464 h -1.34469 q -0.0618,0 -0.10819,0.0464 -0.0425,0.0425 -0.0425,0.10433 v 1.30604 q 0,0.0618 0.0425,0.1082 0.0464,0.0425 0.10819,0.0425 z m 2.73478,0.31685 v 0 -2.24114 h 1.8161 q 0.12751,0 0.23184,0.0657 0.10819,0.0618 0.17002,0.17002 0.0657,0.10432 0.0657,0.23184 v 1.77359 h -0.31686 v -1.77359 q 0,-0.0618 -0.0464,-0.10433 -0.0425,-0.0464 -0.10433,-0.0464 h -1.34469 q -0.0618,0 -0.10819,0.0464 -0.0464,0.0425 -0.0464,0.10433 v 1.77359 z"
        id="text4-3"
        style="font-size:3.86404px;font-family:Orbitron;-inkscape-font-specification:Orbitron;letter-spacing:0.574778px;fill:#2e2e2e;stroke-width:0.0684573;stroke-dashoffset:1.36063"
        aria-label="Distortion" /><path
        class="initial"
        style="fill:#2e2e2e;fill-opacity:1;stroke-width:0.352616;stroke-dashoffset:1.36063"
        d="m 109.7559,360.53807 v -5.94874 l 2.05066,-2.05066 h 7.14955 c 0,0 0.11084,8.29496 0,8.29496 -0.11084,0 -9.20021,0 -9.20021,0 z"
        id="path3-1-6" /><path
        d="m 111.71397,359.60852 v -5.84476 h 4.87063 q 0.26789,0 0.48706,0.12989 0.2273,0.12988 0.35718,0.35718 0.12989,0.21917 0.12989,0.48706 v 3.8965 q 0,0.26789 -0.12989,0.49519 -0.12988,0.21917 -0.35718,0.34906 -0.21917,0.12988 -0.48706,0.12988 z m 0.97413,-0.65753 h 3.8965 q 0.12988,0 0.21918,-0.0893 0.0974,-0.0974 0.0974,-0.2273 v -3.8965 q 0,-0.12988 -0.0974,-0.21918 -0.0893,-0.0974 -0.21918,-0.0974 h -3.8965 q -0.12989,0 -0.2273,0.0974 -0.0893,0.0893 -0.0893,0.21918 v 3.8965 q 0,0.12989 0.0893,0.2273 0.0974,0.0893 0.2273,0.0893 z"
        id="text5-6"
        style="font-size:8.11772px;font-family:Orbitron;-inkscape-font-specification:Orbitron;letter-spacing:1.20751px;fill:#ffffff;stroke-width:0.143818;stroke-dashoffset:1.36063"
        aria-label="D" /></g></g></svg>