<svg
  width="36.860764mm"
  height="9.6080704mm"
  viewBox="0 0 36.860764 9.6080704"
  version="1.1"
  id="flanger_button"
  fx="flanger"
  class="fx_svg"
  xml:space="preserve"
  inkscape:version="1.3 (0e150ed6c4, 2023-07-21)"
  sodipodi:docname="drawing.svg"
  xmlns:inkscape="http://www.inkscape.org/namespaces/inkscape"
  xmlns:sodipodi="http://sodipodi.sourceforge.net/DTD/sodipodi-0.dtd"
  xmlns="http://www.w3.org/2000/svg"
  xmlns:svg="http://www.w3.org/2000/svg"><sodipodi:namedview
    id="namedview1"
    pagecolor="#505050"
    bordercolor="#eeeeee"
    borderopacity="1"
    inkscape:showpageshadow="0"
    inkscape:pageopacity="0"
    inkscape:pagecheckerboard="0"
    inkscape:deskcolor="#505050"
    inkscape:document-units="mm"
    inkscape:zoom="0.74394518"
    inkscape:cx="606.89956"
    inkscape:cy="1319.3176"
    inkscape:window-width="2560"
    inkscape:window-height="1377"
    inkscape:window-x="-8"
    inkscape:window-y="-8"
    inkscape:window-maximized="1"
    inkscape:current-layer="layer1"
    showgrid="false" /><defs
    id="defs1" /><g
    inkscape:label="Layer 1"
    inkscape:groupmode="layer"
    id="layer1"
    transform="translate(-64.048921,-351.74419)"><g
      id="g8"><path
        style="fill:#ffffff;stroke-width:0.352616;stroke-dashoffset:1.36063"
        d="m 64.04892,360.81013 v -6.79291 l 2.273012,-2.27301 h 33.817018 l 0.77073,0.77073 v 7.92941 l -0.9079,0.90793 H 64.675954 Z"
        id="path2-4"
        class="bg"
        sodipodi:nodetypes="ccccccccc" />
        <path d="m 77.920907,357.59543 v -2.78211 h 2.538674 v 0.31299 h -2.225687 v 0.91964 h 1.789051 v 0.31685 h -1.789051 v 1.23263 z m 3.812842,0 q -0.127513,0 -0.235707,-0.0618 -0.104329,-0.0657 -0.170017,-0.17001 -0.06182,-0.1082 -0.06182,-0.23571 v -2.50776 h 0.316851 v 2.50776 q 0,0.0618 0.04251,0.10819 0.04637,0.0425 0.108193,0.0425 h 0.378676 v 0.31685 h -0.378676 z m 1.703077,0 q -0.127514,0 -0.235707,-0.0618 -0.104329,-0.0657 -0.170018,-0.17001 -0.06182,-0.1082 -0.06182,-0.23571 v -0.81145 h 1.962932 v -0.4946 q 0,-0.0618 -0.04637,-0.10432 -0.04251,-0.0464 -0.104329,-0.0464 h -1.812235 v -0.31685 h 1.812235 q 0.131377,0 0.235706,0.0657 0.108193,0.0618 0.170018,0.17002 0.06569,0.10433 0.06569,0.23184 v 1.7736 z m 0,-0.31685 h 1.495383 v -0.6453 h -1.646081 v 0.4946 q 0,0.0618 0.0425,0.10819 0.04637,0.0425 0.108193,0.0425 z m 2.738643,0.31685 v 0 -2.24114 h 1.816099 q 0.127513,0 0.231842,0.0657 0.108194,0.0618 0.170018,0.17002 0.06569,0.10433 0.06569,0.23184 v 1.7736 h -0.316851 v -1.7736 q 0,-0.0618 -0.04637,-0.10432 -0.0425,-0.0464 -0.104329,-0.0464 h -1.344686 q -0.06182,0 -0.108193,0.0464 -0.04637,0.0425 -0.04637,0.10432 v 1.7736 z m 3.627367,0.88486 v 0 -0.32071 h 1.398782 q 0.06182,0 0.104329,-0.0464 0.04637,-0.0425 0.04637,-0.10433 v -0.41345 h -1.495384 q -0.127513,0 -0.235706,-0.0618 -0.104329,-0.0657 -0.170018,-0.17001 -0.06182,-0.1082 -0.06182,-0.23571 v -1.30605 q 0,-0.12751 0.06182,-0.23184 0.06569,-0.10819 0.170018,-0.17002 0.108193,-0.0657 0.235706,-0.0657 h 1.344686 q 0.131378,0 0.235707,0.0657 0.108193,0.0618 0.170018,0.17002 0.06182,0.10433 0.06182,0.23184 v 2.18705 q 0,0.13138 -0.06182,0.23571 -0.06182,0.10819 -0.170018,0.17001 -0.104329,0.0657 -0.235707,0.0657 z m 0.0541,-1.20171 h 1.344686 q 0.06182,0 0.104329,-0.0425 0.04637,-0.0464 0.04637,-0.10819 v -1.30605 q 0,-0.0618 -0.04637,-0.10432 -0.0425,-0.0464 -0.104329,-0.0464 h -1.344686 q -0.06182,0 -0.108193,0.0464 -0.0425,0.0425 -0.0425,0.10432 v 1.30605 q 0,0.0618 0.0425,0.10819 0.04637,0.0425 0.108193,0.0425 z m 3.194602,0.31685 q -0.127513,0 -0.235707,-0.0618 -0.104329,-0.0657 -0.170017,-0.17001 -0.06182,-0.1082 -0.06182,-0.23571 v -1.30605 q 0,-0.12751 0.06182,-0.23184 0.06569,-0.10819 0.170017,-0.17002 0.108194,-0.0657 0.235707,-0.0657 h 1.344686 q 0.131377,0 0.235706,0.0657 0.108193,0.0618 0.170018,0.17002 0.06569,0.10433 0.06569,0.23184 v 0.81145 h -1.966797 v 0.4946 q 0,0.0618 0.04251,0.10819 0.04637,0.0425 0.108193,0.0425 h 1.816099 v 0.31685 h -1.816099 z m -0.150698,-1.279 h 1.646081 v -0.4946 q 0,-0.0618 -0.04637,-0.10432 -0.04251,-0.0464 -0.104329,-0.0464 h -1.344686 q -0.06182,0 -0.108193,0.0464 -0.04251,0.0425 -0.04251,0.10432 z m 2.916387,1.279 v 0 -1.7736 q 0,-0.12751 0.06182,-0.23184 0.06569,-0.10819 0.170017,-0.17002 0.108194,-0.0657 0.235707,-0.0657 h 1.259677 v 0.31685 h -1.259677 q -0.06182,0 -0.108193,0.0464 -0.04251,0.0425 -0.04251,0.10432 v 1.7736 z"
        id="text4"
        style="font-size:3.86404px;font-family:Orbitron;-inkscape-font-specification:Orbitron;letter-spacing:0.574778px;fill:#2e2e2e;stroke-width:0.0684573;stroke-dashoffset:1.36063"
        aria-label="Flanger" /><g
        id="g5"
        transform="matrix(1.1753879,0,0,1.1753879,-187.96209,-60.453446)"><path
          style="fill:#2e2e2e;fill-opacity:1;stroke-width:0.3;stroke-dashoffset:1.36063"
          class="initial"
          d="m 215.10625,358.17241 v -5.06109 l 1.74466,-1.74466 h 6.08272 c 0,0 0.0943,7.05721 0,7.05721 -0.0943,0 -7.82738,0 -7.82738,0 z"
          id="path3-1" /><path
          d="m 216.77214,357.38156 v -4.97262 h 4.53752 v 0.55942 h -3.9781 v 1.64373 h 3.19767 v 0.56632 h -3.19767 v 2.20315 z"
          id="text5"
          style="font-size:6.90642px;font-family:Orbitron;-inkscape-font-specification:Orbitron;letter-spacing:1.02733px;fill:#ffffff;stroke-width:0.122358;stroke-dashoffset:1.36063"
          aria-label="F" /></g></g></g></svg>
